{"glyphs":{"0":{"ha":828,"x_min":88,"x_max":740,"o":"m 414 992 q 588 931 515 992 q 701 756 661 869 q 740 486 740 643 q 701 216 740 329 q 588 42 661 103 q 414 -19 515 -19 q 240 42 313 -19 q 127 216 167 103 q 88 486 88 329 q 127 756 88 643 q 240 931 167 869 q 414 992 313 992 m 414 950 q 247 826 308 950 q 185 486 185 701 q 247 147 185 271 q 414 22 308 22 q 582 147 521 22 q 643 486 643 271 q 582 826 643 701 q 414 950 521 950 z "},"1":{"ha":478,"x_min":83,"x_max":394,"o":"m 394 0 l 394 14 l 365 14 q 312 35 335 14 q 289 88 289 57 l 289 992 l 275 992 q 232 952 254 968 q 186 927 210 936 q 137 913 163 918 q 83 903 111 907 l 83 889 l 136 889 q 184 872 168 889 q 200 821 200 854 l 200 89 q 178 36 200 58 q 124 14 156 14 l 94 14 l 93 0 l 394 0 z "},"2":{"ha":768,"x_min":83,"x_max":719,"o":"m 128 744 l 103 901 q 171 948 129 928 q 260 980 213 968 q 351 992 307 992 q 512 958 443 992 q 618 864 581 925 q 656 717 656 803 q 624 573 656 646 q 543 430 593 500 q 435 295 493 360 q 321 176 376 231 q 224 78 265 121 l 543 78 q 612 89 585 78 q 660 126 639 100 q 706 196 682 153 l 719 196 l 654 0 l 83 0 l 83 14 q 194 123 132 58 q 318 263 256 188 q 433 417 381 338 q 519 572 486 496 q 551 711 551 647 q 498 888 551 824 q 351 950 444 953 q 197 896 254 949 q 142 744 140 843 l 128 744 z "},"3":{"ha":699,"x_min":83,"x_max":601,"o":"m 301 989 q 447 966 386 993 q 542 891 508 939 q 575 782 575 843 q 553 686 575 732 q 495 607 531 640 q 419 559 460 574 q 340 554 378 544 q 432 538 386 554 q 517 490 478 522 q 578 410 556 458 q 601 300 601 363 q 574 176 601 235 q 499 72 547 118 q 386 -6 451 25 q 244 -48 321 -37 q 83 -44 167 -58 l 86 -31 q 243 -8 169 -32 q 374 60 317 15 q 465 167 432 104 q 497 304 497 229 q 460 434 497 383 q 360 509 424 485 q 213 533 296 533 l 215 547 q 338 575 278 547 q 435 656 397 603 q 469 785 474 708 q 449 863 468 826 q 394 924 431 900 q 299 947 357 947 q 165 895 213 947 q 122 761 118 843 l 108 761 l 85 890 q 169 956 118 928 q 301 989 219 985 z "},"4":{"ha":810,"x_min":56,"x_max":728,"o":"m 488 853 l 564 992 l 578 992 l 578 1 l 488 1 l 488 853 m 564 992 l 578 940 l 160 422 l 638 422 q 689 429 676 422 q 714 450 701 436 l 728 450 l 699 346 l 56 346 l 56 360 l 564 992 m 578 89 q 601 36 578 58 q 654 14 624 14 l 669 14 l 669 0 l 394 0 l 396 14 l 410 14 q 465 35 442 14 q 488 89 488 57 l 578 89 z "},"5":{"ha":692,"x_min":69,"x_max":592,"o":"m 540 867 l 214 846 l 150 626 q 317 642 238 649 q 460 601 397 636 q 557 505 522 567 q 588 353 592 443 q 540 180 583 251 q 433 62 497 108 q 297 -10 368 15 q 165 -42 226 -35 q 69 -43 104 -49 l 72 -29 q 157 -17 107 -31 q 262 26 207 -3 q 365 100 317 56 q 445 205 413 144 q 483 342 478 265 q 439 494 490 436 q 297 565 388 551 q 92 540 206 579 l 79 546 l 188 922 l 463 943 q 532 963 507 943 q 572 1013 557 982 l 586 1013 l 540 867 z "},"6":{"ha":778,"x_min":89,"x_max":707,"o":"m 557 1019 l 563 1010 q 394 916 464 978 q 280 770 324 854 q 215 586 236 686 q 194 378 194 486 q 219 193 194 274 q 291 67 243 113 q 410 21 339 21 q 517 58 476 21 q 578 155 558 96 q 597 281 599 214 q 574 401 596 350 q 511 481 553 453 q 410 510 469 510 q 326 492 367 510 q 257 438 285 474 l 249 450 q 331 520 285 493 q 426 556 376 547 q 522 555 475 565 q 607 514 568 544 q 671 430 646 483 q 701 300 696 376 q 673 147 707 219 q 572 27 639 74 q 410 -21 504 -19 q 244 25 317 -22 q 130 162 171 72 q 90 378 89 251 q 120 594 92 486 q 206 792 149 701 q 350 944 263 883 q 557 1019 438 1006 z "},"7":{"ha":697,"x_min":49,"x_max":643,"o":"m 49 813 l 63 813 q 101 875 78 854 q 167 896 125 896 l 558 896 l 436 575 q 395 471 418 529 q 347 348 372 413 q 297 219 322 283 q 249 99 271 156 q 210 0 226 43 l 307 0 q 337 108 318 46 q 378 240 356 171 q 423 374 400 308 q 465 490 446 439 q 493 569 483 542 l 643 972 l 88 969 l 49 813 z "},"8":{"ha":767,"x_min":81,"x_max":683,"o":"m 133 760 q 163 877 133 825 q 249 960 193 929 q 383 992 306 990 q 512 965 456 993 q 601 885 568 938 q 633 757 633 832 q 610 645 633 696 q 540 559 586 594 q 428 507 494 524 l 390 528 q 473 601 443 563 q 516 683 503 640 q 529 768 529 725 q 490 901 529 851 q 385 950 451 950 q 276 899 314 950 q 238 778 238 847 q 254 692 238 732 q 303 619 271 651 q 381 560 335 586 q 471 513 419 538 q 571 455 522 489 q 651 370 619 421 q 683 243 683 319 q 647 106 683 165 q 542 14 610 47 q 383 -19 475 -19 q 258 0 315 -19 q 162 55 201 19 q 101 140 122 90 q 83 251 81 190 q 95 322 85 289 q 124 383 106 354 q 170 435 143 411 q 233 481 197 460 q 311 521 268 503 l 344 494 q 235 394 281 456 q 188 238 189 332 q 239 81 186 139 q 385 22 292 22 q 495 51 453 22 q 558 126 538 81 q 579 224 579 172 q 560 314 579 278 q 511 375 542 350 q 445 418 481 400 q 376 453 410 436 q 281 512 325 481 q 203 581 236 543 q 151 664 169 619 q 133 760 133 708 z "},"9":{"ha":778,"x_min":75,"x_max":688,"o":"m 221 -51 l 217 -42 q 385 47 315 -14 q 498 193 454 108 q 563 377 542 278 q 583 581 583 476 q 560 776 583 693 q 489 903 536 858 q 369 947 442 947 q 262 911 304 947 q 200 816 219 875 q 182 688 181 757 q 205 568 183 621 q 268 486 226 515 q 369 458 310 457 q 453 477 413 460 q 522 531 494 494 l 529 518 q 449 447 494 474 q 353 413 403 421 q 255 416 303 404 q 167 459 207 428 q 104 542 128 490 q 78 668 81 594 q 113 838 75 767 q 217 948 150 908 q 369 989 285 988 q 601 887 514 992 q 688 589 688 782 q 660 377 688 485 q 574 176 632 269 q 429 21 517 82 q 221 -51 342 -40 z "},"A":{"ha":989,"x_min":-14,"x_max":1004,"o":"m 499 992 l 910 8 l 792 8 l 471 860 l 499 992 m 200 101 q 197 54 190 74 q 220 24 204 35 q 253 14 236 14 l 265 14 l 265 0 l -14 0 l -14 14 q -8 14 -14 14 q -1 14 -1 14 q 65 34 31 14 q 121 101 99 54 l 200 101 m 499 992 l 511 894 l 163 4 l 79 4 l 435 849 q 442 866 435 849 q 460 908 450 883 q 478 957 471 933 q 486 992 486 981 l 499 992 m 694 379 l 694 338 l 260 338 l 260 379 l 694 379 m 757 101 l 871 101 q 926 34 892 54 q 993 14 961 14 q 999 14 993 14 q 1004 14 1004 14 l 1004 0 l 692 0 l 692 14 l 704 14 q 751 37 731 14 q 757 101 772 60 z "},"Á":{"ha":989,"x_min":-14,"x_max":1004,"o":"m 499 992 l 910 8 l 792 8 l 471 860 l 499 992 m 200 101 q 197 54 190 74 q 220 24 204 35 q 253 14 236 14 l 265 14 l 265 0 l -14 0 l -14 14 q -8 14 -14 14 q -1 14 -1 14 q 65 34 31 14 q 121 101 99 54 l 200 101 m 499 992 l 511 894 l 163 4 l 79 4 l 435 849 q 442 866 435 849 q 460 908 450 883 q 478 957 471 933 q 486 992 486 981 l 499 992 m 694 379 l 694 338 l 260 338 l 260 379 l 694 379 m 757 101 l 871 101 q 926 34 892 54 q 993 14 961 14 q 999 14 993 14 q 1004 14 1004 14 l 1004 0 l 692 0 l 692 14 l 704 14 q 751 37 731 14 q 757 101 772 60 z "},"Ă":{"ha":989,"x_min":-14,"x_max":1004,"o":"m 499 992 l 910 8 l 792 8 l 471 860 l 499 992 m 200 101 q 197 54 190 74 q 220 24 204 35 q 253 14 236 14 l 265 14 l 265 0 l -14 0 l -14 14 q -8 14 -14 14 q -1 14 -1 14 q 65 34 31 14 q 121 101 99 54 l 200 101 m 499 992 l 511 894 l 163 4 l 79 4 l 435 849 q 442 866 435 849 q 460 908 450 883 q 478 957 471 933 q 486 992 486 981 l 499 992 m 694 379 l 694 338 l 260 338 l 260 379 l 694 379 m 757 101 l 871 101 q 926 34 892 54 q 993 14 961 14 q 999 14 993 14 q 1004 14 1004 14 l 1004 0 l 692 0 l 692 14 l 704 14 q 751 37 731 14 q 757 101 772 60 z "},"Â":{"ha":989,"x_min":-14,"x_max":1004,"o":"m 499 992 l 910 8 l 792 8 l 471 860 l 499 992 m 200 101 q 197 54 190 74 q 220 24 204 35 q 253 14 236 14 l 265 14 l 265 0 l -14 0 l -14 14 q -8 14 -14 14 q -1 14 -1 14 q 65 34 31 14 q 121 101 99 54 l 200 101 m 499 992 l 511 894 l 163 4 l 79 4 l 435 849 q 442 866 435 849 q 460 908 450 883 q 478 957 471 933 q 486 992 486 981 l 499 992 m 694 379 l 694 338 l 260 338 l 260 379 l 694 379 m 757 101 l 871 101 q 926 34 892 54 q 993 14 961 14 q 999 14 993 14 q 1004 14 1004 14 l 1004 0 l 692 0 l 692 14 l 704 14 q 751 37 731 14 q 757 101 772 60 z "},"Ä":{"ha":989,"x_min":-14,"x_max":1004,"o":"m 499 992 l 910 8 l 792 8 l 471 860 l 499 992 m 200 101 q 197 54 190 74 q 220 24 204 35 q 253 14 236 14 l 265 14 l 265 0 l -14 0 l -14 14 q -8 14 -14 14 q -1 14 -1 14 q 65 34 31 14 q 121 101 99 54 l 200 101 m 499 992 l 511 894 l 163 4 l 79 4 l 435 849 q 442 866 435 849 q 460 908 450 883 q 478 957 471 933 q 486 992 486 981 l 499 992 m 694 379 l 694 338 l 260 338 l 260 379 l 694 379 m 757 101 l 871 101 q 926 34 892 54 q 993 14 961 14 q 999 14 993 14 q 1004 14 1004 14 l 1004 0 l 692 0 l 692 14 l 704 14 q 751 37 731 14 q 757 101 772 60 z "},"À":{"ha":989,"x_min":-14,"x_max":1004,"o":"m 499 992 l 910 8 l 792 8 l 471 860 l 499 992 m 200 101 q 197 54 190 74 q 220 24 204 35 q 253 14 236 14 l 265 14 l 265 0 l -14 0 l -14 14 q -8 14 -14 14 q -1 14 -1 14 q 65 34 31 14 q 121 101 99 54 l 200 101 m 499 992 l 511 894 l 163 4 l 79 4 l 435 849 q 442 866 435 849 q 460 908 450 883 q 478 957 471 933 q 486 992 486 981 l 499 992 m 694 379 l 694 338 l 260 338 l 260 379 l 694 379 m 757 101 l 871 101 q 926 34 892 54 q 993 14 961 14 q 999 14 993 14 q 1004 14 1004 14 l 1004 0 l 692 0 l 692 14 l 704 14 q 751 37 731 14 q 757 101 772 60 z "},"Ā":{"ha":989,"x_min":-14,"x_max":1004,"o":"m 499 992 l 910 8 l 792 8 l 471 860 l 499 992 m 200 101 q 197 54 190 74 q 220 24 204 35 q 253 14 236 14 l 265 14 l 265 0 l -14 0 l -14 14 q -8 14 -14 14 q -1 14 -1 14 q 65 34 31 14 q 121 101 99 54 l 200 101 m 499 992 l 511 894 l 163 4 l 79 4 l 435 849 q 442 866 435 849 q 460 908 450 883 q 478 957 471 933 q 486 992 486 981 l 499 992 m 694 379 l 694 338 l 260 338 l 260 379 l 694 379 m 757 101 l 871 101 q 926 34 892 54 q 993 14 961 14 q 999 14 993 14 q 1004 14 1004 14 l 1004 0 l 692 0 l 692 14 l 704 14 q 751 37 731 14 q 757 101 772 60 z "},"Ą":{"ha":1024,"x_min":-14,"x_max":1039,"o":"m 518 992 l 949 8 l 831 3 l 490 860 l 518 992 m 518 992 l 531 894 l 161 4 l 78 4 l 454 849 q 462 866 454 849 q 480 908 469 883 q 498 957 490 933 q 506 992 506 981 l 518 992 m 713 379 l 713 338 l 279 338 l 279 379 l 713 379 m 200 101 q 197 54 190 74 q 220 24 204 35 q 253 14 236 14 l 265 14 l 265 0 l -14 0 l -14 14 q -8 14 -14 14 q -1 14 -1 14 q 65 34 31 14 q 121 101 99 54 l 200 101 m 850 0 q 785 -37 807 -7 q 764 -99 764 -67 q 792 -164 764 -137 q 861 -191 821 -190 q 936 -157 901 -192 l 944 -165 q 903 -219 932 -200 q 840 -244 875 -239 q 774 -236 806 -249 q 720 -194 742 -224 q 699 -117 699 -165 q 719 -53 697 -81 q 767 -11 740 -25 q 803 31 797 6 q 792 100 808 57 l 911 94 q 963 32 931 51 q 1026 13 996 13 q 1033 13 1026 13 q 1039 13 1039 13 l 1039 0 q 969 1 996 0 q 924 3 942 3 q 889 4 906 4 q 850 0 872 4 z "},"Å":{"ha":989,"x_min":-14,"x_max":1004,"o":"m 499 992 l 910 8 l 792 8 l 471 860 l 499 992 m 200 101 q 197 54 190 74 q 220 24 204 35 q 253 14 236 14 l 265 14 l 265 0 l -14 0 l -14 14 q -8 14 -14 14 q -1 14 -1 14 q 65 34 31 14 q 121 101 99 54 l 200 101 m 499 992 l 511 894 l 163 4 l 79 4 l 435 849 q 442 866 435 849 q 460 908 450 883 q 478 957 471 933 q 486 992 486 981 l 499 992 m 694 379 l 694 338 l 260 338 l 260 379 l 694 379 m 757 101 l 871 101 q 926 34 892 54 q 993 14 961 14 q 999 14 993 14 q 1004 14 1004 14 l 1004 0 l 692 0 l 692 14 l 704 14 q 751 37 731 14 q 757 101 772 60 m 494 1163 q 578 1138 544 1163 q 613 1068 613 1113 q 578 1001 613 1028 q 494 974 544 974 q 410 1001 443 974 q 376 1068 376 1028 q 410 1136 376 1110 q 494 1163 443 1163 m 494 1142 q 450 1123 468 1142 q 432 1068 432 1104 q 450 1015 432 1033 q 494 996 468 996 q 538 1015 521 996 q 556 1068 556 1033 q 538 1123 556 1104 q 494 1142 521 1142 z "},"Ã":{"ha":989,"x_min":-14,"x_max":1004,"o":"m 499 992 l 910 8 l 792 8 l 471 860 l 499 992 m 200 101 q 197 54 190 74 q 220 24 204 35 q 253 14 236 14 l 265 14 l 265 0 l -14 0 l -14 14 q -8 14 -14 14 q -1 14 -1 14 q 65 34 31 14 q 121 101 99 54 l 200 101 m 499 992 l 511 894 l 163 4 l 79 4 l 435 849 q 442 866 435 849 q 460 908 450 883 q 478 957 471 933 q 486 992 486 981 l 499 992 m 694 379 l 694 338 l 260 338 l 260 379 l 694 379 m 757 101 l 871 101 q 926 34 892 54 q 993 14 961 14 q 999 14 993 14 q 1004 14 1004 14 l 1004 0 l 692 0 l 692 14 l 704 14 q 751 37 731 14 q 757 101 772 60 z "},"Æ":{"ha":1253,"x_min":-14,"x_max":1192,"o":"m 213 93 q 202 56 201 74 q 215 26 203 38 q 249 14 228 14 l 263 14 l 263 0 l -14 0 l -14 14 q -9 14 -14 14 q -4 14 -4 14 q 67 40 31 14 q 124 99 103 67 l 213 93 m 738 972 l 738 0 l 647 0 l 647 908 l 738 972 m 650 81 l 650 0 l 564 0 l 565 14 q 572 14 565 14 q 578 14 578 14 q 626 34 606 14 q 647 81 646 54 l 650 81 m 1113 43 l 1113 0 l 733 0 l 733 43 l 1113 43 m 1053 486 l 1053 444 l 407 444 l 414 486 l 1053 486 m 1111 972 l 1111 929 l 682 929 l 678 882 l 160 4 l 64 4 l 643 910 q 642 944 651 929 q 614 958 633 958 l 608 958 l 608 972 l 1111 972 m 1192 193 l 1114 0 l 921 0 l 963 43 q 1098 85 1046 43 q 1178 193 1150 128 l 1192 193 m 1053 447 l 1053 356 l 1039 356 l 1039 376 q 1019 424 1039 404 q 972 444 1000 444 l 972 447 l 1053 447 m 1053 575 l 1053 483 l 972 483 l 972 486 q 1019 508 1000 488 q 1039 556 1039 528 l 1039 575 l 1053 575 m 1111 933 l 1111 840 l 1097 840 l 1099 861 q 1080 909 1101 889 q 1031 929 1058 929 l 1031 933 l 1111 933 m 1111 997 l 1111 957 l 943 972 q 1008 976 974 972 q 1070 986 1042 981 q 1111 997 1099 992 z "},"B":{"ha":814,"x_min":83,"x_max":746,"o":"m 213 972 l 360 972 q 524 943 457 972 q 626 862 592 914 q 661 740 661 810 q 639 638 661 682 q 582 567 617 594 q 508 529 547 540 q 635 481 582 518 q 717 387 689 443 q 746 261 746 331 q 708 124 746 183 q 598 33 671 65 q 422 0 525 0 l 268 0 q 269 13 268 0 q 269 38 269 25 q 269 50 269 50 l 417 50 q 539 76 489 50 q 615 151 589 101 q 642 271 642 201 q 612 397 642 349 q 535 471 582 446 q 433 505 488 496 q 328 514 378 514 l 328 526 q 399 533 360 526 q 474 561 438 540 q 533 623 510 582 q 557 731 557 664 q 534 838 557 793 q 466 905 511 882 q 354 928 421 928 l 226 928 q 223 940 226 929 q 216 961 219 950 q 213 972 213 972 m 281 972 l 281 0 l 190 0 l 190 972 l 281 972 m 194 101 l 194 0 l 83 0 l 85 14 q 94 14 88 14 q 101 14 100 14 q 164 40 138 14 q 190 101 190 65 l 194 101 m 194 871 l 190 871 q 164 933 190 907 q 101 958 138 958 q 94 958 100 958 q 85 958 88 958 l 83 972 l 194 972 l 194 871 z "},"C":{"ha":1056,"x_min":83,"x_max":986,"o":"m 986 406 l 969 188 q 878 81 933 128 q 749 8 824 35 q 579 -19 675 -19 q 322 44 435 -18 q 147 220 210 107 q 83 488 83 333 q 146 752 83 639 q 322 928 208 865 q 588 992 435 992 q 773 965 690 992 q 917 897 856 938 l 944 701 l 932 701 q 807 887 901 824 q 588 950 713 950 q 376 892 465 950 q 237 731 286 835 q 188 489 188 628 q 237 246 188 350 q 374 83 286 142 q 579 22 463 25 q 762 59 678 22 q 903 180 846 96 q 975 406 960 264 l 986 406 z "},"Ć":{"ha":1056,"x_min":83,"x_max":986,"o":"m 986 406 l 969 188 q 878 81 933 128 q 749 8 824 35 q 579 -19 675 -19 q 322 44 435 -18 q 147 220 210 107 q 83 488 83 333 q 146 752 83 639 q 322 928 208 865 q 588 992 435 992 q 773 965 690 992 q 917 897 856 938 l 944 701 l 932 701 q 807 887 901 824 q 588 950 713 950 q 376 892 465 950 q 237 731 286 835 q 188 489 188 628 q 237 246 188 350 q 374 83 286 142 q 579 22 463 25 q 762 59 678 22 q 903 180 846 96 q 975 406 960 264 l 986 406 z "},"Č":{"ha":1056,"x_min":83,"x_max":986,"o":"m 986 406 l 969 188 q 878 81 933 128 q 749 8 824 35 q 579 -19 675 -19 q 322 44 435 -18 q 147 220 210 107 q 83 488 83 333 q 146 752 83 639 q 322 928 208 865 q 588 992 435 992 q 773 965 690 992 q 917 897 856 938 l 944 701 l 932 701 q 807 887 901 824 q 588 950 713 950 q 376 892 465 950 q 237 731 286 835 q 188 489 188 628 q 237 246 188 350 q 374 83 286 142 q 579 22 463 25 q 762 59 678 22 q 903 180 846 96 q 975 406 960 264 l 986 406 z "},"Ç":{"ha":1056,"x_min":83,"x_max":986,"o":"m 986 406 l 969 188 q 878 81 933 128 q 749 8 824 35 q 579 -19 675 -19 q 322 44 435 -18 q 147 220 210 107 q 83 488 83 333 q 146 752 83 639 q 322 928 208 865 q 588 992 435 992 q 773 965 690 992 q 917 897 856 938 l 944 701 l 932 701 q 807 887 901 824 q 588 950 713 950 q 376 892 465 950 q 237 731 286 835 q 188 489 188 628 q 237 246 188 350 q 374 83 286 142 q 579 22 463 25 q 762 59 678 22 q 903 180 846 96 q 975 406 960 264 l 986 406 z "},"Ċ":{"ha":1056,"x_min":83,"x_max":986,"o":"m 986 406 l 969 188 q 878 81 933 128 q 749 8 824 35 q 579 -19 675 -19 q 322 44 435 -18 q 147 220 210 107 q 83 488 83 333 q 146 752 83 639 q 322 928 208 865 q 588 992 435 992 q 773 965 690 992 q 917 897 856 938 l 944 701 l 932 701 q 807 887 901 824 q 588 950 713 950 q 376 892 465 950 q 237 731 286 835 q 188 489 188 628 q 237 246 188 350 q 374 83 286 142 q 579 22 463 25 q 762 59 678 22 q 903 180 846 96 q 975 406 960 264 l 986 406 z "},"D":{"ha":1121,"x_min":83,"x_max":1053,"o":"m 554 972 q 815 912 703 972 q 990 742 926 851 q 1053 486 1053 632 q 990 231 1053 340 q 815 61 926 122 q 554 0 703 0 l 257 0 l 256 42 q 285 42 256 42 q 360 42 315 42 q 450 42 406 42 q 524 42 494 42 q 554 42 554 42 q 762 97 674 42 q 899 253 850 153 q 949 486 949 353 q 899 719 949 619 q 761 875 850 819 q 554 931 672 931 q 523 931 554 931 q 445 931 492 931 q 352 931 399 931 q 274 931 306 931 q 242 931 242 931 l 242 972 l 554 972 m 281 972 l 281 0 l 190 0 l 190 972 l 281 972 m 194 101 l 194 0 l 83 0 l 83 14 q 92 14 83 14 q 101 14 101 14 q 163 40 138 14 q 190 101 189 65 l 194 101 m 194 871 l 190 871 q 164 933 190 907 q 101 958 138 958 q 93 958 101 958 q 85 958 85 958 l 83 972 l 194 972 l 194 871 z "},"Ð":{"ha":1121,"x_min":83,"x_max":1053,"o":"m 83 507 l 514 507 l 514 465 l 83 465 l 83 507 m 560 972 q 819 912 708 972 q 992 742 931 851 q 1053 486 1053 632 q 992 231 1053 340 q 819 61 931 122 q 560 0 708 0 l 264 0 l 263 42 q 292 42 263 42 q 367 42 322 42 q 456 42 411 42 q 530 42 500 42 q 560 42 560 42 q 768 97 679 42 q 906 253 857 153 q 956 486 956 353 q 906 719 956 619 q 768 875 857 819 q 560 931 679 931 q 528 931 560 931 q 451 931 497 931 q 358 931 404 931 q 280 931 311 931 q 249 931 249 931 l 249 972 l 560 972 m 288 972 l 288 0 l 197 0 l 197 972 l 288 972 m 201 101 l 201 0 l 90 0 l 90 14 q 99 14 90 14 q 108 14 108 14 q 170 40 144 14 q 197 101 196 65 l 201 101 m 201 871 l 197 871 q 170 933 196 907 q 108 958 144 958 q 100 958 108 958 q 90 958 92 958 l 90 972 l 201 972 l 201 871 z "},"Ď":{"ha":1121,"x_min":83,"x_max":1053,"o":"m 554 972 q 815 912 703 972 q 990 742 926 851 q 1053 486 1053 632 q 990 231 1053 340 q 815 61 926 122 q 554 0 703 0 l 257 0 l 256 42 q 285 42 256 42 q 360 42 315 42 q 450 42 406 42 q 524 42 494 42 q 554 42 554 42 q 762 97 674 42 q 899 253 850 153 q 949 486 949 353 q 899 719 949 619 q 761 875 850 819 q 554 931 672 931 q 523 931 554 931 q 445 931 492 931 q 352 931 399 931 q 274 931 306 931 q 242 931 242 931 l 242 972 l 554 972 m 281 972 l 281 0 l 190 0 l 190 972 l 281 972 m 194 101 l 194 0 l 83 0 l 83 14 q 92 14 83 14 q 101 14 101 14 q 163 40 138 14 q 190 101 189 65 l 194 101 m 194 871 l 190 871 q 164 933 190 907 q 101 958 138 958 q 93 958 101 958 q 85 958 85 958 l 83 972 l 194 972 l 194 871 z "},"Đ":{"ha":1121,"x_min":83,"x_max":1053,"o":"m 554 972 q 815 912 703 972 q 990 742 926 851 q 1053 486 1053 632 q 990 231 1053 340 q 815 61 926 122 q 554 0 703 0 l 257 0 l 256 42 q 285 42 256 42 q 360 42 315 42 q 450 42 406 42 q 524 42 494 42 q 554 42 554 42 q 762 97 674 42 q 899 253 850 153 q 949 486 949 353 q 899 719 949 619 q 761 875 850 819 q 554 931 672 931 q 523 931 554 931 q 445 931 492 931 q 352 931 399 931 q 274 931 306 931 q 242 931 242 931 l 242 972 l 554 972 m 281 972 l 281 0 l 190 0 l 190 972 l 281 972 m 194 101 l 194 0 l 83 0 l 83 14 q 92 14 83 14 q 101 14 101 14 q 163 40 138 14 q 190 101 189 65 l 194 101 m 194 871 l 190 871 q 164 933 190 907 q 101 958 138 958 q 93 958 101 958 q 85 958 85 958 l 83 972 l 194 972 l 194 871 z "},"E":{"ha":801,"x_min":83,"x_max":740,"o":"m 281 972 l 281 0 l 190 0 l 190 972 l 281 972 m 656 43 l 656 0 l 276 0 l 276 43 l 656 43 m 596 500 l 596 458 l 276 458 l 276 500 l 596 500 m 656 972 l 656 929 l 276 929 l 276 972 l 656 972 m 740 225 l 660 0 l 429 0 l 479 43 q 599 66 553 43 q 675 131 646 89 q 726 225 704 172 l 740 225 m 596 461 l 596 369 l 582 369 l 582 390 q 563 438 582 418 q 515 458 543 458 l 515 461 l 596 461 m 596 589 l 596 497 l 515 497 l 515 500 q 563 522 543 501 q 582 569 582 542 l 582 589 l 596 589 m 656 933 l 656 822 l 642 822 l 642 847 q 618 905 642 881 q 560 931 594 929 l 560 933 l 656 933 m 656 997 l 656 957 l 486 972 q 551 976 517 972 q 614 986 585 981 q 656 997 643 992 m 194 101 l 194 0 l 83 0 l 83 14 q 92 14 83 14 q 101 14 101 14 q 163 40 138 14 q 190 101 189 65 l 194 101 m 194 871 l 190 871 q 164 933 190 907 q 101 958 138 958 q 93 958 101 958 q 85 958 85 958 l 83 972 l 194 972 l 194 871 z "},"É":{"ha":801,"x_min":83,"x_max":740,"o":"m 281 972 l 281 0 l 190 0 l 190 972 l 281 972 m 656 43 l 656 0 l 276 0 l 276 43 l 656 43 m 596 500 l 596 458 l 276 458 l 276 500 l 596 500 m 656 972 l 656 929 l 276 929 l 276 972 l 656 972 m 740 225 l 660 0 l 429 0 l 479 43 q 599 66 553 43 q 675 131 646 89 q 726 225 704 172 l 740 225 m 596 461 l 596 369 l 582 369 l 582 390 q 563 438 582 418 q 515 458 543 458 l 515 461 l 596 461 m 596 589 l 596 497 l 515 497 l 515 500 q 563 522 543 501 q 582 569 582 542 l 582 589 l 596 589 m 656 933 l 656 822 l 642 822 l 642 847 q 618 905 642 881 q 560 931 594 929 l 560 933 l 656 933 m 656 997 l 656 957 l 486 972 q 551 976 517 972 q 614 986 585 981 q 656 997 643 992 m 194 101 l 194 0 l 83 0 l 83 14 q 92 14 83 14 q 101 14 101 14 q 163 40 138 14 q 190 101 189 65 l 194 101 m 194 871 l 190 871 q 164 933 190 907 q 101 958 138 958 q 93 958 101 958 q 85 958 85 958 l 83 972 l 194 972 l 194 871 z "},"Ě":{"ha":801,"x_min":83,"x_max":740,"o":"m 281 972 l 281 0 l 190 0 l 190 972 l 281 972 m 656 43 l 656 0 l 276 0 l 276 43 l 656 43 m 596 500 l 596 458 l 276 458 l 276 500 l 596 500 m 656 972 l 656 929 l 276 929 l 276 972 l 656 972 m 740 225 l 660 0 l 429 0 l 479 43 q 599 66 553 43 q 675 131 646 89 q 726 225 704 172 l 740 225 m 596 461 l 596 369 l 582 369 l 582 390 q 563 438 582 418 q 515 458 543 458 l 515 461 l 596 461 m 596 589 l 596 497 l 515 497 l 515 500 q 563 522 543 501 q 582 569 582 542 l 582 589 l 596 589 m 656 933 l 656 822 l 642 822 l 642 847 q 618 905 642 881 q 560 931 594 929 l 560 933 l 656 933 m 656 997 l 656 957 l 486 972 q 551 976 517 972 q 614 986 585 981 q 656 997 643 992 m 194 101 l 194 0 l 83 0 l 83 14 q 92 14 83 14 q 101 14 101 14 q 163 40 138 14 q 190 101 189 65 l 194 101 m 194 871 l 190 871 q 164 933 190 907 q 101 958 138 958 q 93 958 101 958 q 85 958 85 958 l 83 972 l 194 972 l 194 871 z "},"Ê":{"ha":801,"x_min":83,"x_max":740,"o":"m 281 972 l 281 0 l 190 0 l 190 972 l 281 972 m 656 43 l 656 0 l 276 0 l 276 43 l 656 43 m 596 500 l 596 458 l 276 458 l 276 500 l 596 500 m 656 972 l 656 929 l 276 929 l 276 972 l 656 972 m 740 225 l 660 0 l 429 0 l 479 43 q 599 66 553 43 q 675 131 646 89 q 726 225 704 172 l 740 225 m 596 461 l 596 369 l 582 369 l 582 390 q 563 438 582 418 q 515 458 543 458 l 515 461 l 596 461 m 596 589 l 596 497 l 515 497 l 515 500 q 563 522 543 501 q 582 569 582 542 l 582 589 l 596 589 m 656 933 l 656 822 l 642 822 l 642 847 q 618 905 642 881 q 560 931 594 929 l 560 933 l 656 933 m 656 997 l 656 957 l 486 972 q 551 976 517 972 q 614 986 585 981 q 656 997 643 992 m 194 101 l 194 0 l 83 0 l 83 14 q 92 14 83 14 q 101 14 101 14 q 163 40 138 14 q 190 101 189 65 l 194 101 m 194 871 l 190 871 q 164 933 190 907 q 101 958 138 958 q 93 958 101 958 q 85 958 85 958 l 83 972 l 194 972 l 194 871 z "},"Ë":{"ha":801,"x_min":83,"x_max":740,"o":"m 281 972 l 281 0 l 190 0 l 190 972 l 281 972 m 656 43 l 656 0 l 276 0 l 276 43 l 656 43 m 596 500 l 596 458 l 276 458 l 276 500 l 596 500 m 656 972 l 656 929 l 276 929 l 276 972 l 656 972 m 740 225 l 660 0 l 429 0 l 479 43 q 599 66 553 43 q 675 131 646 89 q 726 225 704 172 l 740 225 m 596 461 l 596 369 l 582 369 l 582 390 q 563 438 582 418 q 515 458 543 458 l 515 461 l 596 461 m 596 589 l 596 497 l 515 497 l 515 500 q 563 522 543 501 q 582 569 582 542 l 582 589 l 596 589 m 656 933 l 656 822 l 642 822 l 642 847 q 618 905 642 881 q 560 931 594 929 l 560 933 l 656 933 m 656 997 l 656 957 l 486 972 q 551 976 517 972 q 614 986 585 981 q 656 997 643 992 m 194 101 l 194 0 l 83 0 l 83 14 q 92 14 83 14 q 101 14 101 14 q 163 40 138 14 q 190 101 189 65 l 194 101 m 194 871 l 190 871 q 164 933 190 907 q 101 958 138 958 q 93 958 101 958 q 85 958 85 958 l 83 972 l 194 972 l 194 871 z "},"Ė":{"ha":801,"x_min":83,"x_max":740,"o":"m 281 972 l 281 0 l 190 0 l 190 972 l 281 972 m 656 43 l 656 0 l 276 0 l 276 43 l 656 43 m 596 500 l 596 458 l 276 458 l 276 500 l 596 500 m 656 972 l 656 929 l 276 929 l 276 972 l 656 972 m 740 225 l 660 0 l 429 0 l 479 43 q 599 66 553 43 q 675 131 646 89 q 726 225 704 172 l 740 225 m 596 461 l 596 369 l 582 369 l 582 390 q 563 438 582 418 q 515 458 543 458 l 515 461 l 596 461 m 596 589 l 596 497 l 515 497 l 515 500 q 563 522 543 501 q 582 569 582 542 l 582 589 l 596 589 m 656 933 l 656 822 l 642 822 l 642 847 q 618 905 642 881 q 560 931 594 929 l 560 933 l 656 933 m 656 997 l 656 957 l 486 972 q 551 976 517 972 q 614 986 585 981 q 656 997 643 992 m 194 101 l 194 0 l 83 0 l 83 14 q 92 14 83 14 q 101 14 101 14 q 163 40 138 14 q 190 101 189 65 l 194 101 m 194 871 l 190 871 q 164 933 190 907 q 101 958 138 958 q 93 958 101 958 q 85 958 85 958 l 83 972 l 194 972 l 194 871 z "},"È":{"ha":801,"x_min":83,"x_max":740,"o":"m 281 972 l 281 0 l 190 0 l 190 972 l 281 972 m 656 43 l 656 0 l 276 0 l 276 43 l 656 43 m 596 500 l 596 458 l 276 458 l 276 500 l 596 500 m 656 972 l 656 929 l 276 929 l 276 972 l 656 972 m 740 225 l 660 0 l 429 0 l 479 43 q 599 66 553 43 q 675 131 646 89 q 726 225 704 172 l 740 225 m 596 461 l 596 369 l 582 369 l 582 390 q 563 438 582 418 q 515 458 543 458 l 515 461 l 596 461 m 596 589 l 596 497 l 515 497 l 515 500 q 563 522 543 501 q 582 569 582 542 l 582 589 l 596 589 m 656 933 l 656 822 l 642 822 l 642 847 q 618 905 642 881 q 560 931 594 929 l 560 933 l 656 933 m 656 997 l 656 957 l 486 972 q 551 976 517 972 q 614 986 585 981 q 656 997 643 992 m 194 101 l 194 0 l 83 0 l 83 14 q 92 14 83 14 q 101 14 101 14 q 163 40 138 14 q 190 101 189 65 l 194 101 m 194 871 l 190 871 q 164 933 190 907 q 101 958 138 958 q 93 958 101 958 q 85 958 85 958 l 83 972 l 194 972 l 194 871 z "},"Ē":{"ha":801,"x_min":83,"x_max":740,"o":"m 281 972 l 281 0 l 190 0 l 190 972 l 281 972 m 656 43 l 656 0 l 276 0 l 276 43 l 656 43 m 596 500 l 596 458 l 276 458 l 276 500 l 596 500 m 656 972 l 656 929 l 276 929 l 276 972 l 656 972 m 740 225 l 660 0 l 429 0 l 479 43 q 599 66 553 43 q 675 131 646 89 q 726 225 704 172 l 740 225 m 596 461 l 596 369 l 582 369 l 582 390 q 563 438 582 418 q 515 458 543 458 l 515 461 l 596 461 m 596 589 l 596 497 l 515 497 l 515 500 q 563 522 543 501 q 582 569 582 542 l 582 589 l 596 589 m 656 933 l 656 822 l 642 822 l 642 847 q 618 905 642 881 q 560 931 594 929 l 560 933 l 656 933 m 656 997 l 656 957 l 486 972 q 551 976 517 972 q 614 986 585 981 q 656 997 643 992 m 194 101 l 194 0 l 83 0 l 83 14 q 92 14 83 14 q 101 14 101 14 q 163 40 138 14 q 190 101 189 65 l 194 101 m 194 871 l 190 871 q 164 933 190 907 q 101 958 138 958 q 93 958 101 958 q 85 958 85 958 l 83 972 l 194 972 l 194 871 z "},"Ę":{"ha":801,"x_min":83,"x_max":740,"o":"m 281 972 l 281 0 l 190 0 l 190 972 l 281 972 m 656 43 l 656 0 l 276 0 l 276 43 l 656 43 m 596 500 l 596 458 l 276 458 l 276 500 l 596 500 m 656 972 l 656 929 l 276 929 l 276 972 l 656 972 m 740 225 l 660 0 l 429 0 l 479 43 q 599 66 553 43 q 675 131 646 89 q 726 225 704 172 l 740 225 m 596 461 l 596 369 l 582 369 l 582 390 q 563 438 582 418 q 515 458 543 458 l 515 461 l 596 461 m 596 589 l 596 497 l 515 497 l 515 500 q 563 522 543 501 q 582 569 582 542 l 582 589 l 596 589 m 656 933 l 656 822 l 642 822 l 642 847 q 618 905 642 881 q 560 931 594 929 l 560 933 l 656 933 m 656 997 l 656 957 l 486 972 q 551 976 517 972 q 614 986 585 981 q 656 997 643 992 m 194 101 l 194 0 l 83 0 l 83 14 q 92 14 83 14 q 101 14 101 14 q 163 40 138 14 q 190 101 189 65 l 194 101 m 194 871 l 190 871 q 164 933 190 907 q 101 958 138 958 q 93 958 101 958 q 85 958 85 958 l 83 972 l 194 972 l 194 871 z "},"F":{"ha":751,"x_min":83,"x_max":656,"o":"m 281 972 l 281 0 l 190 0 l 190 972 l 281 972 m 596 500 l 596 458 l 276 458 l 276 500 l 596 500 m 656 972 l 656 929 l 276 929 l 276 972 l 656 972 m 596 461 l 596 369 l 582 369 l 582 390 q 563 438 582 418 q 515 458 543 458 l 515 461 l 596 461 m 596 589 l 596 497 l 515 497 l 515 500 q 563 522 543 501 q 582 569 582 542 l 582 589 l 596 589 m 656 933 l 656 840 l 642 840 l 642 861 q 622 909 642 889 q 574 929 601 929 l 574 933 l 656 933 m 656 997 l 656 957 l 486 972 q 551 976 517 972 q 614 986 585 981 q 656 997 643 992 m 194 101 l 194 0 l 83 0 l 83 14 q 92 14 83 14 q 101 14 101 14 q 163 40 138 14 q 190 101 189 65 l 194 101 m 194 871 l 190 871 q 164 933 190 907 q 101 958 138 958 q 93 958 101 958 q 85 958 85 958 l 83 972 l 194 972 l 194 871 m 276 101 l 281 101 q 308 40 282 65 q 369 14 333 14 q 378 14 369 14 q 388 14 386 14 l 388 0 l 276 0 l 276 101 z "},"G":{"ha":1108,"x_min":83,"x_max":1075,"o":"m 985 389 l 985 160 q 899 76 953 118 q 766 8 844 35 q 582 -19 688 -19 q 322 45 435 -18 q 147 222 210 108 q 83 486 83 335 q 147 751 83 638 q 322 928 210 865 q 582 992 435 992 q 719 979 658 992 q 830 945 781 967 q 919 897 879 924 l 947 701 l 935 701 q 866 837 914 782 q 746 921 818 892 q 582 950 674 950 q 376 892 465 950 q 238 729 288 833 q 188 486 188 625 q 238 243 188 347 q 376 81 288 139 q 582 22 465 24 q 699 37 643 22 q 806 78 756 51 q 894 143 856 106 l 896 389 q 825 451 896 451 l 803 451 l 803 465 l 1075 465 l 1075 451 l 1054 451 q 985 389 982 451 z "},"Ğ":{"ha":1108,"x_min":83,"x_max":1075,"o":"m 985 389 l 985 160 q 899 76 953 118 q 766 8 844 35 q 582 -19 688 -19 q 322 45 435 -18 q 147 222 210 108 q 83 486 83 335 q 147 751 83 638 q 322 928 210 865 q 582 992 435 992 q 719 979 658 992 q 830 945 781 967 q 919 897 879 924 l 947 701 l 935 701 q 866 837 914 782 q 746 921 818 892 q 582 950 674 950 q 376 892 465 950 q 238 729 288 833 q 188 486 188 625 q 238 243 188 347 q 376 81 288 139 q 582 22 465 24 q 699 37 643 22 q 806 78 756 51 q 894 143 856 106 l 896 389 q 825 451 896 451 l 803 451 l 803 465 l 1075 465 l 1075 451 l 1054 451 q 985 389 982 451 z "},"Ģ":{"ha":1108,"x_min":83,"x_max":1075,"o":"m 985 389 l 985 160 q 899 76 953 118 q 766 8 844 35 q 582 -19 688 -19 q 322 45 435 -18 q 147 222 210 108 q 83 486 83 335 q 147 751 83 638 q 322 928 210 865 q 582 992 435 992 q 719 979 658 992 q 830 945 781 967 q 919 897 879 924 l 947 701 l 935 701 q 866 837 914 782 q 746 921 818 892 q 582 950 674 950 q 376 892 465 950 q 238 729 288 833 q 188 486 188 625 q 238 243 188 347 q 376 81 288 139 q 582 22 465 24 q 699 37 643 22 q 806 78 756 51 q 894 143 856 106 l 896 389 q 825 451 896 451 l 803 451 l 803 465 l 1075 465 l 1075 451 l 1054 451 q 985 389 982 451 m 540 -128 q 553 -99 540 -108 q 583 -89 567 -89 q 628 -119 615 -89 q 642 -175 642 -149 q 610 -254 642 -222 q 535 -289 578 -286 l 532 -279 q 573 -253 561 -269 q 585 -219 585 -236 q 581 -196 585 -207 q 569 -178 576 -185 q 551 -155 561 -167 q 540 -128 540 -143 z "},"Ġ":{"ha":1108,"x_min":83,"x_max":1075,"o":"m 985 389 l 985 160 q 899 76 953 118 q 766 8 844 35 q 582 -19 688 -19 q 322 45 435 -18 q 147 222 210 108 q 83 486 83 335 q 147 751 83 638 q 322 928 210 865 q 582 992 435 992 q 719 979 658 992 q 830 945 781 967 q 919 897 879 924 l 947 701 l 935 701 q 866 837 914 782 q 746 921 818 892 q 582 950 674 950 q 376 892 465 950 q 238 729 288 833 q 188 486 188 625 q 238 243 188 347 q 376 81 288 139 q 582 22 465 24 q 699 37 643 22 q 806 78 756 51 q 894 143 856 106 l 896 389 q 825 451 896 451 l 803 451 l 803 465 l 1075 465 l 1075 451 l 1054 451 q 985 389 982 451 z "},"H":{"ha":1129,"x_min":83,"x_max":1046,"o":"m 939 972 l 939 0 l 849 0 l 849 972 l 939 972 m 281 972 l 281 0 l 190 0 l 190 972 l 281 972 m 861 501 l 861 460 l 267 460 l 267 501 l 861 501 m 194 101 l 194 0 l 83 0 l 83 14 q 92 14 83 14 q 101 14 101 14 q 163 40 138 14 q 190 101 189 65 l 194 101 m 194 871 l 190 871 q 163 933 189 907 q 101 958 138 958 q 92 958 101 958 q 83 958 83 958 l 83 972 l 194 972 l 194 871 m 276 101 l 281 101 q 308 40 282 65 q 369 14 333 14 q 378 14 369 14 q 388 14 386 14 l 388 0 l 276 0 l 276 101 m 276 871 l 276 972 l 388 972 l 388 958 q 378 958 386 958 q 369 958 369 958 q 308 933 333 958 q 281 871 282 907 l 276 871 m 853 101 l 853 0 l 742 0 l 742 14 q 751 14 743 14 q 760 14 760 14 q 822 40 796 14 q 849 101 849 65 l 853 101 m 853 871 l 849 871 q 822 933 849 907 q 760 958 796 958 q 751 958 760 958 q 742 958 743 958 l 742 972 l 853 972 l 853 871 m 935 101 l 939 101 q 966 40 940 65 q 1028 14 992 14 q 1037 14 1028 14 q 1046 14 1046 14 l 1046 0 l 935 0 l 935 101 m 935 871 l 935 972 l 1046 972 l 1046 958 q 1037 958 1046 958 q 1028 958 1028 958 q 966 933 992 958 q 939 871 940 907 l 935 871 z "},"Ħ":{"ha":1081,"x_min":60,"x_max":1022,"o":"m 1007 733 l 1007 692 l 78 692 l 78 733 l 1007 733 m 915 972 l 915 0 l 825 0 l 825 972 l 915 972 m 257 972 l 257 0 l 167 0 l 167 972 l 257 972 m 838 501 l 838 460 l 242 460 l 242 501 l 838 501 m 169 101 l 169 0 l 60 0 l 60 14 q 68 14 60 14 q 78 14 76 14 q 140 40 114 14 q 167 101 165 65 l 169 101 m 169 871 l 167 871 q 140 933 165 907 q 78 958 114 958 q 68 958 76 958 q 60 958 60 958 l 60 972 l 169 972 l 169 871 m 253 101 l 257 101 q 283 40 257 65 q 346 14 310 14 q 354 14 346 14 q 363 14 363 14 l 363 0 l 253 0 l 253 101 m 253 871 l 253 972 l 363 972 l 363 958 q 354 958 363 958 q 346 958 346 958 q 283 933 310 958 q 257 871 257 907 l 253 871 m 829 101 l 829 0 l 718 0 l 718 14 q 727 14 718 14 q 736 14 736 14 q 798 40 772 14 q 825 101 824 65 l 829 101 m 829 871 l 825 871 q 798 933 824 907 q 736 958 772 958 q 727 958 736 958 q 718 958 718 958 l 718 972 l 829 972 l 829 871 m 911 101 l 915 101 q 942 40 917 65 q 1004 14 968 14 q 1013 14 1004 14 q 1022 14 1021 14 l 1022 0 l 911 0 l 911 101 m 911 871 l 911 972 l 1022 972 l 1022 958 q 1013 958 1021 958 q 1004 958 1004 958 q 942 933 968 958 q 915 871 917 907 l 911 871 z "},"I":{"ha":469,"x_min":83,"x_max":388,"o":"m 281 972 l 281 0 l 190 0 l 190 972 l 281 972 m 194 101 l 194 0 l 83 0 l 83 14 q 92 14 83 14 q 101 14 101 14 q 163 40 138 14 q 190 101 189 65 l 194 101 m 194 871 l 190 871 q 163 933 189 907 q 101 958 138 958 q 92 958 101 958 q 83 958 83 958 l 83 972 l 194 972 l 194 871 m 276 101 l 281 101 q 308 40 282 65 q 369 14 333 14 q 378 14 369 14 q 388 14 386 14 l 388 0 l 276 0 l 276 101 m 276 871 l 276 972 l 388 972 l 388 958 q 378 958 386 958 q 369 958 369 958 q 308 933 333 958 q 281 871 282 907 l 276 871 z "},"Ĳ":{"ha":919,"x_min":83,"x_max":857,"o":"m 281 972 l 281 0 l 190 0 l 190 972 l 281 972 m 194 101 l 194 0 l 83 0 l 83 14 q 92 14 83 14 q 101 14 101 14 q 163 40 138 14 q 190 101 189 65 l 194 101 m 194 871 l 190 871 q 163 933 189 907 q 101 958 138 958 q 92 958 101 958 q 83 958 83 958 l 83 972 l 194 972 l 194 871 m 276 101 l 281 101 q 308 40 282 65 q 369 14 333 14 q 378 14 369 14 q 388 14 386 14 l 388 0 l 276 0 l 276 101 m 276 871 l 276 972 l 388 972 l 388 958 q 378 958 386 958 q 369 958 369 958 q 308 933 333 958 q 281 871 282 907 l 276 871 m 750 972 l 750 0 q 731 -109 750 -58 q 676 -197 711 -160 q 596 -256 642 -235 q 497 -278 550 -278 l 497 -265 q 580 -208 543 -249 q 638 -111 617 -167 q 660 4 660 -56 l 660 972 l 750 972 m 664 871 l 660 871 q 633 933 658 907 q 571 958 607 958 q 562 958 571 958 q 553 958 553 958 l 553 972 l 664 972 l 664 871 m 746 871 l 746 972 l 857 972 l 857 958 q 848 958 857 958 q 839 958 839 958 q 777 933 803 958 q 750 871 751 907 l 746 871 z "},"Í":{"ha":469,"x_min":83,"x_max":460,"o":"m 281 972 l 281 0 l 190 0 l 190 972 l 281 972 m 194 101 l 194 0 l 83 0 l 83 14 q 92 14 83 14 q 101 14 101 14 q 163 40 138 14 q 190 101 189 65 l 194 101 m 194 871 l 190 871 q 163 933 189 907 q 101 958 138 958 q 92 958 101 958 q 83 958 83 958 l 83 972 l 194 972 l 194 871 m 276 101 l 281 101 q 308 40 282 65 q 369 14 333 14 q 378 14 369 14 q 388 14 386 14 l 388 0 l 276 0 l 276 101 m 276 871 l 276 972 l 388 972 l 388 958 q 378 958 386 958 q 369 958 369 958 q 308 933 333 958 q 281 871 282 907 l 276 871 z "},"Î":{"ha":469,"x_min":81,"x_max":400,"o":"m 281 972 l 281 0 l 190 0 l 190 972 l 281 972 m 194 101 l 194 0 l 83 0 l 83 14 q 92 14 83 14 q 101 14 101 14 q 163 40 138 14 q 190 101 189 65 l 194 101 m 194 871 l 190 871 q 163 933 189 907 q 101 958 138 958 q 92 958 101 958 q 83 958 83 958 l 83 972 l 194 972 l 194 871 m 276 101 l 281 101 q 308 40 282 65 q 369 14 333 14 q 378 14 369 14 q 388 14 386 14 l 388 0 l 276 0 l 276 101 m 276 871 l 276 972 l 388 972 l 388 958 q 378 958 386 958 q 369 958 369 958 q 308 933 333 958 q 281 871 282 907 l 276 871 z "},"Ï":{"ha":469,"x_min":50,"x_max":421,"o":"m 281 972 l 281 0 l 190 0 l 190 972 l 281 972 m 194 101 l 194 0 l 83 0 l 83 14 q 92 14 83 14 q 101 14 101 14 q 163 40 138 14 q 190 101 189 65 l 194 101 m 194 871 l 190 871 q 163 933 189 907 q 101 958 138 958 q 92 958 101 958 q 83 958 83 958 l 83 972 l 194 972 l 194 871 m 276 101 l 281 101 q 308 40 282 65 q 369 14 333 14 q 378 14 369 14 q 388 14 386 14 l 388 0 l 276 0 l 276 101 m 276 871 l 276 972 l 388 972 l 388 958 q 378 958 386 958 q 369 958 369 958 q 308 933 333 958 q 281 871 282 907 l 276 871 z "},"İ":{"ha":469,"x_min":83,"x_max":388,"o":"m 281 972 l 281 0 l 190 0 l 190 972 l 281 972 m 194 101 l 194 0 l 83 0 l 83 14 q 92 14 83 14 q 101 14 101 14 q 163 40 138 14 q 190 101 189 65 l 194 101 m 194 871 l 190 871 q 163 933 189 907 q 101 958 138 958 q 92 958 101 958 q 83 958 83 958 l 83 972 l 194 972 l 194 871 m 276 101 l 281 101 q 308 40 282 65 q 369 14 333 14 q 378 14 369 14 q 388 14 386 14 l 388 0 l 276 0 l 276 101 m 276 871 l 276 972 l 388 972 l 388 958 q 378 958 386 958 q 369 958 369 958 q 308 933 333 958 q 281 871 282 907 l 276 871 z "},"Ì":{"ha":469,"x_min":11,"x_max":388,"o":"m 281 972 l 281 0 l 190 0 l 190 972 l 281 972 m 194 101 l 194 0 l 83 0 l 83 14 q 92 14 83 14 q 101 14 101 14 q 163 40 138 14 q 190 101 189 65 l 194 101 m 194 871 l 190 871 q 163 933 189 907 q 101 958 138 958 q 92 958 101 958 q 83 958 83 958 l 83 972 l 194 972 l 194 871 m 276 101 l 281 101 q 308 40 282 65 q 369 14 333 14 q 378 14 369 14 q 388 14 386 14 l 388 0 l 276 0 l 276 101 m 276 871 l 276 972 l 388 972 l 388 958 q 378 958 386 958 q 369 958 369 958 q 308 933 333 958 q 281 871 282 907 l 276 871 m 244 1071 l 235 1061 q 161 1098 199 1079 q 86 1138 124 1117 q 11 1179 49 1158 q 38 1219 22 1201 q 68 1253 53 1238 q 128 1195 99 1225 q 186 1135 157 1165 q 244 1071 215 1104 z "},"Ī":{"ha":469,"x_min":65,"x_max":413,"o":"m 281 972 l 281 0 l 190 0 l 190 972 l 281 972 m 194 101 l 194 0 l 83 0 l 83 14 q 92 14 83 14 q 101 14 101 14 q 163 40 138 14 q 190 101 189 65 l 194 101 m 194 871 l 190 871 q 163 933 189 907 q 101 958 138 958 q 92 958 101 958 q 83 958 83 958 l 83 972 l 194 972 l 194 871 m 276 101 l 281 101 q 308 40 282 65 q 369 14 333 14 q 378 14 369 14 q 388 14 386 14 l 388 0 l 276 0 l 276 101 m 276 871 l 276 972 l 388 972 l 388 958 q 378 958 386 958 q 369 958 369 958 q 308 933 333 958 q 281 871 282 907 l 276 871 z "},"Į":{"ha":469,"x_min":83,"x_max":388,"o":"m 281 972 l 281 0 l 190 0 l 190 972 l 281 972 m 194 101 l 194 0 l 83 0 l 83 14 q 92 14 83 14 q 101 14 101 14 q 163 40 138 14 q 190 101 189 65 l 194 101 m 194 871 l 190 871 q 163 933 189 907 q 101 958 138 958 q 92 958 101 958 q 83 958 83 958 l 83 972 l 194 972 l 194 871 m 276 101 l 281 101 q 308 40 282 65 q 369 14 333 14 q 378 14 369 14 q 388 14 386 14 l 388 0 l 276 0 l 276 101 m 276 871 l 276 972 l 388 972 l 388 958 q 378 958 386 958 q 369 958 369 958 q 308 933 333 958 q 281 871 282 907 l 276 871 z "},"J":{"ha":450,"x_min":28,"x_max":388,"o":"m 281 972 l 281 0 q 261 -109 281 -58 q 207 -197 242 -160 q 126 -256 172 -235 q 28 -278 81 -278 l 28 -265 q 110 -208 74 -249 q 169 -111 147 -167 q 190 4 190 -56 l 190 972 l 281 972 m 194 871 l 190 871 q 163 933 189 907 q 101 958 138 958 q 92 958 101 958 q 83 958 83 958 l 83 972 l 194 972 l 194 871 m 276 871 l 276 972 l 388 972 l 388 958 q 378 958 388 958 q 369 958 369 958 q 308 933 333 958 q 281 871 282 907 l 276 871 z "},"K":{"ha":913,"x_min":83,"x_max":928,"o":"m 401 535 l 796 71 q 855 29 825 43 q 928 14 885 15 l 928 0 l 868 0 q 828 2 854 0 q 773 12 803 4 q 713 35 743 19 q 660 79 683 51 q 635 108 660 79 q 573 183 611 138 q 492 281 535 229 q 412 379 450 333 q 349 454 374 425 q 325 483 325 483 l 401 535 m 803 963 l 388 483 l 325 483 l 707 963 l 803 963 m 899 972 l 899 960 l 893 960 q 808 942 847 960 q 740 892 768 924 l 653 894 q 659 939 671 918 q 619 960 647 960 l 606 960 l 606 972 l 893 972 l 899 972 m 281 972 l 281 0 l 190 0 l 190 972 l 281 972 m 194 101 l 194 0 l 83 0 l 83 14 q 92 14 83 14 q 101 14 101 14 q 163 40 138 14 q 190 101 189 65 l 194 101 m 194 871 l 190 871 q 163 933 189 907 q 101 958 138 958 q 92 958 101 958 q 83 958 83 958 l 83 972 l 194 972 l 194 871 m 276 101 l 281 101 q 308 40 282 65 q 369 14 333 14 q 378 14 369 14 q 388 14 386 14 l 388 0 l 276 0 l 276 101 m 276 871 l 276 972 l 388 972 l 388 958 q 378 958 386 958 q 369 958 369 958 q 308 933 333 958 q 281 871 282 907 l 276 871 z "},"Ķ":{"ha":913,"x_min":83,"x_max":928,"o":"m 401 535 l 796 71 q 855 29 825 43 q 928 14 885 15 l 928 0 l 868 0 q 828 2 854 0 q 773 12 803 4 q 713 35 743 19 q 660 79 683 51 q 635 108 660 79 q 573 183 611 138 q 492 281 535 229 q 412 379 450 333 q 349 454 374 425 q 325 483 325 483 l 401 535 m 803 963 l 388 483 l 325 483 l 707 963 l 803 963 m 899 972 l 899 960 l 893 960 q 808 942 847 960 q 740 892 768 924 l 653 894 q 659 939 671 918 q 619 960 647 960 l 606 960 l 606 972 l 893 972 l 899 972 m 281 972 l 281 0 l 190 0 l 190 972 l 281 972 m 194 101 l 194 0 l 83 0 l 83 14 q 92 14 83 14 q 101 14 101 14 q 163 40 138 14 q 190 101 189 65 l 194 101 m 194 871 l 190 871 q 163 933 189 907 q 101 958 138 958 q 92 958 101 958 q 83 958 83 958 l 83 972 l 194 972 l 194 871 m 276 101 l 281 101 q 308 40 282 65 q 369 14 333 14 q 378 14 369 14 q 388 14 386 14 l 388 0 l 276 0 l 276 101 m 276 871 l 276 972 l 388 972 l 388 958 q 378 958 386 958 q 369 958 369 958 q 308 933 333 958 q 281 871 282 907 l 276 871 m 494 -128 q 508 -99 494 -108 q 538 -89 521 -89 q 583 -119 569 -89 q 596 -175 596 -149 q 564 -254 596 -222 q 489 -289 532 -286 l 486 -279 q 527 -253 515 -269 q 539 -219 539 -236 q 535 -196 539 -207 q 524 -178 531 -185 q 505 -155 515 -167 q 494 -128 494 -143 z "},"L":{"ha":781,"x_min":83,"x_max":740,"o":"m 281 972 l 281 0 l 190 0 l 190 972 l 281 972 m 656 43 l 656 0 l 276 0 l 276 43 l 656 43 m 740 225 l 660 0 l 429 0 l 479 43 q 599 66 553 43 q 675 131 646 89 q 726 225 704 172 l 740 225 m 194 101 l 194 0 l 83 0 l 83 14 q 92 14 83 14 q 101 14 101 14 q 163 40 138 14 q 190 101 189 65 l 194 101 m 194 871 l 190 871 q 163 933 189 907 q 101 958 138 958 q 92 958 101 958 q 83 958 83 958 l 83 972 l 194 972 l 194 871 m 276 871 l 276 972 l 388 972 l 388 958 q 378 958 386 958 q 369 958 369 958 q 308 933 333 958 q 281 871 282 907 l 276 871 z "},"Ĺ":{"ha":781,"x_min":83,"x_max":740,"o":"m 281 972 l 281 0 l 190 0 l 190 972 l 281 972 m 656 43 l 656 0 l 276 0 l 276 43 l 656 43 m 740 225 l 660 0 l 429 0 l 479 43 q 599 66 553 43 q 675 131 646 89 q 726 225 704 172 l 740 225 m 194 101 l 194 0 l 83 0 l 83 14 q 92 14 83 14 q 101 14 101 14 q 163 40 138 14 q 190 101 189 65 l 194 101 m 194 871 l 190 871 q 163 933 189 907 q 101 958 138 958 q 92 958 101 958 q 83 958 83 958 l 83 972 l 194 972 l 194 871 m 276 871 l 276 972 l 388 972 l 388 958 q 378 958 386 958 q 369 958 369 958 q 308 933 333 958 q 281 871 282 907 l 276 871 z "},"Ľ":{"ha":781,"x_min":83,"x_max":740,"o":"m 281 972 l 281 0 l 190 0 l 190 972 l 281 972 m 656 43 l 656 0 l 276 0 l 276 43 l 656 43 m 740 225 l 660 0 l 429 0 l 479 43 q 599 66 553 43 q 675 131 646 89 q 726 225 704 172 l 740 225 m 194 101 l 194 0 l 83 0 l 83 14 q 92 14 83 14 q 101 14 101 14 q 163 40 138 14 q 190 101 189 65 l 194 101 m 194 871 l 190 871 q 163 933 189 907 q 101 958 138 958 q 92 958 101 958 q 83 958 83 958 l 83 972 l 194 972 l 194 871 m 276 871 l 276 972 l 388 972 l 388 958 q 378 958 386 958 q 369 958 369 958 q 308 933 333 958 q 281 871 282 907 l 276 871 m 514 956 q 540 978 522 972 q 575 976 557 983 q 601 946 593 968 q 613 884 615 914 q 594 831 610 854 q 556 794 579 808 q 506 781 533 781 l 503 789 q 547 820 536 800 q 553 860 557 840 q 540 892 550 881 q 517 919 529 904 q 514 956 504 935 z "},"Ļ":{"ha":781,"x_min":83,"x_max":740,"o":"m 281 972 l 281 0 l 190 0 l 190 972 l 281 972 m 656 43 l 656 0 l 276 0 l 276 43 l 656 43 m 740 225 l 660 0 l 429 0 l 479 43 q 599 66 553 43 q 675 131 646 89 q 726 225 704 172 l 740 225 m 194 101 l 194 0 l 83 0 l 83 14 q 92 14 83 14 q 101 14 101 14 q 163 40 138 14 q 190 101 189 65 l 194 101 m 194 871 l 190 871 q 163 933 189 907 q 101 958 138 958 q 92 958 101 958 q 83 958 83 958 l 83 972 l 194 972 l 194 871 m 276 871 l 276 972 l 388 972 l 388 958 q 378 958 386 958 q 369 958 369 958 q 308 933 333 958 q 281 871 282 907 l 276 871 m 385 -128 q 398 -99 385 -108 q 428 -89 411 -89 q 473 -119 460 -89 q 486 -175 486 -149 q 454 -254 486 -222 q 379 -289 422 -286 l 376 -279 q 417 -253 406 -269 q 429 -219 429 -236 q 425 -196 429 -207 q 414 -178 421 -185 q 395 -155 406 -167 q 385 -128 385 -143 z "},"Ŀ":{"ha":781,"x_min":83,"x_max":740,"o":"m 281 972 l 281 0 l 190 0 l 190 972 l 281 972 m 194 101 l 194 0 l 83 0 l 83 14 q 92 14 83 14 q 101 14 101 14 q 163 40 138 14 q 190 101 189 65 l 194 101 m 656 43 l 656 0 l 276 0 l 276 43 l 656 43 m 740 225 l 660 0 l 429 0 l 479 43 q 599 66 553 43 q 675 131 646 89 q 726 225 704 172 l 740 225 m 194 972 l 194 871 l 190 871 q 163 933 189 907 q 101 958 138 958 q 92 958 101 958 q 83 958 83 958 l 83 972 l 194 972 m 388 972 l 388 958 q 378 958 386 958 q 369 958 369 958 q 308 933 333 958 q 281 871 282 907 l 276 871 l 276 972 l 388 972 m 464 560 q 420 578 439 560 q 401 622 401 596 q 420 667 401 649 q 464 685 439 685 q 508 667 490 685 q 526 622 526 649 q 508 578 526 596 q 464 560 490 560 z "},"Ł":{"ha":781,"x_min":25,"x_max":740,"o":"m 281 972 l 281 0 l 190 0 l 190 972 l 281 972 m 194 972 l 194 871 l 190 871 q 163 933 189 907 q 101 958 138 958 q 92 958 101 958 q 83 958 83 958 l 83 972 l 194 972 m 388 972 l 388 958 q 378 958 386 958 q 369 958 369 958 q 308 933 333 958 q 281 871 282 907 l 276 871 l 276 972 l 388 972 m 194 101 l 194 0 l 83 0 l 83 14 q 92 14 83 14 q 101 14 101 14 q 163 40 138 14 q 190 101 189 65 l 194 101 m 656 43 l 656 0 l 276 0 l 276 43 l 656 43 m 740 225 l 660 0 l 429 0 l 479 43 q 599 66 553 43 q 675 131 646 89 q 726 225 704 172 l 740 225 m 25 381 l 453 628 l 474 592 l 46 344 l 25 381 z "},"M":{"ha":1293,"x_min":21,"x_max":1272,"o":"m 1029 992 l 1040 899 l 692 122 q 681 99 692 122 q 660 42 671 75 q 644 -19 649 10 l 631 -19 l 611 68 l 1029 992 m 175 101 l 175 0 l 21 0 l 21 14 q 33 14 22 14 q 43 14 43 14 q 110 37 81 14 q 144 101 139 60 l 175 101 m 215 79 q 215 76 215 78 q 215 72 215 75 q 231 31 215 50 q 269 13 247 13 l 290 13 l 290 0 l 206 0 l 206 79 l 215 79 m 249 992 l 263 992 l 290 910 l 208 0 l 133 0 l 249 992 m 263 992 l 663 126 l 631 -19 l 236 836 l 263 992 m 1042 992 l 1161 0 l 1053 0 l 976 842 l 1029 992 l 1042 992 m 1119 101 l 1149 101 q 1185 37 1156 60 q 1250 14 1214 14 q 1261 14 1250 14 q 1272 14 1272 14 l 1272 0 l 1119 0 l 1119 101 m 1046 79 l 1056 79 l 1056 0 l 971 0 l 971 13 l 992 13 q 1031 31 1015 13 q 1046 72 1046 50 q 1046 76 1046 75 q 1046 79 1046 78 z "},"N":{"ha":1168,"x_min":63,"x_max":1106,"o":"m 175 993 l 982 132 l 994 -19 l 188 840 l 175 993 m 178 99 l 178 0 l 63 0 l 63 14 q 75 14 63 14 q 89 14 88 14 q 149 39 124 14 q 174 99 174 64 l 178 99 m 238 99 q 263 39 238 64 q 322 14 288 14 q 336 14 324 14 q 349 14 349 14 l 349 0 l 233 0 l 233 99 l 238 99 m 175 993 l 236 915 l 238 0 l 174 0 l 174 819 q 167 942 174 890 q 161 993 161 993 l 175 993 m 994 972 l 994 158 q 997 73 994 114 q 1003 6 1000 32 q 1007 -19 1007 -19 l 994 -19 l 932 54 l 932 972 l 994 972 m 1106 972 l 1106 958 q 1093 958 1106 958 q 1081 958 1081 958 q 1021 934 1046 958 q 994 874 996 910 l 990 874 l 990 972 l 1106 972 m 819 972 l 935 972 l 935 874 l 932 874 q 906 934 931 910 q 846 958 882 958 q 833 958 846 958 q 819 958 821 958 l 819 972 z "},"Ń":{"ha":1168,"x_min":63,"x_max":1106,"o":"m 175 993 l 982 132 l 994 -19 l 188 840 l 175 993 m 178 99 l 178 0 l 63 0 l 63 14 q 75 14 63 14 q 89 14 88 14 q 149 39 124 14 q 174 99 174 64 l 178 99 m 238 99 q 263 39 238 64 q 322 14 288 14 q 336 14 324 14 q 349 14 349 14 l 349 0 l 233 0 l 233 99 l 238 99 m 175 993 l 236 915 l 238 0 l 174 0 l 174 819 q 167 942 174 890 q 161 993 161 993 l 175 993 m 994 972 l 994 158 q 997 73 994 114 q 1003 6 1000 32 q 1007 -19 1007 -19 l 994 -19 l 932 54 l 932 972 l 994 972 m 1106 972 l 1106 958 q 1093 958 1106 958 q 1081 958 1081 958 q 1021 934 1046 958 q 994 874 996 910 l 990 874 l 990 972 l 1106 972 m 819 972 l 935 972 l 935 874 l 932 874 q 906 934 931 910 q 846 958 882 958 q 833 958 846 958 q 819 958 821 958 l 819 972 z "},"Ň":{"ha":1168,"x_min":63,"x_max":1106,"o":"m 175 993 l 982 132 l 994 -19 l 188 840 l 175 993 m 178 99 l 178 0 l 63 0 l 63 14 q 75 14 63 14 q 89 14 88 14 q 149 39 124 14 q 174 99 174 64 l 178 99 m 238 99 q 263 39 238 64 q 322 14 288 14 q 336 14 324 14 q 349 14 349 14 l 349 0 l 233 0 l 233 99 l 238 99 m 175 993 l 236 915 l 238 0 l 174 0 l 174 819 q 167 942 174 890 q 161 993 161 993 l 175 993 m 994 972 l 994 158 q 997 73 994 114 q 1003 6 1000 32 q 1007 -19 1007 -19 l 994 -19 l 932 54 l 932 972 l 994 972 m 1106 972 l 1106 958 q 1093 958 1106 958 q 1081 958 1081 958 q 1021 934 1046 958 q 994 874 996 910 l 990 874 l 990 972 l 1106 972 m 819 972 l 935 972 l 935 874 l 932 874 q 906 934 931 910 q 846 958 882 958 q 833 958 846 958 q 819 958 821 958 l 819 972 z "},"Ņ":{"ha":1168,"x_min":63,"x_max":1106,"o":"m 175 993 l 982 132 l 994 -19 l 188 840 l 175 993 m 178 99 l 178 0 l 63 0 l 63 14 q 75 14 63 14 q 89 14 88 14 q 149 39 124 14 q 174 99 174 64 l 178 99 m 238 99 q 263 39 238 64 q 322 14 288 14 q 336 14 324 14 q 349 14 349 14 l 349 0 l 233 0 l 233 99 l 238 99 m 175 993 l 236 915 l 238 0 l 174 0 l 174 819 q 167 942 174 890 q 161 993 161 993 l 175 993 m 994 972 l 994 158 q 997 73 994 114 q 1003 6 1000 32 q 1007 -19 1007 -19 l 994 -19 l 932 54 l 932 972 l 994 972 m 1106 972 l 1106 958 q 1093 958 1106 958 q 1081 958 1081 958 q 1021 934 1046 958 q 994 874 996 910 l 990 874 l 990 972 l 1106 972 m 819 972 l 935 972 l 935 874 l 932 874 q 906 934 931 910 q 846 958 882 958 q 833 958 846 958 q 819 958 821 958 l 819 972 m 550 -128 q 563 -99 550 -108 q 593 -89 576 -89 q 638 -119 625 -89 q 651 -175 651 -149 q 619 -254 651 -222 q 544 -289 588 -286 l 542 -279 q 583 -253 571 -269 q 594 -219 594 -236 q 590 -196 594 -207 q 579 -178 586 -185 q 560 -155 571 -167 q 550 -128 550 -143 z "},"Ŋ":{"ha":1138,"x_min":63,"x_max":1075,"o":"m 160 993 l 221 915 l 222 0 l 158 0 l 158 819 q 152 942 158 890 q 146 993 146 993 l 160 993 m 163 90 l 163 0 l 63 0 l 63 18 q 74 18 63 18 q 85 18 85 18 q 137 39 115 18 q 158 90 158 60 l 163 90 m 222 90 q 244 39 222 60 q 296 18 265 18 q 307 18 296 18 q 318 18 318 18 l 318 0 l 218 0 l 218 90 l 222 90 m 976 -18 l 172 840 l 160 993 l 967 133 l 976 -18 m 979 -44 q 965 -142 979 -100 q 925 -211 950 -183 q 868 -256 900 -239 q 801 -279 836 -272 l 794 -268 q 838 -240 817 -258 q 878 -195 860 -222 q 906 -130 896 -168 q 917 -42 917 -92 l 917 972 l 979 972 l 979 -44 m 819 972 l 919 972 l 919 882 l 915 882 q 894 933 915 913 q 842 954 872 954 q 831 954 842 954 q 819 954 819 954 l 819 972 m 1075 972 l 1075 954 q 1064 954 1075 954 q 1053 954 1053 954 q 1001 933 1022 954 q 979 882 979 913 l 975 882 l 975 972 l 1075 972 z "},"Ñ":{"ha":1168,"x_min":63,"x_max":1106,"o":"m 175 993 l 982 132 l 994 -19 l 188 840 l 175 993 m 178 99 l 178 0 l 63 0 l 63 14 q 75 14 63 14 q 89 14 88 14 q 149 39 124 14 q 174 99 174 64 l 178 99 m 238 99 q 263 39 238 64 q 322 14 288 14 q 336 14 324 14 q 349 14 349 14 l 349 0 l 233 0 l 233 99 l 238 99 m 175 993 l 236 915 l 238 0 l 174 0 l 174 819 q 167 942 174 890 q 161 993 161 993 l 175 993 m 994 972 l 994 158 q 997 73 994 114 q 1003 6 1000 32 q 1007 -19 1007 -19 l 994 -19 l 932 54 l 932 972 l 994 972 m 1106 972 l 1106 958 q 1093 958 1106 958 q 1081 958 1081 958 q 1021 934 1046 958 q 994 874 996 910 l 990 874 l 990 972 l 1106 972 m 819 972 l 935 972 l 935 874 l 932 874 q 906 934 931 910 q 846 958 882 958 q 833 958 846 958 q 819 958 821 958 l 819 972 z "},"O":{"ha":1164,"x_min":97,"x_max":1096,"o":"m 596 992 q 857 928 744 992 q 1033 751 969 865 q 1096 486 1096 638 q 1033 221 1096 335 q 857 44 969 107 q 596 -19 744 -19 q 336 44 449 -19 q 160 221 224 107 q 97 486 97 335 q 160 751 97 638 q 336 928 224 865 q 596 992 449 992 m 596 22 q 802 81 714 22 q 940 243 890 139 q 989 486 989 347 q 940 729 989 625 q 802 892 890 833 q 596 950 714 950 q 391 892 479 950 q 253 729 303 833 q 204 486 204 625 q 253 243 204 347 q 391 81 303 139 q 596 22 479 22 z "},"Ó":{"ha":1164,"x_min":97,"x_max":1096,"o":"m 596 992 q 857 928 744 992 q 1033 751 969 865 q 1096 486 1096 638 q 1033 221 1096 335 q 857 44 969 107 q 596 -19 744 -19 q 336 44 449 -19 q 160 221 224 107 q 97 486 97 335 q 160 751 97 638 q 336 928 224 865 q 596 992 449 992 m 596 22 q 802 81 714 22 q 940 243 890 139 q 989 486 989 347 q 940 729 989 625 q 802 892 890 833 q 596 950 714 950 q 391 892 479 950 q 253 729 303 833 q 204 486 204 625 q 253 243 204 347 q 391 81 303 139 q 596 22 479 22 z "},"Ô":{"ha":1164,"x_min":97,"x_max":1096,"o":"m 596 992 q 857 928 744 992 q 1033 751 969 865 q 1096 486 1096 638 q 1033 221 1096 335 q 857 44 969 107 q 596 -19 744 -19 q 336 44 449 -19 q 160 221 224 107 q 97 486 97 335 q 160 751 97 638 q 336 928 224 865 q 596 992 449 992 m 596 22 q 802 81 714 22 q 940 243 890 139 q 989 486 989 347 q 940 729 989 625 q 802 892 890 833 q 596 950 714 950 q 391 892 479 950 q 253 729 303 833 q 204 486 204 625 q 253 243 204 347 q 391 81 303 139 q 596 22 479 22 z "},"Ö":{"ha":1164,"x_min":97,"x_max":1096,"o":"m 596 992 q 857 928 744 992 q 1033 751 969 865 q 1096 486 1096 638 q 1033 221 1096 335 q 857 44 969 107 q 596 -19 744 -19 q 336 44 449 -19 q 160 221 224 107 q 97 486 97 335 q 160 751 97 638 q 336 928 224 865 q 596 992 449 992 m 596 22 q 802 81 714 22 q 940 243 890 139 q 989 486 989 347 q 940 729 989 625 q 802 892 890 833 q 596 950 714 950 q 391 892 479 950 q 253 729 303 833 q 204 486 204 625 q 253 243 204 347 q 391 81 303 139 q 596 22 479 22 z "},"Ò":{"ha":1164,"x_min":97,"x_max":1096,"o":"m 596 992 q 857 928 744 992 q 1033 751 969 865 q 1096 486 1096 638 q 1033 221 1096 335 q 857 44 969 107 q 596 -19 744 -19 q 336 44 449 -19 q 160 221 224 107 q 97 486 97 335 q 160 751 97 638 q 336 928 224 865 q 596 992 449 992 m 596 22 q 802 81 714 22 q 940 243 890 139 q 989 486 989 347 q 940 729 989 625 q 802 892 890 833 q 596 950 714 950 q 391 892 479 950 q 253 729 303 833 q 204 486 204 625 q 253 243 204 347 q 391 81 303 139 q 596 22 479 22 m 606 1071 l 596 1061 q 522 1098 558 1079 q 447 1138 485 1117 q 372 1179 410 1158 q 398 1219 383 1201 q 429 1253 413 1238 q 488 1195 458 1225 q 547 1135 518 1165 q 606 1071 576 1104 z "},"Ő":{"ha":1164,"x_min":97,"x_max":1096,"o":"m 596 992 q 857 928 744 992 q 1033 751 969 865 q 1096 486 1096 638 q 1033 221 1096 335 q 857 44 969 107 q 596 -19 744 -19 q 336 44 449 -19 q 160 221 224 107 q 97 486 97 335 q 160 751 97 638 q 336 928 224 865 q 596 992 449 992 m 596 22 q 802 81 714 22 q 940 243 890 139 q 989 486 989 347 q 940 729 989 625 q 802 892 890 833 q 596 950 714 950 q 391 892 479 950 q 253 729 303 833 q 204 486 204 625 q 253 243 204 347 q 391 81 303 139 q 596 22 479 22 z "},"Ō":{"ha":1164,"x_min":97,"x_max":1096,"o":"m 596 992 q 857 928 744 992 q 1033 751 969 865 q 1096 486 1096 638 q 1033 221 1096 335 q 857 44 969 107 q 596 -19 744 -19 q 336 44 449 -19 q 160 221 224 107 q 97 486 97 335 q 160 751 97 638 q 336 928 224 865 q 596 992 449 992 m 596 22 q 802 81 714 22 q 940 243 890 139 q 989 486 989 347 q 940 729 989 625 q 802 892 890 833 q 596 950 714 950 q 391 892 479 950 q 253 729 303 833 q 204 486 204 625 q 253 243 204 347 q 391 81 303 139 q 596 22 479 22 z "},"Ø":{"ha":1150,"x_min":97,"x_max":1082,"o":"m 589 992 q 848 928 738 992 q 1020 751 958 865 q 1082 486 1082 638 q 1020 221 1082 335 q 848 44 958 107 q 589 -19 738 -19 q 331 44 442 -19 q 159 221 221 107 q 97 486 97 335 q 159 751 97 638 q 331 928 221 865 q 589 992 442 992 m 589 22 q 795 81 707 22 q 933 243 883 139 q 982 486 982 347 q 933 729 982 625 q 795 892 883 833 q 589 950 707 950 q 384 892 472 950 q 247 729 296 833 q 197 486 197 625 q 247 243 197 347 q 384 81 296 139 q 589 22 472 22 m 985 1003 l 1021 972 l 185 -32 l 150 -1 l 985 1003 z "},"Õ":{"ha":1164,"x_min":97,"x_max":1096,"o":"m 596 992 q 857 928 744 992 q 1033 751 969 865 q 1096 486 1096 638 q 1033 221 1096 335 q 857 44 969 107 q 596 -19 744 -19 q 336 44 449 -19 q 160 221 224 107 q 97 486 97 335 q 160 751 97 638 q 336 928 224 865 q 596 992 449 992 m 596 22 q 802 81 714 22 q 940 243 890 139 q 989 486 989 347 q 940 729 989 625 q 802 892 890 833 q 596 950 714 950 q 391 892 479 950 q 253 729 303 833 q 204 486 204 625 q 253 243 204 347 q 391 81 303 139 q 596 22 479 22 z "},"Œ":{"ha":1350,"x_min":97,"x_max":1308,"o":"m 589 992 q 665 988 621 992 q 746 979 710 985 q 788 974 767 976 q 840 972 808 972 l 842 0 q 812 0 828 0 q 767 -3 796 0 q 720 -7 753 -3 q 651 -15 688 -11 q 589 -19 615 -19 q 331 44 442 -19 q 159 221 221 107 q 97 486 97 335 q 159 751 97 638 q 331 928 221 865 q 589 992 442 992 m 589 22 q 665 29 626 22 q 731 51 704 36 q 758 89 758 67 l 758 883 q 731 924 758 910 q 665 944 704 938 q 589 950 626 950 q 384 892 472 950 q 247 729 296 833 q 197 486 197 625 q 247 243 197 347 q 384 81 296 139 q 589 22 472 22 m 843 972 l 843 0 l 758 7 l 758 972 l 843 972 m 1224 43 l 1224 0 l 842 0 l 832 43 l 1224 43 m 1165 500 l 1165 458 l 839 458 l 839 500 l 1165 500 m 1224 972 l 1224 929 l 838 929 l 838 972 l 1224 972 m 1308 225 l 1228 0 l 999 0 l 1049 43 q 1169 66 1122 43 q 1244 131 1215 89 q 1294 225 1274 172 l 1308 225 m 1165 461 l 1165 369 l 1151 369 l 1151 390 q 1131 438 1151 418 q 1083 458 1111 458 l 1083 461 l 1165 461 m 1165 589 l 1165 497 l 1083 497 l 1083 500 q 1131 522 1111 501 q 1151 569 1151 542 l 1151 589 l 1165 589 m 1224 933 l 1224 822 l 1207 822 l 1207 847 q 1183 905 1207 881 q 1126 931 1160 929 l 1126 933 l 1224 933 m 1224 997 l 1224 957 l 1054 972 q 1119 976 1085 972 q 1182 986 1153 981 q 1224 997 1211 992 z "},"P":{"ha":801,"x_min":83,"x_max":732,"o":"m 263 972 l 446 972 q 599 940 535 972 q 697 848 663 908 q 732 704 732 788 q 707 590 732 640 q 640 504 682 539 q 546 452 599 469 q 437 439 493 435 q 328 471 381 443 l 328 485 q 351 481 328 485 q 412 480 375 478 q 490 495 449 482 q 566 542 531 508 q 619 635 601 575 q 626 673 624 650 q 628 718 629 696 q 578 872 626 814 q 440 931 529 931 l 276 931 q 273 941 276 931 q 266 962 269 951 q 263 972 263 972 m 281 972 l 281 0 l 190 0 l 190 972 l 281 972 m 194 101 l 194 0 l 83 0 l 83 14 q 92 14 83 14 q 101 14 101 14 q 163 40 138 14 q 190 101 189 65 l 194 101 m 194 871 l 190 871 q 164 933 190 907 q 101 958 138 958 q 93 958 101 958 q 85 958 85 958 l 83 972 l 194 972 l 194 871 m 276 101 l 281 101 q 308 40 282 65 q 369 14 333 14 q 378 14 369 14 q 388 14 388 14 l 388 0 l 276 0 l 276 101 z "},"Þ":{"ha":769,"x_min":60,"x_max":701,"o":"m 257 972 l 257 0 l 167 0 l 167 972 l 257 972 m 169 101 l 169 0 l 60 0 l 60 14 q 68 14 60 14 q 78 14 76 14 q 140 40 114 14 q 167 101 165 65 l 169 101 m 169 871 l 167 871 q 140 933 165 907 q 78 958 114 958 q 68 958 76 958 q 60 958 60 958 l 60 972 l 169 972 l 169 871 m 253 101 l 257 101 q 283 40 257 65 q 346 14 310 14 q 354 14 346 14 q 363 14 363 14 l 363 0 l 253 0 l 253 101 m 253 871 l 253 972 l 363 972 l 363 958 q 354 958 363 958 q 346 958 346 958 q 283 933 310 958 q 257 871 257 907 l 253 871 m 239 761 l 422 761 q 576 728 514 761 q 670 635 639 696 q 701 493 701 575 q 677 378 701 429 q 612 293 653 328 q 519 241 571 258 q 412 228 467 224 q 304 260 357 232 l 304 274 q 328 270 304 274 q 388 269 351 267 q 465 284 425 271 q 541 331 506 297 q 594 424 576 364 q 602 462 600 439 q 604 507 604 485 q 553 661 601 603 q 417 719 506 719 l 253 719 q 249 730 253 719 q 242 751 246 740 q 239 761 239 761 z "},"Q":{"ha":1163,"x_min":83,"x_max":1844,"o":"m 567 -19 l 581 17 q 647 7 606 17 q 742 -20 688 -3 q 862 -62 796 -37 q 1003 -118 928 -87 q 1161 -185 1078 -149 q 1330 -234 1239 -218 q 1514 -244 1421 -250 q 1691 -208 1607 -239 q 1839 -117 1775 -176 l 1844 -124 q 1798 -188 1835 -150 q 1700 -262 1761 -226 q 1556 -317 1639 -297 q 1372 -329 1474 -337 q 1150 -269 1269 -321 q 1014 -204 1086 -242 q 865 -129 942 -167 q 713 -62 789 -92 q 567 -19 638 -32 m 582 992 q 841 928 729 992 q 1016 751 953 865 q 1079 486 1079 638 q 1016 221 1079 335 q 840 44 953 107 q 582 -19 728 -19 q 322 44 435 -19 q 147 221 210 107 q 83 486 83 335 q 147 751 83 638 q 322 928 210 865 q 582 992 435 992 m 582 22 q 788 81 700 22 q 926 243 876 139 q 975 486 975 347 q 926 729 975 625 q 788 892 876 833 q 582 950 700 950 q 375 892 464 950 q 237 729 286 833 q 188 486 188 625 q 238 243 188 347 q 376 81 288 139 q 582 22 465 22 z "},"R":{"ha":940,"x_min":83,"x_max":956,"o":"m 263 972 l 458 972 q 572 954 521 972 q 657 902 622 936 q 710 820 692 868 q 729 711 729 772 q 698 583 729 644 q 613 484 667 522 q 493 446 560 446 q 544 406 517 436 q 593 349 572 376 q 612 322 593 349 q 659 256 631 294 q 717 179 688 217 q 767 119 746 142 q 822 65 794 89 q 883 28 850 42 q 956 14 915 14 l 956 0 l 879 0 q 769 19 815 0 q 690 67 722 39 q 636 122 658 96 q 613 154 632 128 q 569 217 594 181 q 518 290 543 254 q 475 352 493 326 q 454 382 457 378 q 396 446 428 417 q 326 475 364 475 l 326 489 q 348 488 326 489 q 400 489 369 488 q 479 500 436 490 q 560 540 522 510 q 617 633 597 571 q 624 672 621 649 q 625 717 626 694 q 577 867 624 811 q 453 928 531 924 q 373 930 414 931 q 304 929 332 929 q 276 929 276 929 q 273 941 276 931 q 266 962 269 951 q 263 972 263 972 m 281 972 l 281 0 l 190 0 l 190 972 l 281 972 m 194 101 l 194 0 l 83 0 l 83 14 q 92 14 83 14 q 101 14 101 14 q 163 40 138 14 q 190 101 189 65 l 194 101 m 194 871 l 190 871 q 163 933 189 907 q 101 958 138 958 q 92 958 101 958 q 83 958 83 958 l 83 972 l 194 972 l 194 871 m 276 101 l 281 101 q 307 40 281 65 q 369 14 333 14 q 378 14 369 14 q 386 14 386 14 l 386 0 l 276 0 l 276 101 z "},"Ŕ":{"ha":940,"x_min":83,"x_max":956,"o":"m 263 972 l 458 972 q 572 954 521 972 q 657 902 622 936 q 710 820 692 868 q 729 711 729 772 q 698 583 729 644 q 613 484 667 522 q 493 446 560 446 q 544 406 517 436 q 593 349 572 376 q 612 322 593 349 q 659 256 631 294 q 717 179 688 217 q 767 119 746 142 q 822 65 794 89 q 883 28 850 42 q 956 14 915 14 l 956 0 l 879 0 q 769 19 815 0 q 690 67 722 39 q 636 122 658 96 q 613 154 632 128 q 569 217 594 181 q 518 290 543 254 q 475 352 493 326 q 454 382 457 378 q 396 446 428 417 q 326 475 364 475 l 326 489 q 348 488 326 489 q 400 489 369 488 q 479 500 436 490 q 560 540 522 510 q 617 633 597 571 q 624 672 621 649 q 625 717 626 694 q 577 867 624 811 q 453 928 531 924 q 373 930 414 931 q 304 929 332 929 q 276 929 276 929 q 273 941 276 931 q 266 962 269 951 q 263 972 263 972 m 281 972 l 281 0 l 190 0 l 190 972 l 281 972 m 194 101 l 194 0 l 83 0 l 83 14 q 92 14 83 14 q 101 14 101 14 q 163 40 138 14 q 190 101 189 65 l 194 101 m 194 871 l 190 871 q 163 933 189 907 q 101 958 138 958 q 92 958 101 958 q 83 958 83 958 l 83 972 l 194 972 l 194 871 m 276 101 l 281 101 q 307 40 281 65 q 369 14 333 14 q 378 14 369 14 q 386 14 386 14 l 386 0 l 276 0 l 276 101 z "},"Ř":{"ha":940,"x_min":83,"x_max":956,"o":"m 263 972 l 458 972 q 572 954 521 972 q 657 902 622 936 q 710 820 692 868 q 729 711 729 772 q 698 583 729 644 q 613 484 667 522 q 493 446 560 446 q 544 406 517 436 q 593 349 572 376 q 612 322 593 349 q 659 256 631 294 q 717 179 688 217 q 767 119 746 142 q 822 65 794 89 q 883 28 850 42 q 956 14 915 14 l 956 0 l 879 0 q 769 19 815 0 q 690 67 722 39 q 636 122 658 96 q 613 154 632 128 q 569 217 594 181 q 518 290 543 254 q 475 352 493 326 q 454 382 457 378 q 396 446 428 417 q 326 475 364 475 l 326 489 q 348 488 326 489 q 400 489 369 488 q 479 500 436 490 q 560 540 522 510 q 617 633 597 571 q 624 672 621 649 q 625 717 626 694 q 577 867 624 811 q 453 928 531 924 q 373 930 414 931 q 304 929 332 929 q 276 929 276 929 q 273 941 276 931 q 266 962 269 951 q 263 972 263 972 m 281 972 l 281 0 l 190 0 l 190 972 l 281 972 m 194 101 l 194 0 l 83 0 l 83 14 q 92 14 83 14 q 101 14 101 14 q 163 40 138 14 q 190 101 189 65 l 194 101 m 194 871 l 190 871 q 163 933 189 907 q 101 958 138 958 q 92 958 101 958 q 83 958 83 958 l 83 972 l 194 972 l 194 871 m 276 101 l 281 101 q 307 40 281 65 q 369 14 333 14 q 378 14 369 14 q 386 14 386 14 l 386 0 l 276 0 l 276 101 z "},"Ŗ":{"ha":940,"x_min":83,"x_max":956,"o":"m 263 972 l 458 972 q 572 954 521 972 q 657 902 622 936 q 710 820 692 868 q 729 711 729 772 q 698 583 729 644 q 613 484 667 522 q 493 446 560 446 q 544 406 517 436 q 593 349 572 376 q 612 322 593 349 q 659 256 631 294 q 717 179 688 217 q 767 119 746 142 q 822 65 794 89 q 883 28 850 42 q 956 14 915 14 l 956 0 l 879 0 q 769 19 815 0 q 690 67 722 39 q 636 122 658 96 q 613 154 632 128 q 569 217 594 181 q 518 290 543 254 q 475 352 493 326 q 454 382 457 378 q 396 446 428 417 q 326 475 364 475 l 326 489 q 348 488 326 489 q 400 489 369 488 q 479 500 436 490 q 560 540 522 510 q 617 633 597 571 q 624 672 621 649 q 625 717 626 694 q 577 867 624 811 q 453 928 531 924 q 373 930 414 931 q 304 929 332 929 q 276 929 276 929 q 273 941 276 931 q 266 962 269 951 q 263 972 263 972 m 281 972 l 281 0 l 190 0 l 190 972 l 281 972 m 194 101 l 194 0 l 83 0 l 83 14 q 92 14 83 14 q 101 14 101 14 q 163 40 138 14 q 190 101 189 65 l 194 101 m 194 871 l 190 871 q 163 933 189 907 q 101 958 138 958 q 92 958 101 958 q 83 958 83 958 l 83 972 l 194 972 l 194 871 m 276 101 l 281 101 q 307 40 281 65 q 369 14 333 14 q 378 14 369 14 q 386 14 386 14 l 386 0 l 276 0 l 276 101 m 483 -128 q 497 -99 483 -108 q 526 -89 510 -89 q 572 -119 558 -89 q 585 -175 585 -149 q 553 -254 585 -222 q 478 -289 521 -286 l 475 -279 q 516 -253 504 -269 q 528 -219 528 -236 q 524 -196 528 -207 q 513 -178 519 -185 q 494 -155 504 -167 q 483 -128 483 -143 z "},"S":{"ha":660,"x_min":81,"x_max":581,"o":"m 349 992 q 397 989 371 992 q 447 981 422 986 q 491 972 471 976 q 522 961 511 967 l 522 807 l 510 807 q 464 912 510 874 q 353 950 418 950 q 229 902 276 950 q 182 790 182 854 q 194 728 182 764 q 238 663 206 693 l 511 410 q 567 326 553 371 q 581 240 581 282 q 510 53 581 125 q 321 -19 440 -19 q 242 -12 288 -19 q 155 12 197 -6 q 85 57 113 29 q 81 113 81 79 q 86 183 81 146 q 101 250 92 219 l 114 250 q 132 126 107 179 q 205 47 157 74 q 314 22 253 19 q 445 76 390 26 q 500 208 500 125 q 486 281 500 249 q 446 338 472 314 l 179 585 q 121 670 138 624 q 104 757 104 717 q 132 869 104 815 q 215 958 160 924 q 349 992 269 992 m 522 978 l 522 949 l 417 949 l 417 978 l 522 978 z "},"Ś":{"ha":660,"x_min":81,"x_max":581,"o":"m 349 992 q 397 989 371 992 q 447 981 422 986 q 491 972 471 976 q 522 961 511 967 l 522 807 l 510 807 q 464 912 510 874 q 353 950 418 950 q 229 902 276 950 q 182 790 182 854 q 194 728 182 764 q 238 663 206 693 l 511 410 q 567 326 553 371 q 581 240 581 282 q 510 53 581 125 q 321 -19 440 -19 q 242 -12 288 -19 q 155 12 197 -6 q 85 57 113 29 q 81 113 81 79 q 86 183 81 146 q 101 250 92 219 l 114 250 q 132 126 107 179 q 205 47 157 74 q 314 22 253 19 q 445 76 390 26 q 500 208 500 125 q 486 281 500 249 q 446 338 472 314 l 179 585 q 121 670 138 624 q 104 757 104 717 q 132 869 104 815 q 215 958 160 924 q 349 992 269 992 m 522 978 l 522 949 l 417 949 l 417 978 l 522 978 z "},"Š":{"ha":660,"x_min":81,"x_max":581,"o":"m 349 992 q 397 989 371 992 q 447 981 422 986 q 491 972 471 976 q 522 961 511 967 l 522 807 l 510 807 q 464 912 510 874 q 353 950 418 950 q 229 902 276 950 q 182 790 182 854 q 194 728 182 764 q 238 663 206 693 l 511 410 q 567 326 553 371 q 581 240 581 282 q 510 53 581 125 q 321 -19 440 -19 q 242 -12 288 -19 q 155 12 197 -6 q 85 57 113 29 q 81 113 81 79 q 86 183 81 146 q 101 250 92 219 l 114 250 q 132 126 107 179 q 205 47 157 74 q 314 22 253 19 q 445 76 390 26 q 500 208 500 125 q 486 281 500 249 q 446 338 472 314 l 179 585 q 121 670 138 624 q 104 757 104 717 q 132 869 104 815 q 215 958 160 924 q 349 992 269 992 m 522 978 l 522 949 l 417 949 l 417 978 l 522 978 z "},"Ş":{"ha":660,"x_min":81,"x_max":581,"o":"m 349 992 q 397 989 371 992 q 447 981 422 986 q 491 972 471 976 q 522 961 511 967 l 522 807 l 510 807 q 464 912 510 874 q 353 950 418 950 q 229 902 276 950 q 182 790 182 854 q 194 728 182 764 q 238 663 206 693 l 511 410 q 567 326 553 371 q 581 240 581 282 q 510 53 581 125 q 321 -19 440 -19 q 242 -12 288 -19 q 155 12 197 -6 q 85 57 113 29 q 81 113 81 79 q 86 183 81 146 q 101 250 92 219 l 114 250 q 132 126 107 179 q 205 47 157 74 q 314 22 253 19 q 445 76 390 26 q 500 208 500 125 q 486 281 500 249 q 446 338 472 314 l 179 585 q 121 670 138 624 q 104 757 104 717 q 132 869 104 815 q 215 958 160 924 q 349 992 269 992 m 522 978 l 522 949 l 417 949 l 417 978 l 522 978 z "},"Ș":{"ha":657,"x_min":81,"x_max":578,"o":"m 331 992 q 384 990 358 992 q 433 985 410 989 q 478 976 457 982 q 519 961 500 969 l 519 828 l 507 828 q 489 876 507 847 q 442 924 471 904 q 393 944 421 939 q 339 950 365 950 q 257 928 293 950 q 200 869 221 906 q 179 792 179 833 q 192 726 179 761 q 235 661 204 692 l 507 408 q 561 328 544 371 q 578 242 578 286 q 508 53 578 125 q 325 -19 439 -18 q 190 -1 258 -19 q 83 57 122 18 q 81 108 81 82 q 84 164 81 135 q 96 222 88 193 l 108 222 q 135 117 108 163 q 211 47 163 72 q 325 22 260 22 q 450 77 403 26 q 497 207 497 128 q 485 278 497 244 q 444 339 472 311 l 179 586 q 120 672 138 628 q 103 758 103 715 q 133 874 103 821 q 216 960 164 928 q 331 992 268 992 m 519 978 l 519 949 l 414 949 l 414 978 l 519 978 m 285 -128 q 298 -99 285 -108 q 328 -89 311 -89 q 373 -119 360 -89 q 386 -175 386 -149 q 354 -254 386 -222 q 279 -289 322 -286 l 276 -279 q 317 -253 306 -269 q 329 -219 329 -236 q 325 -196 329 -207 q 314 -178 321 -185 q 295 -155 306 -167 q 285 -128 285 -143 z "},"T":{"ha":858,"x_min":28,"x_max":832,"o":"m 475 968 l 475 0 l 385 0 l 385 968 l 475 968 m 832 974 l 832 932 l 28 932 l 28 974 l 832 974 m 832 936 l 832 824 l 818 825 l 818 849 q 794 907 818 883 q 736 932 769 931 l 736 936 l 832 936 m 832 999 l 832 958 l 663 974 q 727 978 693 974 q 790 988 761 982 q 832 999 819 993 m 389 101 l 389 0 l 278 0 l 278 14 q 287 14 278 14 q 296 14 296 14 q 358 40 332 14 q 385 101 383 65 l 389 101 m 471 101 l 475 101 q 502 40 476 65 q 564 14 528 14 q 573 14 564 14 q 582 14 582 14 l 582 0 l 471 0 l 471 101 m 124 936 l 124 932 q 65 907 89 931 q 42 849 42 883 l 42 825 l 28 824 l 28 936 l 124 936 m 28 999 q 70 988 42 993 q 133 978 99 982 q 197 974 168 974 l 28 958 l 28 999 z "},"Ŧ":{"ha":858,"x_min":28,"x_max":832,"o":"m 475 968 l 475 0 l 385 0 l 385 968 l 475 968 m 832 974 l 832 932 l 28 932 l 28 974 l 832 974 m 832 936 l 832 824 l 818 825 l 818 849 q 794 907 818 883 q 736 932 769 931 l 736 936 l 832 936 m 832 999 l 832 958 l 663 974 q 727 978 693 974 q 790 988 761 982 q 832 999 819 993 m 389 101 l 389 0 l 278 0 l 278 14 q 287 14 278 14 q 296 14 296 14 q 358 40 332 14 q 385 101 383 65 l 389 101 m 471 101 l 475 101 q 502 40 476 65 q 564 14 528 14 q 573 14 564 14 q 582 14 582 14 l 582 0 l 471 0 l 471 101 m 124 936 l 124 932 q 65 907 89 931 q 42 849 42 883 l 42 825 l 28 824 l 28 936 l 124 936 m 28 999 q 70 988 42 993 q 133 978 99 982 q 197 974 168 974 l 28 958 l 28 999 m 700 557 l 700 515 l 161 515 l 161 557 l 700 557 z "},"Ť":{"ha":858,"x_min":28,"x_max":832,"o":"m 475 968 l 475 0 l 385 0 l 385 968 l 475 968 m 832 974 l 832 932 l 28 932 l 28 974 l 832 974 m 832 936 l 832 824 l 818 825 l 818 849 q 794 907 818 883 q 736 932 769 931 l 736 936 l 832 936 m 832 999 l 832 958 l 663 974 q 727 978 693 974 q 790 988 761 982 q 832 999 819 993 m 389 101 l 389 0 l 278 0 l 278 14 q 287 14 278 14 q 296 14 296 14 q 358 40 332 14 q 385 101 383 65 l 389 101 m 471 101 l 475 101 q 502 40 476 65 q 564 14 528 14 q 573 14 564 14 q 582 14 582 14 l 582 0 l 471 0 l 471 101 m 124 936 l 124 932 q 65 907 89 931 q 42 849 42 883 l 42 825 l 28 824 l 28 936 l 124 936 m 28 999 q 70 988 42 993 q 133 978 99 982 q 197 974 168 974 l 28 958 l 28 999 z "},"Ţ":{"ha":858,"x_min":28,"x_max":832,"o":"m 475 968 l 475 0 l 385 0 l 385 968 l 475 968 m 832 974 l 832 932 l 28 932 l 28 974 l 832 974 m 832 936 l 832 824 l 818 825 l 818 849 q 794 907 818 883 q 736 932 769 931 l 736 936 l 832 936 m 832 999 l 832 958 l 663 974 q 727 978 693 974 q 790 988 761 982 q 832 999 819 993 m 389 101 l 389 0 l 278 0 l 278 14 q 287 14 278 14 q 296 14 296 14 q 358 40 332 14 q 385 101 383 65 l 389 101 m 471 101 l 475 101 q 502 40 476 65 q 564 14 528 14 q 573 14 564 14 q 582 14 582 14 l 582 0 l 471 0 l 471 101 m 124 936 l 124 932 q 65 907 89 931 q 42 849 42 883 l 42 825 l 28 824 l 28 936 l 124 936 m 28 999 q 70 988 42 993 q 133 978 99 982 q 197 974 168 974 l 28 958 l 28 999 z "},"Ț":{"ha":858,"x_min":28,"x_max":832,"o":"m 475 968 l 475 0 l 385 0 l 385 968 l 475 968 m 832 974 l 832 932 l 28 932 l 28 974 l 832 974 m 832 936 l 832 824 l 818 825 l 818 849 q 794 907 818 883 q 736 932 769 931 l 736 936 l 832 936 m 832 999 l 832 958 l 663 974 q 727 978 693 974 q 790 988 761 982 q 832 999 819 993 m 389 101 l 389 0 l 278 0 l 278 14 q 287 14 278 14 q 296 14 296 14 q 358 40 332 14 q 385 101 383 65 l 389 101 m 471 101 l 475 101 q 502 40 476 65 q 564 14 528 14 q 573 14 564 14 q 582 14 582 14 l 582 0 l 471 0 l 471 101 m 124 936 l 124 932 q 65 907 89 931 q 42 849 42 883 l 42 825 l 28 824 l 28 936 l 124 936 m 28 999 q 70 988 42 993 q 133 978 99 982 q 197 974 168 974 l 28 958 l 28 999 m 388 -128 q 401 -99 388 -108 q 431 -89 414 -89 q 476 -119 463 -89 q 489 -175 489 -149 q 457 -254 489 -222 q 382 -289 425 -286 l 379 -279 q 420 -253 408 -269 q 432 -219 432 -236 q 428 -196 432 -207 q 417 -178 424 -185 q 398 -155 408 -167 q 388 -128 388 -143 z "},"U":{"ha":1090,"x_min":69,"x_max":1021,"o":"m 256 972 l 256 361 q 292 185 256 261 q 396 66 329 108 q 550 24 463 24 q 713 64 643 24 q 821 176 782 104 q 860 343 860 247 l 860 972 l 925 972 l 925 343 q 878 153 925 235 q 747 26 832 72 q 550 -19 663 -19 q 348 26 435 -19 q 213 152 261 71 q 165 342 165 233 l 165 972 l 256 972 m 169 972 l 169 889 l 165 889 q 144 939 165 919 q 92 958 122 958 q 81 958 92 958 q 69 958 69 958 l 69 972 l 169 972 m 351 972 l 351 958 q 340 958 351 958 q 329 958 329 958 q 277 939 299 958 q 256 889 256 919 l 253 889 l 253 972 l 351 972 m 864 972 l 864 889 l 860 889 q 838 939 860 919 q 786 958 817 958 q 775 958 786 958 q 764 958 764 958 l 764 972 l 864 972 m 1021 972 l 1021 958 q 1010 958 1021 958 q 999 958 999 958 q 947 939 968 958 q 925 889 925 919 l 922 889 l 922 972 l 1021 972 z "},"Ú":{"ha":1090,"x_min":69,"x_max":1021,"o":"m 256 972 l 256 361 q 292 185 256 261 q 396 66 329 108 q 550 24 463 24 q 713 64 643 24 q 821 176 782 104 q 860 343 860 247 l 860 972 l 925 972 l 925 343 q 878 153 925 235 q 747 26 832 72 q 550 -19 663 -19 q 348 26 435 -19 q 213 152 261 71 q 165 342 165 233 l 165 972 l 256 972 m 169 972 l 169 889 l 165 889 q 144 939 165 919 q 92 958 122 958 q 81 958 92 958 q 69 958 69 958 l 69 972 l 169 972 m 351 972 l 351 958 q 340 958 351 958 q 329 958 329 958 q 277 939 299 958 q 256 889 256 919 l 253 889 l 253 972 l 351 972 m 864 972 l 864 889 l 860 889 q 838 939 860 919 q 786 958 817 958 q 775 958 786 958 q 764 958 764 958 l 764 972 l 864 972 m 1021 972 l 1021 958 q 1010 958 1021 958 q 999 958 999 958 q 947 939 968 958 q 925 889 925 919 l 922 889 l 922 972 l 1021 972 z "},"Û":{"ha":1090,"x_min":69,"x_max":1021,"o":"m 256 972 l 256 361 q 292 185 256 261 q 396 66 329 108 q 550 24 463 24 q 713 64 643 24 q 821 176 782 104 q 860 343 860 247 l 860 972 l 925 972 l 925 343 q 878 153 925 235 q 747 26 832 72 q 550 -19 663 -19 q 348 26 435 -19 q 213 152 261 71 q 165 342 165 233 l 165 972 l 256 972 m 169 972 l 169 889 l 165 889 q 144 939 165 919 q 92 958 122 958 q 81 958 92 958 q 69 958 69 958 l 69 972 l 169 972 m 351 972 l 351 958 q 340 958 351 958 q 329 958 329 958 q 277 939 299 958 q 256 889 256 919 l 253 889 l 253 972 l 351 972 m 864 972 l 864 889 l 860 889 q 838 939 860 919 q 786 958 817 958 q 775 958 786 958 q 764 958 764 958 l 764 972 l 864 972 m 1021 972 l 1021 958 q 1010 958 1021 958 q 999 958 999 958 q 947 939 968 958 q 925 889 925 919 l 922 889 l 922 972 l 1021 972 z "},"Ü":{"ha":1090,"x_min":69,"x_max":1021,"o":"m 256 972 l 256 361 q 292 185 256 261 q 396 66 329 108 q 550 24 463 24 q 713 64 643 24 q 821 176 782 104 q 860 343 860 247 l 860 972 l 925 972 l 925 343 q 878 153 925 235 q 747 26 832 72 q 550 -19 663 -19 q 348 26 435 -19 q 213 152 261 71 q 165 342 165 233 l 165 972 l 256 972 m 169 972 l 169 889 l 165 889 q 144 939 165 919 q 92 958 122 958 q 81 958 92 958 q 69 958 69 958 l 69 972 l 169 972 m 351 972 l 351 958 q 340 958 351 958 q 329 958 329 958 q 277 939 299 958 q 256 889 256 919 l 253 889 l 253 972 l 351 972 m 864 972 l 864 889 l 860 889 q 838 939 860 919 q 786 958 817 958 q 775 958 786 958 q 764 958 764 958 l 764 972 l 864 972 m 1021 972 l 1021 958 q 1010 958 1021 958 q 999 958 999 958 q 947 939 968 958 q 925 889 925 919 l 922 889 l 922 972 l 1021 972 z "},"Ù":{"ha":1090,"x_min":69,"x_max":1021,"o":"m 256 972 l 256 361 q 292 185 256 261 q 396 66 329 108 q 550 24 463 24 q 713 64 643 24 q 821 176 782 104 q 860 343 860 247 l 860 972 l 925 972 l 925 343 q 878 153 925 235 q 747 26 832 72 q 550 -19 663 -19 q 348 26 435 -19 q 213 152 261 71 q 165 342 165 233 l 165 972 l 256 972 m 169 972 l 169 889 l 165 889 q 144 939 165 919 q 92 958 122 958 q 81 958 92 958 q 69 958 69 958 l 69 972 l 169 972 m 351 972 l 351 958 q 340 958 351 958 q 329 958 329 958 q 277 939 299 958 q 256 889 256 919 l 253 889 l 253 972 l 351 972 m 864 972 l 864 889 l 860 889 q 838 939 860 919 q 786 958 817 958 q 775 958 786 958 q 764 958 764 958 l 764 972 l 864 972 m 1021 972 l 1021 958 q 1010 958 1021 958 q 999 958 999 958 q 947 939 968 958 q 925 889 925 919 l 922 889 l 922 972 l 1021 972 z "},"Ű":{"ha":1090,"x_min":69,"x_max":1021,"o":"m 256 972 l 256 361 q 292 185 256 261 q 396 66 329 108 q 550 24 463 24 q 713 64 643 24 q 821 176 782 104 q 860 343 860 247 l 860 972 l 925 972 l 925 343 q 878 153 925 235 q 747 26 832 72 q 550 -19 663 -19 q 348 26 435 -19 q 213 152 261 71 q 165 342 165 233 l 165 972 l 256 972 m 169 972 l 169 889 l 165 889 q 144 939 165 919 q 92 958 122 958 q 81 958 92 958 q 69 958 69 958 l 69 972 l 169 972 m 351 972 l 351 958 q 340 958 351 958 q 329 958 329 958 q 277 939 299 958 q 256 889 256 919 l 253 889 l 253 972 l 351 972 m 864 972 l 864 889 l 860 889 q 838 939 860 919 q 786 958 817 958 q 775 958 786 958 q 764 958 764 958 l 764 972 l 864 972 m 1021 972 l 1021 958 q 1010 958 1021 958 q 999 958 999 958 q 947 939 968 958 q 925 889 925 919 l 922 889 l 922 972 l 1021 972 z "},"Ū":{"ha":1090,"x_min":69,"x_max":1021,"o":"m 256 972 l 256 361 q 292 185 256 261 q 396 66 329 108 q 550 24 463 24 q 713 64 643 24 q 821 176 782 104 q 860 343 860 247 l 860 972 l 925 972 l 925 343 q 878 153 925 235 q 747 26 832 72 q 550 -19 663 -19 q 348 26 435 -19 q 213 152 261 71 q 165 342 165 233 l 165 972 l 256 972 m 169 972 l 169 889 l 165 889 q 144 939 165 919 q 92 958 122 958 q 81 958 92 958 q 69 958 69 958 l 69 972 l 169 972 m 351 972 l 351 958 q 340 958 351 958 q 329 958 329 958 q 277 939 299 958 q 256 889 256 919 l 253 889 l 253 972 l 351 972 m 864 972 l 864 889 l 860 889 q 838 939 860 919 q 786 958 817 958 q 775 958 786 958 q 764 958 764 958 l 764 972 l 864 972 m 1021 972 l 1021 958 q 1010 958 1021 958 q 999 958 999 958 q 947 939 968 958 q 925 889 925 919 l 922 889 l 922 972 l 1021 972 z "},"Ų":{"ha":1090,"x_min":69,"x_max":1021,"o":"m 256 972 l 256 361 q 292 185 256 261 q 396 66 329 108 q 550 24 463 24 q 713 64 643 24 q 821 176 782 104 q 860 343 860 247 l 860 972 l 925 972 l 925 343 q 878 153 925 235 q 747 26 832 72 q 550 -19 663 -19 q 348 26 435 -19 q 213 152 261 71 q 165 342 165 233 l 165 972 l 256 972 m 169 972 l 169 889 l 165 889 q 144 939 165 919 q 92 958 122 958 q 81 958 92 958 q 69 958 69 958 l 69 972 l 169 972 m 351 972 l 351 958 q 340 958 351 958 q 329 958 329 958 q 277 939 299 958 q 256 889 256 919 l 253 889 l 253 972 l 351 972 m 864 972 l 864 889 l 860 889 q 838 939 860 919 q 786 958 817 958 q 775 958 786 958 q 764 958 764 958 l 764 972 l 864 972 m 1021 972 l 1021 958 q 1010 958 1021 958 q 999 958 999 958 q 947 939 968 958 q 925 889 925 919 l 922 889 l 922 972 l 1021 972 z "},"Ů":{"ha":1090,"x_min":69,"x_max":1021,"o":"m 256 972 l 256 361 q 292 185 256 261 q 396 66 329 108 q 550 24 463 24 q 713 64 643 24 q 821 176 782 104 q 860 343 860 247 l 860 972 l 925 972 l 925 343 q 878 153 925 235 q 747 26 832 72 q 550 -19 663 -19 q 348 26 435 -19 q 213 152 261 71 q 165 342 165 233 l 165 972 l 256 972 m 169 972 l 169 889 l 165 889 q 144 939 165 919 q 92 958 122 958 q 81 958 92 958 q 69 958 69 958 l 69 972 l 169 972 m 351 972 l 351 958 q 340 958 351 958 q 329 958 329 958 q 277 939 299 958 q 256 889 256 919 l 253 889 l 253 972 l 351 972 m 864 972 l 864 889 l 860 889 q 838 939 860 919 q 786 958 817 958 q 775 958 786 958 q 764 958 764 958 l 764 972 l 864 972 m 1021 972 l 1021 958 q 1010 958 1021 958 q 999 958 999 958 q 947 939 968 958 q 925 889 925 919 l 922 889 l 922 972 l 1021 972 z "},"V":{"ha":1028,"x_min":-14,"x_max":1042,"o":"m 510 -19 l 79 964 l 197 964 l 538 113 l 510 -19 m 510 -19 l 497 78 l 867 968 l 950 968 l 574 124 q 566 106 574 124 q 548 64 558 89 q 530 15 538 39 q 522 -19 522 -8 l 510 -19 m 828 872 q 822 936 843 914 q 775 958 801 958 l 763 958 l 763 972 l 1042 972 l 1042 958 q 1035 958 1042 958 q 1029 958 1029 958 q 964 938 999 958 q 907 871 929 918 l 828 872 m 235 872 l 119 871 q 64 938 99 918 q -3 958 29 958 q -8 958 -3 958 q -14 958 -14 958 l -14 972 l 299 972 l 299 958 l 286 958 q 240 936 260 958 q 235 872 219 914 z "},"W":{"ha":1364,"x_min":-14,"x_max":1378,"o":"m 88 964 l 200 964 l 458 135 l 435 -17 l 88 964 m 710 994 l 721 882 l 476 138 q 469 113 476 138 q 456 53 463 89 q 447 -17 449 18 l 435 -17 l 410 107 l 697 994 l 710 994 m 710 993 l 1001 175 l 971 -17 l 663 843 l 710 993 m 1274 964 l 1014 138 q 1007 113 1014 138 q 992 52 1000 88 q 983 -17 985 17 l 971 -17 l 954 121 l 1196 964 l 1274 964 m 1169 872 q 1163 936 1181 914 q 1117 958 1144 958 l 1104 958 l 1104 972 l 1378 972 l 1378 958 q 1372 958 1378 958 q 1367 958 1367 958 q 1297 938 1335 958 q 1244 872 1260 918 l 1169 872 m 229 872 l 119 872 q 66 938 103 918 q -3 958 29 958 q -8 958 -3 958 q -14 958 -14 958 l -14 972 l 294 972 l 294 958 l 282 958 q 235 936 256 958 q 229 872 215 914 z "},"Ẃ":{"ha":1364,"x_min":-14,"x_max":1378,"o":"m 88 964 l 200 964 l 458 135 l 435 -17 l 88 964 m 710 994 l 721 882 l 476 138 q 469 113 476 138 q 456 53 463 89 q 447 -17 449 18 l 435 -17 l 410 107 l 697 994 l 710 994 m 710 993 l 1001 175 l 971 -17 l 663 843 l 710 993 m 1274 964 l 1014 138 q 1007 113 1014 138 q 992 52 1000 88 q 983 -17 985 17 l 971 -17 l 954 121 l 1196 964 l 1274 964 m 1169 872 q 1163 936 1181 914 q 1117 958 1144 958 l 1104 958 l 1104 972 l 1378 972 l 1378 958 q 1372 958 1378 958 q 1367 958 1367 958 q 1297 938 1335 958 q 1244 872 1260 918 l 1169 872 m 229 872 l 119 872 q 66 938 103 918 q -3 958 29 958 q -8 958 -3 958 q -14 958 -14 958 l -14 972 l 294 972 l 294 958 l 282 958 q 235 936 256 958 q 229 872 215 914 z "},"Ŵ":{"ha":1364,"x_min":-14,"x_max":1378,"o":"m 88 964 l 200 964 l 458 135 l 435 -17 l 88 964 m 710 994 l 721 882 l 476 138 q 469 113 476 138 q 456 53 463 89 q 447 -17 449 18 l 435 -17 l 410 107 l 697 994 l 710 994 m 710 993 l 1001 175 l 971 -17 l 663 843 l 710 993 m 1274 964 l 1014 138 q 1007 113 1014 138 q 992 52 1000 88 q 983 -17 985 17 l 971 -17 l 954 121 l 1196 964 l 1274 964 m 1169 872 q 1163 936 1181 914 q 1117 958 1144 958 l 1104 958 l 1104 972 l 1378 972 l 1378 958 q 1372 958 1378 958 q 1367 958 1367 958 q 1297 938 1335 958 q 1244 872 1260 918 l 1169 872 m 229 872 l 119 872 q 66 938 103 918 q -3 958 29 958 q -8 958 -3 958 q -14 958 -14 958 l -14 972 l 294 972 l 294 958 l 282 958 q 235 936 256 958 q 229 872 215 914 z "},"Ẅ":{"ha":1364,"x_min":-14,"x_max":1378,"o":"m 88 964 l 200 964 l 458 135 l 435 -17 l 88 964 m 710 994 l 721 882 l 476 138 q 469 113 476 138 q 456 53 463 89 q 447 -17 449 18 l 435 -17 l 410 107 l 697 994 l 710 994 m 710 993 l 1001 175 l 971 -17 l 663 843 l 710 993 m 1274 964 l 1014 138 q 1007 113 1014 138 q 992 52 1000 88 q 983 -17 985 17 l 971 -17 l 954 121 l 1196 964 l 1274 964 m 1169 872 q 1163 936 1181 914 q 1117 958 1144 958 l 1104 958 l 1104 972 l 1378 972 l 1378 958 q 1372 958 1378 958 q 1367 958 1367 958 q 1297 938 1335 958 q 1244 872 1260 918 l 1169 872 m 229 872 l 119 872 q 66 938 103 918 q -3 958 29 958 q -8 958 -3 958 q -14 958 -14 958 l -14 972 l 294 972 l 294 958 l 282 958 q 235 936 256 958 q 229 872 215 914 z "},"Ẁ":{"ha":1364,"x_min":-14,"x_max":1378,"o":"m 88 964 l 200 964 l 458 135 l 435 -17 l 88 964 m 710 994 l 721 882 l 476 138 q 469 113 476 138 q 456 53 463 89 q 447 -17 449 18 l 435 -17 l 410 107 l 697 994 l 710 994 m 710 993 l 1001 175 l 971 -17 l 663 843 l 710 993 m 1274 964 l 1014 138 q 1007 113 1014 138 q 992 52 1000 88 q 983 -17 985 17 l 971 -17 l 954 121 l 1196 964 l 1274 964 m 1169 872 q 1163 936 1181 914 q 1117 958 1144 958 l 1104 958 l 1104 972 l 1378 972 l 1378 958 q 1372 958 1378 958 q 1367 958 1367 958 q 1297 938 1335 958 q 1244 872 1260 918 l 1169 872 m 229 872 l 119 872 q 66 938 103 918 q -3 958 29 958 q -8 958 -3 958 q -14 958 -14 958 l -14 972 l 294 972 l 294 958 l 282 958 q 235 936 256 958 q 229 872 215 914 z "},"X":{"ha":919,"x_min":-14,"x_max":935,"o":"m 217 972 l 835 1 l 724 1 l 108 972 l 217 972 m 235 100 q 228 60 222 81 q 249 27 233 40 q 283 14 265 14 q 292 14 283 14 q 301 14 301 14 l 301 0 l -14 0 l -14 14 l 6 14 q 88 39 50 14 q 147 96 125 64 l 235 100 m 429 517 l 461 457 l 172 1 l 83 1 l 429 517 m 661 100 l 775 94 q 835 38 797 63 q 915 14 872 14 l 935 14 l 935 0 l 596 0 l 596 14 q 604 14 596 14 q 613 14 613 14 q 660 42 642 14 q 661 100 679 69 m 346 972 l 346 958 q 338 958 346 958 q 329 958 329 958 q 295 945 311 958 q 274 912 279 932 q 281 872 269 892 l 169 876 q 110 933 147 908 q 29 958 74 958 l 10 958 l 10 972 l 346 972 m 814 972 l 488 492 l 440 525 l 724 972 l 814 972 m 908 972 l 908 958 l 889 958 q 809 933 846 958 q 749 876 772 908 l 660 872 q 667 912 672 892 q 647 945 663 932 q 613 958 632 958 q 604 958 613 958 q 596 958 596 958 l 596 972 l 908 972 z "},"Y":{"ha":918,"x_min":-14,"x_max":933,"o":"m 208 971 l 481 464 l 421 415 l 89 971 l 208 971 m 500 447 l 500 0 l 410 0 l 410 447 l 500 447 m 747 971 l 832 971 l 490 418 l 440 433 l 747 971 m 690 872 q 697 912 703 892 q 676 945 692 932 q 642 958 661 958 q 633 958 642 958 q 625 958 625 958 l 625 972 l 933 972 l 933 958 l 914 958 q 833 933 871 958 q 774 876 796 908 l 690 872 m 261 872 l 144 876 q 88 933 125 908 q 6 958 50 958 l -14 958 l -14 972 l 328 972 l 328 958 q 319 958 328 958 q 310 958 310 958 q 263 930 279 958 q 261 872 247 901 m 413 101 l 413 0 l 303 0 l 303 14 q 311 14 303 14 q 321 14 319 14 q 383 40 357 14 q 410 101 408 65 l 413 101 m 496 101 l 500 101 q 526 40 500 65 q 589 14 553 14 q 597 14 589 14 q 606 14 606 14 l 606 0 l 496 0 l 496 101 z "},"Ý":{"ha":918,"x_min":-14,"x_max":933,"o":"m 208 971 l 481 464 l 421 415 l 89 971 l 208 971 m 500 447 l 500 0 l 410 0 l 410 447 l 500 447 m 747 971 l 832 971 l 490 418 l 440 433 l 747 971 m 690 872 q 697 912 703 892 q 676 945 692 932 q 642 958 661 958 q 633 958 642 958 q 625 958 625 958 l 625 972 l 933 972 l 933 958 l 914 958 q 833 933 871 958 q 774 876 796 908 l 690 872 m 261 872 l 144 876 q 88 933 125 908 q 6 958 50 958 l -14 958 l -14 972 l 328 972 l 328 958 q 319 958 328 958 q 310 958 310 958 q 263 930 279 958 q 261 872 247 901 m 413 101 l 413 0 l 303 0 l 303 14 q 311 14 303 14 q 321 14 319 14 q 383 40 357 14 q 410 101 408 65 l 413 101 m 496 101 l 500 101 q 526 40 500 65 q 589 14 553 14 q 597 14 589 14 q 606 14 606 14 l 606 0 l 496 0 l 496 101 z "},"Ŷ":{"ha":918,"x_min":-14,"x_max":933,"o":"m 208 971 l 481 464 l 421 415 l 89 971 l 208 971 m 500 447 l 500 0 l 410 0 l 410 447 l 500 447 m 747 971 l 832 971 l 490 418 l 440 433 l 747 971 m 690 872 q 697 912 703 892 q 676 945 692 932 q 642 958 661 958 q 633 958 642 958 q 625 958 625 958 l 625 972 l 933 972 l 933 958 l 914 958 q 833 933 871 958 q 774 876 796 908 l 690 872 m 261 872 l 144 876 q 88 933 125 908 q 6 958 50 958 l -14 958 l -14 972 l 328 972 l 328 958 q 319 958 328 958 q 310 958 310 958 q 263 930 279 958 q 261 872 247 901 m 413 101 l 413 0 l 303 0 l 303 14 q 311 14 303 14 q 321 14 319 14 q 383 40 357 14 q 410 101 408 65 l 413 101 m 496 101 l 500 101 q 526 40 500 65 q 589 14 553 14 q 597 14 589 14 q 606 14 606 14 l 606 0 l 496 0 l 496 101 z "},"Ÿ":{"ha":918,"x_min":-14,"x_max":933,"o":"m 208 971 l 481 464 l 421 415 l 89 971 l 208 971 m 500 447 l 500 0 l 410 0 l 410 447 l 500 447 m 747 971 l 832 971 l 490 418 l 440 433 l 747 971 m 690 872 q 697 912 703 892 q 676 945 692 932 q 642 958 661 958 q 633 958 642 958 q 625 958 625 958 l 625 972 l 933 972 l 933 958 l 914 958 q 833 933 871 958 q 774 876 796 908 l 690 872 m 261 872 l 144 876 q 88 933 125 908 q 6 958 50 958 l -14 958 l -14 972 l 328 972 l 328 958 q 319 958 328 958 q 310 958 310 958 q 263 930 279 958 q 261 872 247 901 m 413 101 l 413 0 l 303 0 l 303 14 q 311 14 303 14 q 321 14 319 14 q 383 40 357 14 q 410 101 408 65 l 413 101 m 496 101 l 500 101 q 526 40 500 65 q 589 14 553 14 q 597 14 589 14 q 606 14 606 14 l 606 0 l 496 0 l 496 101 z "},"Ỳ":{"ha":918,"x_min":-14,"x_max":933,"o":"m 208 971 l 481 464 l 421 415 l 89 971 l 208 971 m 500 447 l 500 0 l 410 0 l 410 447 l 500 447 m 747 971 l 832 971 l 490 418 l 440 433 l 747 971 m 690 872 q 697 912 703 892 q 676 945 692 932 q 642 958 661 958 q 633 958 642 958 q 625 958 625 958 l 625 972 l 933 972 l 933 958 l 914 958 q 833 933 871 958 q 774 876 796 908 l 690 872 m 261 872 l 144 876 q 88 933 125 908 q 6 958 50 958 l -14 958 l -14 972 l 328 972 l 328 958 q 319 958 328 958 q 310 958 310 958 q 263 930 279 958 q 261 872 247 901 m 413 101 l 413 0 l 303 0 l 303 14 q 311 14 303 14 q 321 14 319 14 q 383 40 357 14 q 410 101 408 65 l 413 101 m 496 101 l 500 101 q 526 40 500 65 q 589 14 553 14 q 597 14 589 14 q 606 14 606 14 l 606 0 l 496 0 l 496 101 z "},"Z":{"ha":904,"x_min":83,"x_max":857,"o":"m 806 992 q 806 985 806 992 q 806 979 806 979 l 186 0 l 83 0 l 83 13 l 667 932 l 103 932 l 103 974 l 658 974 q 717 976 686 974 q 773 983 749 979 q 806 992 797 988 m 815 42 l 807 0 l 172 0 l 172 42 l 815 42 m 857 214 l 811 0 l 628 0 l 638 35 l 653 42 q 777 92 731 42 q 843 214 824 142 l 857 214 m 199 932 q 140 907 164 931 q 117 849 117 883 l 117 824 l 103 824 l 103 936 l 199 936 l 199 932 m 103 999 q 145 988 117 993 q 208 978 174 982 q 272 974 243 974 l 103 958 l 103 999 z "},"Ź":{"ha":904,"x_min":83,"x_max":857,"o":"m 806 992 q 806 985 806 992 q 806 979 806 979 l 186 0 l 83 0 l 83 13 l 667 932 l 103 932 l 103 974 l 658 974 q 717 976 686 974 q 773 983 749 979 q 806 992 797 988 m 815 42 l 807 0 l 172 0 l 172 42 l 815 42 m 857 214 l 811 0 l 628 0 l 638 35 l 653 42 q 777 92 731 42 q 843 214 824 142 l 857 214 m 199 932 q 140 907 164 931 q 117 849 117 883 l 117 824 l 103 824 l 103 936 l 199 936 l 199 932 m 103 999 q 145 988 117 993 q 208 978 174 982 q 272 974 243 974 l 103 958 l 103 999 z "},"Ž":{"ha":904,"x_min":83,"x_max":857,"o":"m 806 992 q 806 985 806 992 q 806 979 806 979 l 186 0 l 83 0 l 83 13 l 667 932 l 103 932 l 103 974 l 658 974 q 717 976 686 974 q 773 983 749 979 q 806 992 797 988 m 815 42 l 807 0 l 172 0 l 172 42 l 815 42 m 857 214 l 811 0 l 628 0 l 638 35 l 653 42 q 777 92 731 42 q 843 214 824 142 l 857 214 m 199 932 q 140 907 164 931 q 117 849 117 883 l 117 824 l 103 824 l 103 936 l 199 936 l 199 932 m 103 999 q 145 988 117 993 q 208 978 174 982 q 272 974 243 974 l 103 958 l 103 999 z "},"Ż":{"ha":904,"x_min":83,"x_max":857,"o":"m 806 992 q 806 985 806 992 q 806 979 806 979 l 186 0 l 83 0 l 83 13 l 667 932 l 103 932 l 103 974 l 658 974 q 717 976 686 974 q 773 983 749 979 q 806 992 797 988 m 815 42 l 807 0 l 172 0 l 172 42 l 815 42 m 857 214 l 811 0 l 628 0 l 638 35 l 653 42 q 777 92 731 42 q 843 214 824 142 l 857 214 m 199 932 q 140 907 164 931 q 117 849 117 883 l 117 824 l 103 824 l 103 936 l 199 936 l 199 932 m 103 999 q 145 988 117 993 q 208 978 174 982 q 272 974 243 974 l 103 958 l 103 999 z "},"a":{"ha":921,"x_min":-7,"x_max":928,"o":"m 467 853 l 849 8 l 739 8 l 443 729 l 467 853 m 199 101 q 203 37 183 60 q 247 14 222 14 l 258 14 l 258 0 l -7 0 l -7 14 q -1 14 -7 14 q 4 14 4 14 q 64 34 33 14 q 117 101 94 54 l 199 101 m 467 853 l 476 757 l 158 4 l 71 4 l 400 710 q 408 726 400 710 q 426 767 415 743 q 444 815 436 792 q 454 853 453 839 l 467 853 m 631 324 l 631 282 l 263 282 l 263 324 l 631 324 m 701 101 l 807 101 q 858 34 828 54 q 917 14 889 14 q 922 14 917 14 q 928 14 928 14 l 928 0 l 643 0 l 643 14 l 654 14 q 697 37 678 14 q 701 101 717 60 z "},"á":{"ha":921,"x_min":-7,"x_max":928,"o":"m 467 853 l 849 8 l 739 8 l 443 729 l 467 853 m 199 101 q 203 37 183 60 q 247 14 222 14 l 258 14 l 258 0 l -7 0 l -7 14 q -1 14 -7 14 q 4 14 4 14 q 64 34 33 14 q 117 101 94 54 l 199 101 m 467 853 l 476 757 l 158 4 l 71 4 l 400 710 q 408 726 400 710 q 426 767 415 743 q 444 815 436 792 q 454 853 453 839 l 467 853 m 631 324 l 631 282 l 263 282 l 263 324 l 631 324 m 701 101 l 807 101 q 858 34 828 54 q 917 14 889 14 q 922 14 917 14 q 928 14 928 14 l 928 0 l 643 0 l 643 14 l 654 14 q 697 37 678 14 q 701 101 717 60 z "},"ă":{"ha":921,"x_min":-7,"x_max":928,"o":"m 467 853 l 849 8 l 739 8 l 443 729 l 467 853 m 199 101 q 203 37 183 60 q 247 14 222 14 l 258 14 l 258 0 l -7 0 l -7 14 q -1 14 -7 14 q 4 14 4 14 q 64 34 33 14 q 117 101 94 54 l 199 101 m 467 853 l 476 757 l 158 4 l 71 4 l 400 710 q 408 726 400 710 q 426 767 415 743 q 444 815 436 792 q 454 853 453 839 l 467 853 m 631 324 l 631 282 l 263 282 l 263 324 l 631 324 m 701 101 l 807 101 q 858 34 828 54 q 917 14 889 14 q 922 14 917 14 q 928 14 928 14 l 928 0 l 643 0 l 643 14 l 654 14 q 697 37 678 14 q 701 101 717 60 z "},"â":{"ha":921,"x_min":-7,"x_max":928,"o":"m 467 853 l 849 8 l 739 8 l 443 729 l 467 853 m 199 101 q 203 37 183 60 q 247 14 222 14 l 258 14 l 258 0 l -7 0 l -7 14 q -1 14 -7 14 q 4 14 4 14 q 64 34 33 14 q 117 101 94 54 l 199 101 m 467 853 l 476 757 l 158 4 l 71 4 l 400 710 q 408 726 400 710 q 426 767 415 743 q 444 815 436 792 q 454 853 453 839 l 467 853 m 631 324 l 631 282 l 263 282 l 263 324 l 631 324 m 701 101 l 807 101 q 858 34 828 54 q 917 14 889 14 q 922 14 917 14 q 928 14 928 14 l 928 0 l 643 0 l 643 14 l 654 14 q 697 37 678 14 q 701 101 717 60 z "},"ä":{"ha":921,"x_min":-7,"x_max":928,"o":"m 467 853 l 849 8 l 739 8 l 443 729 l 467 853 m 199 101 q 203 37 183 60 q 247 14 222 14 l 258 14 l 258 0 l -7 0 l -7 14 q -1 14 -7 14 q 4 14 4 14 q 64 34 33 14 q 117 101 94 54 l 199 101 m 467 853 l 476 757 l 158 4 l 71 4 l 400 710 q 408 726 400 710 q 426 767 415 743 q 444 815 436 792 q 454 853 453 839 l 467 853 m 631 324 l 631 282 l 263 282 l 263 324 l 631 324 m 701 101 l 807 101 q 858 34 828 54 q 917 14 889 14 q 922 14 917 14 q 928 14 928 14 l 928 0 l 643 0 l 643 14 l 654 14 q 697 37 678 14 q 701 101 717 60 z "},"à":{"ha":921,"x_min":-7,"x_max":928,"o":"m 467 853 l 849 8 l 739 8 l 443 729 l 467 853 m 199 101 q 203 37 183 60 q 247 14 222 14 l 258 14 l 258 0 l -7 0 l -7 14 q -1 14 -7 14 q 4 14 4 14 q 64 34 33 14 q 117 101 94 54 l 199 101 m 467 853 l 476 757 l 158 4 l 71 4 l 400 710 q 408 726 400 710 q 426 767 415 743 q 444 815 436 792 q 454 853 453 839 l 467 853 m 631 324 l 631 282 l 263 282 l 263 324 l 631 324 m 701 101 l 807 101 q 858 34 828 54 q 917 14 889 14 q 922 14 917 14 q 928 14 928 14 l 928 0 l 643 0 l 643 14 l 654 14 q 697 37 678 14 q 701 101 717 60 z "},"ā":{"ha":921,"x_min":-7,"x_max":928,"o":"m 467 853 l 849 8 l 739 8 l 443 729 l 467 853 m 199 101 q 203 37 183 60 q 247 14 222 14 l 258 14 l 258 0 l -7 0 l -7 14 q -1 14 -7 14 q 4 14 4 14 q 64 34 33 14 q 117 101 94 54 l 199 101 m 467 853 l 476 757 l 158 4 l 71 4 l 400 710 q 408 726 400 710 q 426 767 415 743 q 444 815 436 792 q 454 853 453 839 l 467 853 m 631 324 l 631 282 l 263 282 l 263 324 l 631 324 m 701 101 l 807 101 q 858 34 828 54 q 917 14 889 14 q 922 14 917 14 q 928 14 928 14 l 928 0 l 643 0 l 643 14 l 654 14 q 697 37 678 14 q 701 101 717 60 z "},"ą":{"ha":915,"x_min":-7,"x_max":922,"o":"m 199 101 q 203 37 183 60 q 247 14 222 14 l 258 14 l 258 0 l -7 0 l -7 14 q -1 14 -7 14 q 4 14 4 14 q 64 34 33 14 q 117 101 94 54 l 199 101 m 467 853 l 476 757 l 158 4 l 71 4 l 400 710 q 408 726 400 710 q 426 767 415 743 q 444 815 436 792 q 454 853 453 839 l 467 853 m 467 853 l 849 8 l 739 8 l 443 729 l 467 853 m 631 324 l 631 282 l 263 282 l 263 324 l 631 324 m 685 0 q 628 -37 643 -10 q 614 -99 613 -65 q 643 -164 615 -137 q 710 -191 671 -190 q 783 -157 750 -192 l 792 -165 q 751 -219 779 -200 q 690 -243 724 -239 q 624 -235 656 -247 q 571 -192 592 -222 q 550 -114 550 -162 q 576 -39 549 -74 q 656 14 604 -4 q 699 41 681 22 q 701 101 717 60 l 807 101 q 840 49 822 68 q 879 22 858 29 q 922 14 900 14 l 922 0 q 864 2 896 0 q 799 6 832 4 q 735 6 765 7 q 685 0 706 6 z "},"å":{"ha":921,"x_min":-7,"x_max":928,"o":"m 467 853 l 849 8 l 739 8 l 443 729 l 467 853 m 199 101 q 203 37 183 60 q 247 14 222 14 l 258 14 l 258 0 l -7 0 l -7 14 q -1 14 -7 14 q 4 14 4 14 q 64 34 33 14 q 117 101 94 54 l 199 101 m 467 853 l 476 757 l 158 4 l 71 4 l 400 710 q 408 726 400 710 q 426 767 415 743 q 444 815 436 792 q 454 853 453 839 l 467 853 m 631 324 l 631 282 l 263 282 l 263 324 l 631 324 m 701 101 l 807 101 q 858 34 828 54 q 917 14 889 14 q 922 14 917 14 q 928 14 928 14 l 928 0 l 643 0 l 643 14 l 654 14 q 697 37 678 14 q 701 101 717 60 z "},"ã":{"ha":921,"x_min":-7,"x_max":928,"o":"m 467 853 l 849 8 l 739 8 l 443 729 l 467 853 m 199 101 q 203 37 183 60 q 247 14 222 14 l 258 14 l 258 0 l -7 0 l -7 14 q -1 14 -7 14 q 4 14 4 14 q 64 34 33 14 q 117 101 94 54 l 199 101 m 467 853 l 476 757 l 158 4 l 71 4 l 400 710 q 408 726 400 710 q 426 767 415 743 q 444 815 436 792 q 454 853 453 839 l 467 853 m 631 324 l 631 282 l 263 282 l 263 324 l 631 324 m 701 101 l 807 101 q 858 34 828 54 q 917 14 889 14 q 922 14 917 14 q 928 14 928 14 l 928 0 l 643 0 l 643 14 l 654 14 q 697 37 678 14 q 701 101 717 60 z "},"æ":{"ha":1153,"x_min":-7,"x_max":1111,"o":"m 199 81 q 190 49 189 64 q 202 24 192 33 q 231 14 213 14 l 242 14 l 242 0 l -7 0 l -7 14 q -3 14 -7 14 q 1 14 1 14 q 63 35 32 14 q 113 86 94 57 l 199 81 m 692 833 l 692 0 l 601 0 l 601 779 l 692 833 m 604 69 l 604 0 l 531 0 l 531 14 q 536 14 531 14 q 542 14 542 14 q 583 30 565 14 q 601 69 600 46 l 604 69 m 1042 42 l 1042 0 l 688 0 l 688 42 l 1042 42 m 993 419 l 993 376 l 367 376 l 372 419 l 993 419 m 1042 833 l 1042 789 l 631 789 l 628 751 l 151 4 l 57 4 l 599 781 q 597 809 606 796 q 572 822 589 822 l 568 822 l 568 833 l 1042 833 m 1111 172 l 1044 0 l 878 0 l 913 42 q 1029 78 986 42 q 1096 172 1072 115 l 1111 172 m 993 379 l 993 304 l 979 304 l 979 318 q 963 359 979 342 q 921 376 946 376 l 921 379 l 993 379 m 993 496 l 993 417 l 921 417 l 921 419 q 963 437 946 419 q 979 478 979 454 l 979 496 l 993 496 m 1042 792 l 1042 713 l 1028 713 l 1028 731 q 1010 772 1028 754 q 969 789 993 789 l 969 792 l 1042 792 m 1042 856 l 1042 821 l 896 833 q 981 841 936 833 q 1042 856 1025 849 z "},"b":{"ha":792,"x_min":76,"x_max":729,"o":"m 194 833 l 360 833 q 447 826 397 833 q 542 799 496 819 q 618 736 588 778 q 649 625 649 694 q 626 547 649 583 q 569 487 604 511 q 496 453 535 463 q 616 415 564 446 q 699 336 668 383 q 729 233 729 289 q 701 120 729 165 q 626 49 672 75 q 526 11 581 22 q 421 0 472 0 l 251 0 q 252 10 251 0 q 253 31 253 21 q 253 42 253 42 l 419 42 q 527 62 479 42 q 603 125 575 82 q 631 233 631 168 q 601 341 631 300 q 525 403 572 382 q 421 433 478 425 q 307 440 364 440 l 307 454 q 388 460 344 454 q 467 483 431 465 q 528 534 504 500 q 551 625 551 568 q 500 752 551 713 q 358 792 449 792 l 207 792 q 203 803 207 793 q 197 824 200 814 q 194 833 194 833 m 264 833 l 264 0 l 176 0 l 176 833 l 264 833 m 181 89 l 181 0 l 76 0 l 76 14 q 85 14 76 14 q 93 14 93 14 q 152 36 129 14 q 176 89 175 58 l 181 89 m 181 744 l 176 744 q 152 799 175 778 q 93 819 129 819 q 85 819 93 819 q 76 819 76 819 l 76 833 l 181 833 l 181 744 z "},"c":{"ha":979,"x_min":69,"x_max":925,"o":"m 925 350 l 910 160 q 815 64 874 104 q 683 2 757 24 q 528 -19 610 -19 q 284 35 388 -18 q 125 185 181 88 q 69 417 69 282 q 125 650 69 553 q 284 800 181 747 q 528 853 388 853 q 701 831 614 853 q 853 768 789 808 l 883 572 l 871 572 q 748 756 840 700 q 526 811 656 811 q 337 763 417 811 q 213 627 257 715 q 169 417 169 539 q 213 209 169 297 q 338 73 257 121 q 528 24 418 25 q 716 58 632 24 q 853 164 800 92 q 913 350 906 236 l 925 350 z "},"ć":{"ha":979,"x_min":69,"x_max":925,"o":"m 925 350 l 910 160 q 815 64 874 104 q 683 2 757 24 q 528 -19 610 -19 q 284 35 388 -18 q 125 185 181 88 q 69 417 69 282 q 125 650 69 553 q 284 800 181 747 q 528 853 388 853 q 701 831 614 853 q 853 768 789 808 l 883 572 l 871 572 q 748 756 840 700 q 526 811 656 811 q 337 763 417 811 q 213 627 257 715 q 169 417 169 539 q 213 209 169 297 q 338 73 257 121 q 528 24 418 25 q 716 58 632 24 q 853 164 800 92 q 913 350 906 236 l 925 350 z "},"č":{"ha":979,"x_min":69,"x_max":925,"o":"m 925 350 l 910 160 q 815 64 874 104 q 683 2 757 24 q 528 -19 610 -19 q 284 35 388 -18 q 125 185 181 88 q 69 417 69 282 q 125 650 69 553 q 284 800 181 747 q 528 853 388 853 q 701 831 614 853 q 853 768 789 808 l 883 572 l 871 572 q 748 756 840 700 q 526 811 656 811 q 337 763 417 811 q 213 627 257 715 q 169 417 169 539 q 213 209 169 297 q 338 73 257 121 q 528 24 418 25 q 716 58 632 24 q 853 164 800 92 q 913 350 906 236 l 925 350 z "},"ç":{"ha":979,"x_min":69,"x_max":925,"o":"m 925 350 l 910 160 q 815 64 874 104 q 683 2 757 24 q 528 -19 610 -19 q 284 35 388 -18 q 125 185 181 88 q 69 417 69 282 q 125 650 69 553 q 284 800 181 747 q 528 853 388 853 q 701 831 614 853 q 853 768 789 808 l 883 572 l 871 572 q 748 756 840 700 q 526 811 656 811 q 337 763 417 811 q 213 627 257 715 q 169 417 169 539 q 213 209 169 297 q 338 73 257 121 q 528 24 418 25 q 716 58 632 24 q 853 164 800 92 q 913 350 906 236 l 925 350 z "},"ċ":{"ha":979,"x_min":69,"x_max":925,"o":"m 925 350 l 910 160 q 815 64 874 104 q 683 2 757 24 q 528 -19 610 -19 q 284 35 388 -18 q 125 185 181 88 q 69 417 69 282 q 125 650 69 553 q 284 800 181 747 q 528 853 388 853 q 701 831 614 853 q 853 768 789 808 l 883 572 l 871 572 q 748 756 840 700 q 526 811 656 811 q 337 763 417 811 q 213 627 257 715 q 169 417 169 539 q 213 209 169 297 q 338 73 257 121 q 528 24 418 25 q 716 58 632 24 q 853 164 800 92 q 913 350 906 236 l 925 350 z "},"d":{"ha":1056,"x_min":76,"x_max":986,"o":"m 540 833 q 778 783 678 833 q 932 640 878 733 q 986 417 986 546 q 932 194 986 288 q 778 51 878 101 q 540 0 678 0 l 244 0 l 242 42 q 405 42 339 42 q 506 42 471 42 q 540 42 540 42 q 794 142 701 42 q 886 417 886 243 q 794 691 886 590 q 540 792 701 792 q 504 792 540 792 q 399 792 468 792 q 228 792 329 792 l 228 833 l 540 833 m 264 833 l 264 0 l 174 0 l 174 833 l 264 833 m 176 90 l 176 0 l 76 0 l 76 14 q 85 14 76 14 q 94 14 94 14 q 150 37 128 14 q 174 90 172 60 l 176 90 m 176 743 l 174 743 q 149 798 172 776 q 93 819 126 819 q 85 819 93 819 q 76 819 76 819 l 76 833 l 176 833 l 176 743 z "},"ð":{"ha":1056,"x_min":76,"x_max":986,"o":"m 540 833 q 778 783 678 833 q 932 640 878 733 q 986 417 986 546 q 932 194 986 288 q 778 51 878 101 q 540 0 678 0 l 244 0 l 242 42 q 405 42 339 42 q 506 42 471 42 q 540 42 540 42 q 794 142 701 42 q 886 417 886 243 q 794 691 886 590 q 540 792 701 792 q 504 792 540 792 q 399 792 468 792 q 228 792 329 792 l 228 833 l 540 833 m 264 833 l 264 0 l 174 0 l 174 833 l 264 833 m 176 90 l 176 0 l 76 0 l 76 14 q 85 14 76 14 q 94 14 94 14 q 150 37 128 14 q 174 90 172 60 l 176 90 m 176 743 l 174 743 q 149 798 172 776 q 93 819 126 819 q 85 819 93 819 q 76 819 76 819 l 76 833 l 176 833 l 176 743 m 86 438 l 482 438 l 482 396 l 86 396 l 86 438 z "},"ď":{"ha":1056,"x_min":76,"x_max":986,"o":"m 540 833 q 778 783 678 833 q 932 640 878 733 q 986 417 986 546 q 932 194 986 288 q 778 51 878 101 q 540 0 678 0 l 244 0 l 242 42 q 405 42 339 42 q 506 42 471 42 q 540 42 540 42 q 794 142 701 42 q 886 417 886 243 q 794 691 886 590 q 540 792 701 792 q 504 792 540 792 q 399 792 468 792 q 228 792 329 792 l 228 833 l 540 833 m 264 833 l 264 0 l 174 0 l 174 833 l 264 833 m 176 90 l 176 0 l 76 0 l 76 14 q 85 14 76 14 q 94 14 94 14 q 150 37 128 14 q 174 90 172 60 l 176 90 m 176 743 l 174 743 q 149 798 172 776 q 93 819 126 819 q 85 819 93 819 q 76 819 76 819 l 76 833 l 176 833 l 176 743 z "},"đ":{"ha":1056,"x_min":76,"x_max":986,"o":"m 540 833 q 778 783 678 833 q 932 640 878 733 q 986 417 986 546 q 932 194 986 288 q 778 51 878 101 q 540 0 678 0 l 244 0 l 242 42 q 405 42 339 42 q 506 42 471 42 q 540 42 540 42 q 794 142 701 42 q 886 417 886 243 q 794 691 886 590 q 540 792 701 792 q 504 792 540 792 q 399 792 468 792 q 228 792 329 792 l 228 833 l 540 833 m 264 833 l 264 0 l 174 0 l 174 833 l 264 833 m 176 90 l 176 0 l 76 0 l 76 14 q 85 14 76 14 q 94 14 94 14 q 150 37 128 14 q 174 90 172 60 l 176 90 m 176 743 l 174 743 q 149 798 172 776 q 93 819 126 819 q 85 819 93 819 q 76 819 76 819 l 76 833 l 176 833 l 176 743 z "},"e":{"ha":758,"x_min":76,"x_max":717,"o":"m 265 833 l 265 0 l 176 0 l 176 833 l 265 833 m 639 43 l 636 0 l 263 0 l 263 43 l 639 43 m 574 438 l 574 396 l 263 396 l 263 438 l 574 438 m 638 833 l 638 790 l 263 790 l 263 833 l 638 833 m 717 199 l 640 0 l 429 0 l 476 43 q 588 63 546 43 q 657 119 631 83 q 703 199 683 154 l 717 199 m 574 399 l 574 319 l 558 319 l 558 338 q 544 378 558 361 q 501 396 531 396 l 501 399 l 574 399 m 574 514 l 574 435 l 501 435 l 501 438 q 544 455 531 438 q 558 496 558 472 l 558 514 l 574 514 m 638 794 l 638 699 l 622 699 l 622 719 q 603 769 622 749 q 553 790 585 790 l 553 794 l 638 794 m 638 856 l 638 819 l 479 833 q 571 841 522 833 q 638 856 619 849 m 179 89 l 197 0 l 76 0 l 76 14 q 86 14 76 14 q 96 14 96 14 q 153 36 131 14 q 176 89 175 58 l 179 89 m 179 746 l 176 746 q 153 799 175 778 q 96 819 131 819 q 86 819 96 819 q 76 819 76 819 l 76 833 l 197 833 l 179 746 z "},"é":{"ha":758,"x_min":76,"x_max":717,"o":"m 265 833 l 265 0 l 176 0 l 176 833 l 265 833 m 639 43 l 636 0 l 263 0 l 263 43 l 639 43 m 574 438 l 574 396 l 263 396 l 263 438 l 574 438 m 638 833 l 638 790 l 263 790 l 263 833 l 638 833 m 717 199 l 640 0 l 429 0 l 476 43 q 588 63 546 43 q 657 119 631 83 q 703 199 683 154 l 717 199 m 574 399 l 574 319 l 558 319 l 558 338 q 544 378 558 361 q 501 396 531 396 l 501 399 l 574 399 m 574 514 l 574 435 l 501 435 l 501 438 q 544 455 531 438 q 558 496 558 472 l 558 514 l 574 514 m 638 794 l 638 699 l 622 699 l 622 719 q 603 769 622 749 q 553 790 585 790 l 553 794 l 638 794 m 638 856 l 638 819 l 479 833 q 571 841 522 833 q 638 856 619 849 m 179 89 l 197 0 l 76 0 l 76 14 q 86 14 76 14 q 96 14 96 14 q 153 36 131 14 q 176 89 175 58 l 179 89 m 179 746 l 176 746 q 153 799 175 778 q 96 819 131 819 q 86 819 96 819 q 76 819 76 819 l 76 833 l 197 833 l 179 746 z "},"ě":{"ha":758,"x_min":76,"x_max":717,"o":"m 265 833 l 265 0 l 176 0 l 176 833 l 265 833 m 639 43 l 636 0 l 263 0 l 263 43 l 639 43 m 574 438 l 574 396 l 263 396 l 263 438 l 574 438 m 638 833 l 638 790 l 263 790 l 263 833 l 638 833 m 717 199 l 640 0 l 429 0 l 476 43 q 588 63 546 43 q 657 119 631 83 q 703 199 683 154 l 717 199 m 574 399 l 574 319 l 558 319 l 558 338 q 544 378 558 361 q 501 396 531 396 l 501 399 l 574 399 m 574 514 l 574 435 l 501 435 l 501 438 q 544 455 531 438 q 558 496 558 472 l 558 514 l 574 514 m 638 794 l 638 699 l 622 699 l 622 719 q 603 769 622 749 q 553 790 585 790 l 553 794 l 638 794 m 638 856 l 638 819 l 479 833 q 571 841 522 833 q 638 856 619 849 m 179 89 l 197 0 l 76 0 l 76 14 q 86 14 76 14 q 96 14 96 14 q 153 36 131 14 q 176 89 175 58 l 179 89 m 179 746 l 176 746 q 153 799 175 778 q 96 819 131 819 q 86 819 96 819 q 76 819 76 819 l 76 833 l 197 833 l 179 746 z "},"ê":{"ha":758,"x_min":76,"x_max":717,"o":"m 265 833 l 265 0 l 176 0 l 176 833 l 265 833 m 639 43 l 636 0 l 263 0 l 263 43 l 639 43 m 574 438 l 574 396 l 263 396 l 263 438 l 574 438 m 638 833 l 638 790 l 263 790 l 263 833 l 638 833 m 717 199 l 640 0 l 429 0 l 476 43 q 588 63 546 43 q 657 119 631 83 q 703 199 683 154 l 717 199 m 574 399 l 574 319 l 558 319 l 558 338 q 544 378 558 361 q 501 396 531 396 l 501 399 l 574 399 m 574 514 l 574 435 l 501 435 l 501 438 q 544 455 531 438 q 558 496 558 472 l 558 514 l 574 514 m 638 794 l 638 699 l 622 699 l 622 719 q 603 769 622 749 q 553 790 585 790 l 553 794 l 638 794 m 638 856 l 638 819 l 479 833 q 571 841 522 833 q 638 856 619 849 m 179 89 l 197 0 l 76 0 l 76 14 q 86 14 76 14 q 96 14 96 14 q 153 36 131 14 q 176 89 175 58 l 179 89 m 179 746 l 176 746 q 153 799 175 778 q 96 819 131 819 q 86 819 96 819 q 76 819 76 819 l 76 833 l 197 833 l 179 746 z "},"ë":{"ha":758,"x_min":76,"x_max":717,"o":"m 265 833 l 265 0 l 176 0 l 176 833 l 265 833 m 639 43 l 636 0 l 263 0 l 263 43 l 639 43 m 574 438 l 574 396 l 263 396 l 263 438 l 574 438 m 638 833 l 638 790 l 263 790 l 263 833 l 638 833 m 717 199 l 640 0 l 429 0 l 476 43 q 588 63 546 43 q 657 119 631 83 q 703 199 683 154 l 717 199 m 574 399 l 574 319 l 558 319 l 558 338 q 544 378 558 361 q 501 396 531 396 l 501 399 l 574 399 m 574 514 l 574 435 l 501 435 l 501 438 q 544 455 531 438 q 558 496 558 472 l 558 514 l 574 514 m 638 794 l 638 699 l 622 699 l 622 719 q 603 769 622 749 q 553 790 585 790 l 553 794 l 638 794 m 638 856 l 638 819 l 479 833 q 571 841 522 833 q 638 856 619 849 m 179 89 l 197 0 l 76 0 l 76 14 q 86 14 76 14 q 96 14 96 14 q 153 36 131 14 q 176 89 175 58 l 179 89 m 179 746 l 176 746 q 153 799 175 778 q 96 819 131 819 q 86 819 96 819 q 76 819 76 819 l 76 833 l 197 833 l 179 746 z "},"ė":{"ha":758,"x_min":76,"x_max":717,"o":"m 265 833 l 265 0 l 176 0 l 176 833 l 265 833 m 639 43 l 636 0 l 263 0 l 263 43 l 639 43 m 574 438 l 574 396 l 263 396 l 263 438 l 574 438 m 638 833 l 638 790 l 263 790 l 263 833 l 638 833 m 717 199 l 640 0 l 429 0 l 476 43 q 588 63 546 43 q 657 119 631 83 q 703 199 683 154 l 717 199 m 574 399 l 574 319 l 558 319 l 558 338 q 544 378 558 361 q 501 396 531 396 l 501 399 l 574 399 m 574 514 l 574 435 l 501 435 l 501 438 q 544 455 531 438 q 558 496 558 472 l 558 514 l 574 514 m 638 794 l 638 699 l 622 699 l 622 719 q 603 769 622 749 q 553 790 585 790 l 553 794 l 638 794 m 638 856 l 638 819 l 479 833 q 571 841 522 833 q 638 856 619 849 m 179 89 l 197 0 l 76 0 l 76 14 q 86 14 76 14 q 96 14 96 14 q 153 36 131 14 q 176 89 175 58 l 179 89 m 179 746 l 176 746 q 153 799 175 778 q 96 819 131 819 q 86 819 96 819 q 76 819 76 819 l 76 833 l 197 833 l 179 746 z "},"è":{"ha":758,"x_min":76,"x_max":717,"o":"m 265 833 l 265 0 l 176 0 l 176 833 l 265 833 m 639 43 l 636 0 l 263 0 l 263 43 l 639 43 m 574 438 l 574 396 l 263 396 l 263 438 l 574 438 m 638 833 l 638 790 l 263 790 l 263 833 l 638 833 m 717 199 l 640 0 l 429 0 l 476 43 q 588 63 546 43 q 657 119 631 83 q 703 199 683 154 l 717 199 m 574 399 l 574 319 l 558 319 l 558 338 q 544 378 558 361 q 501 396 531 396 l 501 399 l 574 399 m 574 514 l 574 435 l 501 435 l 501 438 q 544 455 531 438 q 558 496 558 472 l 558 514 l 574 514 m 638 794 l 638 699 l 622 699 l 622 719 q 603 769 622 749 q 553 790 585 790 l 553 794 l 638 794 m 638 856 l 638 819 l 479 833 q 571 841 522 833 q 638 856 619 849 m 179 89 l 197 0 l 76 0 l 76 14 q 86 14 76 14 q 96 14 96 14 q 153 36 131 14 q 176 89 175 58 l 179 89 m 179 746 l 176 746 q 153 799 175 778 q 96 819 131 819 q 86 819 96 819 q 76 819 76 819 l 76 833 l 197 833 l 179 746 z "},"ē":{"ha":758,"x_min":76,"x_max":717,"o":"m 265 833 l 265 0 l 176 0 l 176 833 l 265 833 m 639 43 l 636 0 l 263 0 l 263 43 l 639 43 m 574 438 l 574 396 l 263 396 l 263 438 l 574 438 m 638 833 l 638 790 l 263 790 l 263 833 l 638 833 m 717 199 l 640 0 l 429 0 l 476 43 q 588 63 546 43 q 657 119 631 83 q 703 199 683 154 l 717 199 m 574 399 l 574 319 l 558 319 l 558 338 q 544 378 558 361 q 501 396 531 396 l 501 399 l 574 399 m 574 514 l 574 435 l 501 435 l 501 438 q 544 455 531 438 q 558 496 558 472 l 558 514 l 574 514 m 638 794 l 638 699 l 622 699 l 622 719 q 603 769 622 749 q 553 790 585 790 l 553 794 l 638 794 m 638 856 l 638 819 l 479 833 q 571 841 522 833 q 638 856 619 849 m 179 89 l 197 0 l 76 0 l 76 14 q 86 14 76 14 q 96 14 96 14 q 153 36 131 14 q 176 89 175 58 l 179 89 m 179 746 l 176 746 q 153 799 175 778 q 96 819 131 819 q 86 819 96 819 q 76 819 76 819 l 76 833 l 197 833 l 179 746 z "},"ę":{"ha":758,"x_min":76,"x_max":717,"o":"m 265 833 l 265 0 l 176 0 l 176 833 l 265 833 m 639 43 l 636 0 l 263 0 l 263 43 l 639 43 m 574 438 l 574 396 l 263 396 l 263 438 l 574 438 m 638 833 l 638 790 l 263 790 l 263 833 l 638 833 m 717 199 l 640 0 l 429 0 l 476 43 q 588 63 546 43 q 657 119 631 83 q 703 199 683 154 l 717 199 m 574 399 l 574 319 l 558 319 l 558 338 q 544 378 558 361 q 501 396 531 396 l 501 399 l 574 399 m 574 514 l 574 435 l 501 435 l 501 438 q 544 455 531 438 q 558 496 558 472 l 558 514 l 574 514 m 638 794 l 638 699 l 622 699 l 622 719 q 603 769 622 749 q 553 790 585 790 l 553 794 l 638 794 m 638 856 l 638 819 l 479 833 q 571 841 522 833 q 638 856 619 849 m 179 89 l 197 0 l 76 0 l 76 14 q 86 14 76 14 q 96 14 96 14 q 153 36 131 14 q 176 89 175 58 l 179 89 m 179 746 l 176 746 q 153 799 175 778 q 96 819 131 819 q 86 819 96 819 q 76 819 76 819 l 76 833 l 197 833 l 179 746 z "},"f":{"ha":726,"x_min":76,"x_max":643,"o":"m 265 833 l 265 0 l 178 0 l 178 833 l 265 833 m 578 438 l 578 396 l 263 396 l 263 438 l 578 438 m 643 833 l 643 790 l 263 790 l 263 833 l 643 833 m 578 399 l 578 319 l 563 319 l 563 338 q 549 378 563 361 q 506 396 536 396 l 506 399 l 578 399 m 578 514 l 578 435 l 506 435 l 506 438 q 549 455 536 438 q 563 496 563 472 l 563 514 l 578 514 m 643 794 l 643 699 l 628 699 l 628 719 q 609 769 628 749 q 558 790 590 790 l 558 794 l 643 794 m 643 856 l 643 819 l 483 833 q 544 837 513 833 q 603 846 576 840 q 643 856 631 851 m 181 89 l 199 0 l 76 0 l 76 14 q 86 14 76 14 q 96 14 96 14 q 153 36 131 14 q 178 89 176 58 l 181 89 m 181 746 l 178 746 q 153 799 176 778 q 96 819 131 819 q 86 819 96 819 q 76 819 76 819 l 76 833 l 199 833 l 181 746 m 263 89 l 265 89 q 290 36 267 58 q 347 14 313 14 q 357 14 347 14 q 367 14 367 14 l 367 0 l 244 0 l 263 89 z "},"g":{"ha":1031,"x_min":69,"x_max":1003,"o":"m 525 853 q 645 844 589 853 q 752 816 701 835 q 849 768 803 797 l 879 572 l 867 572 q 803 707 847 654 q 690 785 760 760 q 524 811 621 811 q 338 763 418 811 q 214 627 258 715 q 169 417 169 539 q 214 207 169 296 q 339 70 258 118 q 525 22 419 22 q 636 35 583 22 q 738 74 689 47 q 831 143 788 101 l 832 328 q 816 368 833 354 q 768 382 799 382 l 749 382 l 749 396 l 1003 396 l 1003 382 l 983 382 q 921 326 921 382 l 921 160 q 833 78 889 119 q 701 8 778 36 q 525 -19 624 -19 q 285 35 388 -18 q 126 185 183 88 q 69 417 69 282 q 126 650 69 553 q 286 800 183 747 q 525 853 389 853 z "},"ğ":{"ha":1031,"x_min":69,"x_max":1003,"o":"m 525 853 q 645 844 589 853 q 752 816 701 835 q 849 768 803 797 l 879 572 l 867 572 q 803 707 847 654 q 690 785 760 760 q 524 811 621 811 q 338 763 418 811 q 214 627 258 715 q 169 417 169 539 q 214 207 169 296 q 339 70 258 118 q 525 22 419 22 q 636 35 583 22 q 738 74 689 47 q 831 143 788 101 l 832 328 q 816 368 833 354 q 768 382 799 382 l 749 382 l 749 396 l 1003 396 l 1003 382 l 983 382 q 921 326 921 382 l 921 160 q 833 78 889 119 q 701 8 778 36 q 525 -19 624 -19 q 285 35 388 -18 q 126 185 183 88 q 69 417 69 282 q 126 650 69 553 q 286 800 183 747 q 525 853 389 853 z "},"ģ":{"ha":1031,"x_min":69,"x_max":1003,"o":"m 483 -112 q 508 -91 490 -96 q 543 -93 525 -86 q 571 -124 561 -100 q 582 -185 585 -156 q 564 -237 579 -214 q 526 -274 549 -261 q 475 -289 503 -287 l 472 -279 q 516 -249 506 -268 q 523 -209 526 -229 q 510 -178 519 -189 q 486 -149 499 -164 q 483 -112 474 -133 m 525 853 q 645 844 589 853 q 752 816 701 835 q 849 768 803 797 l 879 572 l 867 572 q 803 707 847 654 q 690 785 760 760 q 524 811 621 811 q 338 763 418 811 q 214 627 258 715 q 169 417 169 539 q 214 207 169 296 q 339 70 258 118 q 525 22 419 22 q 636 35 583 22 q 738 74 689 47 q 831 143 788 101 l 832 328 q 816 368 833 354 q 768 382 799 382 l 749 382 l 749 396 l 1003 396 l 1003 382 l 983 382 q 921 326 921 382 l 921 160 q 833 78 889 119 q 701 8 778 36 q 525 -19 624 -19 q 285 35 388 -18 q 126 185 183 88 q 69 417 69 282 q 126 650 69 553 q 286 800 183 747 q 525 853 389 853 z "},"ġ":{"ha":1031,"x_min":69,"x_max":1003,"o":"m 525 853 q 645 844 589 853 q 752 816 701 835 q 849 768 803 797 l 879 572 l 867 572 q 803 707 847 654 q 690 785 760 760 q 524 811 621 811 q 338 763 418 811 q 214 627 258 715 q 169 417 169 539 q 214 207 169 296 q 339 70 258 118 q 525 22 419 22 q 636 35 583 22 q 738 74 689 47 q 831 143 788 101 l 832 328 q 816 368 833 354 q 768 382 799 382 l 749 382 l 749 396 l 1003 396 l 1003 382 l 983 382 q 921 326 921 382 l 921 160 q 833 78 889 119 q 701 8 778 36 q 525 -19 624 -19 q 285 35 388 -18 q 126 185 183 88 q 69 417 69 282 q 126 650 69 553 q 286 800 183 747 q 525 853 389 853 z "},"h":{"ha":1036,"x_min":76,"x_max":961,"o":"m 864 833 l 864 0 l 775 0 l 775 833 l 864 833 m 263 833 l 263 0 l 174 0 l 174 833 l 263 833 m 789 432 l 789 390 l 247 390 l 247 432 l 789 432 m 178 89 l 178 0 l 76 0 l 76 14 q 85 14 76 14 q 93 14 93 14 q 149 36 126 14 q 174 89 172 58 l 178 89 m 258 89 l 263 89 q 286 36 263 58 q 343 14 310 14 q 351 14 343 14 q 360 14 360 14 l 360 0 l 258 0 l 258 89 m 258 744 l 258 833 l 360 833 l 360 819 q 351 819 360 819 q 343 819 343 819 q 286 798 310 819 q 263 744 263 776 l 258 744 m 178 744 l 174 744 q 149 798 172 776 q 93 819 126 819 q 85 819 93 819 q 76 819 76 819 l 76 833 l 178 833 l 178 744 m 779 89 l 779 0 l 678 0 l 678 14 q 686 14 678 14 q 694 14 694 14 q 751 36 728 14 q 775 89 774 58 l 779 89 m 860 89 l 864 89 q 888 36 865 58 q 944 14 911 14 q 953 14 944 14 q 961 14 961 14 l 961 0 l 860 0 l 860 89 m 860 744 l 860 833 l 961 833 l 961 819 q 953 819 961 819 q 944 819 944 819 q 888 798 911 819 q 864 744 865 776 l 860 744 m 779 744 l 775 744 q 751 798 774 776 q 694 819 728 819 q 686 819 694 819 q 678 819 678 819 l 678 833 l 779 833 l 779 744 z "},"ħ":{"ha":1039,"x_min":76,"x_max":964,"o":"m 964 632 l 964 590 l 82 590 l 82 632 l 964 632 m 864 833 l 864 0 l 775 0 l 775 833 l 864 833 m 263 833 l 263 0 l 174 0 l 174 833 l 263 833 m 789 432 l 789 390 l 247 390 l 247 432 l 789 432 m 178 89 l 178 0 l 76 0 l 76 14 q 85 14 76 14 q 93 14 93 14 q 149 36 126 14 q 174 89 172 58 l 178 89 m 258 89 l 263 89 q 286 36 263 58 q 343 14 310 14 q 351 14 343 14 q 360 14 360 14 l 360 0 l 258 0 l 258 89 m 258 744 l 258 833 l 360 833 l 360 819 q 351 819 360 819 q 343 819 343 819 q 286 798 310 819 q 263 744 263 776 l 258 744 m 178 744 l 174 744 q 149 798 172 776 q 93 819 126 819 q 85 819 93 819 q 76 819 76 819 l 76 833 l 178 833 l 178 744 m 779 89 l 779 0 l 678 0 l 678 14 q 686 14 678 14 q 694 14 694 14 q 751 36 728 14 q 775 89 774 58 l 779 89 m 860 89 l 864 89 q 888 36 865 58 q 944 14 911 14 q 953 14 944 14 q 961 14 961 14 l 961 0 l 860 0 l 860 89 m 860 744 l 860 833 l 961 833 l 961 819 q 953 819 961 819 q 944 819 944 819 q 888 798 911 819 q 864 744 865 776 l 860 744 m 779 744 l 775 744 q 751 798 774 776 q 694 819 728 819 q 686 819 694 819 q 678 819 678 819 l 678 833 l 779 833 l 779 744 z "},"i":{"ha":467,"x_min":76,"x_max":392,"o":"m 278 833 l 278 0 l 190 0 l 190 833 l 278 833 m 194 89 l 194 0 l 76 0 l 76 14 q 86 14 76 14 q 96 14 96 14 q 162 36 135 14 q 190 89 189 58 l 194 89 m 274 89 l 278 89 q 306 36 279 58 q 372 14 333 14 q 381 14 372 14 q 390 14 390 14 l 392 0 l 274 0 l 274 89 m 274 744 l 274 833 l 392 833 l 390 819 q 381 819 390 819 q 372 819 372 819 q 306 798 333 819 q 278 744 279 776 l 274 744 m 194 744 l 190 744 q 162 798 189 776 q 96 819 135 819 q 85 819 94 819 q 76 819 76 819 l 76 833 l 194 833 l 194 744 z "},"ı":{"ha":425,"x_min":76,"x_max":350,"o":"m 257 833 l 257 0 l 168 0 l 168 833 l 257 833 m 172 89 l 172 0 l 76 0 l 76 14 q 84 14 76 14 q 92 14 92 14 q 146 36 124 14 q 168 89 168 58 l 172 89 m 254 89 l 257 89 q 281 36 258 58 q 335 14 303 14 q 342 14 335 14 q 349 14 349 14 l 350 0 l 254 0 l 254 89 m 254 744 l 254 833 l 350 833 l 349 819 q 342 819 349 819 q 335 819 335 819 q 281 798 303 819 q 257 744 258 776 l 254 744 m 172 744 l 168 744 q 146 798 168 776 q 92 819 124 819 q 84 819 92 819 q 76 819 76 819 l 76 833 l 172 833 l 172 744 z "},"í":{"ha":425,"x_min":76,"x_max":438,"o":"m 257 833 l 257 0 l 168 0 l 168 833 l 257 833 m 172 89 l 172 0 l 76 0 l 76 14 q 84 14 76 14 q 92 14 92 14 q 146 36 124 14 q 168 89 168 58 l 172 89 m 254 89 l 257 89 q 281 36 258 58 q 335 14 303 14 q 342 14 335 14 q 349 14 349 14 l 350 0 l 254 0 l 254 89 m 254 744 l 254 833 l 350 833 l 349 819 q 342 819 349 819 q 335 819 335 819 q 281 798 303 819 q 257 744 258 776 l 254 744 m 172 744 l 168 744 q 146 798 168 776 q 92 819 124 819 q 84 819 92 819 q 76 819 76 819 l 76 833 l 172 833 l 172 744 z "},"î":{"ha":425,"x_min":58,"x_max":378,"o":"m 257 833 l 257 0 l 168 0 l 168 833 l 257 833 m 172 89 l 172 0 l 76 0 l 76 14 q 84 14 76 14 q 92 14 92 14 q 146 36 124 14 q 168 89 168 58 l 172 89 m 254 89 l 257 89 q 281 36 258 58 q 335 14 303 14 q 342 14 335 14 q 349 14 349 14 l 350 0 l 254 0 l 254 89 m 254 744 l 254 833 l 350 833 l 349 819 q 342 819 349 819 q 335 819 335 819 q 281 798 303 819 q 257 744 258 776 l 254 744 m 172 744 l 168 744 q 146 798 168 776 q 92 819 124 819 q 84 819 92 819 q 76 819 76 819 l 76 833 l 172 833 l 172 744 z "},"ï":{"ha":425,"x_min":28,"x_max":399,"o":"m 257 833 l 257 0 l 168 0 l 168 833 l 257 833 m 172 89 l 172 0 l 76 0 l 76 14 q 84 14 76 14 q 92 14 92 14 q 146 36 124 14 q 168 89 168 58 l 172 89 m 254 89 l 257 89 q 281 36 258 58 q 335 14 303 14 q 342 14 335 14 q 349 14 349 14 l 350 0 l 254 0 l 254 89 m 254 744 l 254 833 l 350 833 l 349 819 q 342 819 349 819 q 335 819 335 819 q 281 798 303 819 q 257 744 258 776 l 254 744 m 172 744 l 168 744 q 146 798 168 776 q 92 819 124 819 q 84 819 92 819 q 76 819 76 819 l 76 833 l 172 833 l 172 744 z "},"ì":{"ha":425,"x_min":-10,"x_max":350,"o":"m 257 833 l 257 0 l 168 0 l 168 833 l 257 833 m 172 89 l 172 0 l 76 0 l 76 14 q 84 14 76 14 q 92 14 92 14 q 146 36 124 14 q 168 89 168 58 l 172 89 m 254 89 l 257 89 q 281 36 258 58 q 335 14 303 14 q 342 14 335 14 q 349 14 349 14 l 350 0 l 254 0 l 254 89 m 254 744 l 254 833 l 350 833 l 349 819 q 342 819 349 819 q 335 819 335 819 q 281 798 303 819 q 257 744 258 776 l 254 744 m 172 744 l 168 744 q 146 798 168 776 q 92 819 124 819 q 84 819 92 819 q 76 819 76 819 l 76 833 l 172 833 l 172 744 z "},"ĳ":{"ha":896,"x_min":76,"x_max":847,"o":"m 278 833 l 278 0 l 190 0 l 190 833 l 278 833 m 194 89 l 194 0 l 76 0 l 76 14 q 86 14 76 14 q 96 14 96 14 q 162 36 135 14 q 190 89 189 58 l 194 89 m 274 89 l 278 89 q 306 36 279 58 q 372 14 333 14 q 381 14 372 14 q 390 14 390 14 l 392 0 l 274 0 l 274 89 m 274 744 l 274 833 l 392 833 l 390 819 q 381 819 390 819 q 372 819 372 819 q 306 798 333 819 q 278 744 279 776 l 274 744 m 194 744 l 190 744 q 162 798 189 776 q 96 819 135 819 q 85 819 94 819 q 76 819 76 819 l 76 833 l 194 833 l 194 744 m 739 833 l 739 0 q 719 -95 739 -50 q 663 -174 699 -140 q 582 -228 628 -208 q 485 -247 536 -247 l 485 -233 q 567 -183 529 -219 q 627 -99 604 -147 q 650 0 650 -51 l 650 833 l 739 833 m 656 833 l 656 744 l 651 744 q 624 798 650 776 q 560 819 597 819 l 543 819 l 542 833 l 656 833 m 847 833 l 847 819 l 829 819 q 767 798 793 819 q 739 744 740 776 l 735 744 l 735 833 l 847 833 z "},"ī":{"ha":499,"x_min":76,"x_max":424,"o":"m 290 833 l 290 0 l 201 0 l 201 833 l 290 833 m 206 89 l 206 0 l 110 0 l 110 14 q 117 14 110 14 q 125 14 125 14 q 179 36 157 14 q 201 89 201 58 l 206 89 m 288 89 l 290 89 q 314 36 292 58 q 368 14 336 14 q 375 14 368 14 q 382 14 382 14 l 383 0 l 288 0 l 288 89 m 288 744 l 288 833 l 383 833 l 382 819 q 375 819 382 819 q 368 819 368 819 q 314 798 336 819 q 290 744 292 776 l 288 744 m 206 744 l 201 744 q 179 798 201 776 q 125 819 157 819 q 117 819 125 819 q 110 819 110 819 l 110 833 l 206 833 l 206 744 z "},"į":{"ha":428,"x_min":76,"x_max":353,"o":"m 260 833 l 260 0 l 171 0 l 171 833 l 260 833 m 175 89 l 175 0 l 79 0 l 79 14 q 87 14 79 14 q 94 14 94 14 q 149 36 126 14 q 171 89 171 58 l 175 89 m 257 89 l 260 89 q 283 36 261 58 q 336 14 306 14 q 344 14 338 14 q 351 14 351 14 l 353 0 l 257 0 l 257 89 m 257 744 l 257 833 l 353 833 l 351 819 q 344 819 351 819 q 336 819 338 819 q 283 798 306 819 q 260 744 261 776 l 257 744 m 175 744 l 171 744 q 149 798 171 776 q 94 819 126 819 q 87 819 94 819 q 79 819 79 819 l 79 833 l 175 833 l 175 744 m 231 4 l 244 0 q 163 -41 186 -14 q 140 -108 139 -68 q 169 -174 142 -147 q 237 -201 197 -200 q 310 -167 276 -201 l 318 -175 q 278 -229 306 -210 q 216 -253 250 -249 q 150 -244 182 -257 q 97 -202 118 -232 q 76 -124 76 -172 q 97 -58 76 -86 q 153 -12 118 -29 q 231 4 189 4 z "},"j":{"ha":429,"x_min":18,"x_max":381,"o":"m 272 833 l 272 0 q 252 -95 272 -50 q 197 -174 232 -140 q 115 -228 161 -208 q 18 -247 69 -247 l 18 -233 q 100 -183 63 -219 q 160 -99 138 -147 q 183 0 183 -51 l 183 833 l 272 833 m 189 833 l 189 744 l 185 744 q 157 798 183 776 q 93 819 131 819 l 76 819 l 75 833 l 189 833 m 381 833 l 381 819 l 363 819 q 300 798 326 819 q 272 744 274 776 l 268 744 l 268 833 l 381 833 z "},"k":{"ha":867,"x_min":76,"x_max":874,"o":"m 390 465 l 753 71 q 803 29 776 43 q 874 14 829 15 l 874 0 l 822 0 q 781 2 806 0 q 728 12 757 4 q 672 35 700 19 q 618 79 643 51 q 597 103 618 79 q 540 166 575 128 q 466 247 506 204 q 392 327 426 289 q 335 390 357 365 q 313 414 313 414 l 390 465 m 761 824 l 378 414 l 313 414 l 661 824 l 761 824 m 851 833 l 851 819 l 846 819 q 766 806 803 819 q 706 764 729 792 l 611 765 q 616 802 626 785 q 581 819 606 819 l 568 819 l 568 833 l 846 833 l 851 833 m 264 833 l 264 0 l 175 0 l 175 833 l 264 833 m 178 89 l 178 0 l 76 0 l 76 14 q 85 14 76 14 q 93 14 93 14 q 150 36 126 14 q 175 89 174 58 l 178 89 m 260 89 l 264 89 q 288 36 264 58 q 346 14 311 14 q 353 14 346 14 q 361 14 361 14 l 361 0 l 260 0 l 260 89 m 260 744 l 260 833 l 361 833 l 361 819 q 353 819 361 819 q 344 819 346 819 q 288 798 311 819 q 264 744 264 776 l 260 744 m 178 744 l 175 744 q 150 798 174 776 q 93 819 126 819 q 85 819 93 819 q 76 819 76 819 l 76 833 l 178 833 l 178 744 z "},"ķ":{"ha":867,"x_min":76,"x_max":874,"o":"m 390 465 l 753 71 q 803 29 776 43 q 874 14 829 15 l 874 0 l 822 0 q 781 2 806 0 q 728 12 757 4 q 672 35 700 19 q 618 79 643 51 q 597 103 618 79 q 540 166 575 128 q 466 247 506 204 q 392 327 426 289 q 335 390 357 365 q 313 414 313 414 l 390 465 m 761 824 l 378 414 l 313 414 l 661 824 l 761 824 m 851 833 l 851 819 l 846 819 q 766 806 803 819 q 706 764 729 792 l 611 765 q 616 802 626 785 q 581 819 606 819 l 568 819 l 568 833 l 846 833 l 851 833 m 264 833 l 264 0 l 175 0 l 175 833 l 264 833 m 178 89 l 178 0 l 76 0 l 76 14 q 85 14 76 14 q 93 14 93 14 q 150 36 126 14 q 175 89 174 58 l 178 89 m 260 89 l 264 89 q 288 36 264 58 q 346 14 311 14 q 353 14 346 14 q 361 14 361 14 l 361 0 l 260 0 l 260 89 m 260 744 l 260 833 l 361 833 l 361 819 q 353 819 361 819 q 344 819 346 819 q 288 798 311 819 q 264 744 264 776 l 260 744 m 178 744 l 175 744 q 150 798 174 776 q 93 819 126 819 q 85 819 93 819 q 76 819 76 819 l 76 833 l 178 833 l 178 744 m 460 -128 q 473 -99 460 -108 q 503 -89 486 -89 q 548 -119 535 -89 q 561 -175 561 -149 q 529 -254 561 -222 q 454 -289 497 -286 l 451 -279 q 492 -253 481 -269 q 504 -219 504 -236 q 500 -196 504 -207 q 489 -178 496 -185 q 470 -155 481 -167 q 460 -128 460 -143 z "},"l":{"ha":744,"x_min":76,"x_max":717,"o":"m 265 833 l 265 0 l 176 0 l 176 833 l 265 833 m 639 43 l 636 0 l 263 0 l 263 43 l 639 43 m 717 199 l 640 0 l 429 0 l 476 43 q 588 63 546 43 q 657 119 631 83 q 703 199 683 154 l 717 199 m 179 89 l 197 0 l 76 0 l 76 14 q 86 14 76 14 q 96 14 96 14 q 153 36 131 14 q 176 89 175 58 l 179 89 m 261 744 l 261 833 l 364 833 l 364 819 q 356 819 364 819 q 347 819 347 819 q 290 798 314 819 q 265 744 265 776 l 261 744 m 179 744 l 176 744 q 151 798 175 776 q 93 819 128 819 q 85 819 93 819 q 76 819 76 819 l 76 833 l 179 833 l 179 744 z "},"ĺ":{"ha":744,"x_min":76,"x_max":717,"o":"m 265 833 l 265 0 l 176 0 l 176 833 l 265 833 m 639 43 l 636 0 l 263 0 l 263 43 l 639 43 m 717 199 l 640 0 l 429 0 l 476 43 q 588 63 546 43 q 657 119 631 83 q 703 199 683 154 l 717 199 m 179 89 l 197 0 l 76 0 l 76 14 q 86 14 76 14 q 96 14 96 14 q 153 36 131 14 q 176 89 175 58 l 179 89 m 261 744 l 261 833 l 364 833 l 364 819 q 356 819 364 819 q 347 819 347 819 q 290 798 314 819 q 265 744 265 776 l 261 744 m 179 744 l 176 744 q 151 798 175 776 q 93 819 128 819 q 85 819 93 819 q 76 819 76 819 l 76 833 l 179 833 l 179 744 z "},"ľ":{"ha":744,"x_min":76,"x_max":717,"o":"m 265 833 l 265 0 l 176 0 l 176 833 l 265 833 m 639 43 l 636 0 l 263 0 l 263 43 l 639 43 m 717 199 l 640 0 l 429 0 l 476 43 q 588 63 546 43 q 657 119 631 83 q 703 199 683 154 l 717 199 m 179 89 l 197 0 l 76 0 l 76 14 q 86 14 76 14 q 96 14 96 14 q 153 36 131 14 q 176 89 175 58 l 179 89 m 261 744 l 261 833 l 364 833 l 364 819 q 356 819 364 819 q 347 819 347 819 q 290 798 314 819 q 265 744 265 776 l 261 744 m 179 744 l 176 744 q 151 798 175 776 q 93 819 128 819 q 85 819 93 819 q 76 819 76 819 l 76 833 l 179 833 l 179 744 m 503 813 q 528 835 511 829 q 564 833 546 840 q 590 803 582 825 q 601 741 604 771 q 583 688 599 711 q 545 651 568 665 q 494 638 522 638 l 492 646 q 535 677 525 657 q 542 717 546 697 q 529 749 539 738 q 506 776 518 761 q 503 813 493 792 z "},"ļ":{"ha":744,"x_min":76,"x_max":717,"o":"m 265 833 l 265 0 l 176 0 l 176 833 l 265 833 m 639 43 l 636 0 l 263 0 l 263 43 l 639 43 m 717 199 l 640 0 l 429 0 l 476 43 q 588 63 546 43 q 657 119 631 83 q 703 199 683 154 l 717 199 m 179 89 l 197 0 l 76 0 l 76 14 q 86 14 76 14 q 96 14 96 14 q 153 36 131 14 q 176 89 175 58 l 179 89 m 261 744 l 261 833 l 364 833 l 364 819 q 356 819 364 819 q 347 819 347 819 q 290 798 314 819 q 265 744 265 776 l 261 744 m 179 744 l 176 744 q 151 798 175 776 q 93 819 128 819 q 85 819 93 819 q 76 819 76 819 l 76 833 l 179 833 l 179 744 m 414 -128 q 427 -99 414 -108 q 457 -89 440 -89 q 502 -119 489 -89 q 515 -175 515 -149 q 483 -254 515 -222 q 408 -289 451 -286 l 406 -279 q 447 -253 435 -269 q 458 -219 458 -236 q 454 -196 458 -207 q 443 -178 450 -185 q 424 -155 435 -167 q 414 -128 414 -143 z "},"ŀ":{"ha":744,"x_min":76,"x_max":717,"o":"m 436 476 q 392 494 411 476 q 374 539 374 513 q 392 583 374 565 q 436 601 411 601 q 481 583 463 601 q 499 539 499 565 q 481 494 499 513 q 436 476 463 476 m 265 833 l 265 0 l 176 0 l 176 833 l 265 833 m 639 43 l 636 0 l 263 0 l 263 43 l 639 43 m 717 199 l 640 0 l 429 0 l 476 43 q 588 63 546 43 q 657 119 631 83 q 703 199 683 154 l 717 199 m 179 89 l 197 0 l 76 0 l 76 14 q 86 14 76 14 q 96 14 96 14 q 153 36 131 14 q 176 89 175 58 l 179 89 m 261 744 l 261 833 l 364 833 l 364 819 q 356 819 364 819 q 347 819 347 819 q 290 798 314 819 q 265 744 265 776 l 261 744 m 179 744 l 176 744 q 151 798 175 776 q 93 819 128 819 q 85 819 93 819 q 76 819 76 819 l 76 833 l 179 833 l 179 744 z "},"ł":{"ha":744,"x_min":69,"x_max":717,"o":"m 69 339 l 461 565 l 482 532 l 89 304 l 69 339 m 265 833 l 265 0 l 176 0 l 176 833 l 265 833 m 639 43 l 636 0 l 263 0 l 263 43 l 639 43 m 717 199 l 640 0 l 429 0 l 476 43 q 588 63 546 43 q 657 119 631 83 q 703 199 683 154 l 717 199 m 179 89 l 197 0 l 76 0 l 76 14 q 86 14 76 14 q 96 14 96 14 q 153 36 131 14 q 176 89 175 58 l 179 89 m 261 744 l 261 833 l 364 833 l 364 819 q 356 819 364 819 q 347 819 347 819 q 290 798 314 819 q 265 744 265 776 l 261 744 m 179 744 l 176 744 q 151 798 175 776 q 93 819 128 819 q 85 819 93 819 q 76 819 76 819 l 76 833 l 179 833 l 179 744 z "},"m":{"ha":1219,"x_min":11,"x_max":1210,"o":"m 969 853 l 982 763 l 657 122 q 647 99 657 122 q 625 42 636 75 q 608 -19 614 10 l 594 -19 l 575 68 l 969 853 m 156 93 l 156 0 l 11 0 l 11 14 q 22 14 11 14 q 32 14 32 14 q 95 35 68 14 q 126 93 122 56 l 156 93 m 197 72 q 207 33 196 51 q 249 13 218 14 l 268 13 l 268 0 l 189 0 l 189 72 l 197 72 m 235 853 l 249 853 l 276 771 l 190 0 l 114 0 l 235 853 m 249 853 l 626 126 l 594 -19 l 222 700 l 249 853 m 982 853 l 1107 0 l 1001 0 l 911 699 l 969 853 l 982 853 m 1065 93 l 1093 93 q 1126 35 1099 56 q 1189 14 1154 14 q 1199 14 1189 14 q 1210 14 1210 14 l 1210 0 l 1065 0 l 1065 93 m 992 72 l 1001 72 l 1001 0 l 921 0 l 921 13 l 942 13 q 984 33 974 14 q 992 72 994 53 z "},"n":{"ha":1082,"x_min":49,"x_max":1033,"o":"m 150 854 l 919 129 l 933 -19 l 164 710 l 150 854 m 153 86 l 153 0 l 49 0 l 49 14 q 60 14 49 14 q 72 14 72 14 q 126 35 104 14 q 149 86 149 56 l 153 86 m 211 86 q 234 35 211 56 q 288 14 257 14 q 299 14 288 14 q 311 14 311 14 l 311 0 l 207 0 l 207 86 l 211 86 m 150 854 l 210 776 l 211 0 l 149 0 l 149 681 q 142 803 149 751 q 136 854 136 854 l 150 854 m 933 833 l 933 158 q 936 73 933 114 q 942 6 939 32 q 946 -19 946 -19 l 933 -19 l 872 54 l 872 833 l 933 833 m 929 747 l 929 833 l 1033 833 l 1033 819 q 1022 819 1033 819 q 1010 819 1010 819 q 956 799 979 819 q 933 747 933 778 l 929 747 m 872 747 q 849 799 871 778 q 794 819 826 819 q 783 819 794 819 q 771 819 771 819 l 771 833 l 875 833 l 875 747 l 872 747 z "},"ń":{"ha":1082,"x_min":49,"x_max":1033,"o":"m 150 854 l 919 129 l 933 -19 l 164 710 l 150 854 m 153 86 l 153 0 l 49 0 l 49 14 q 60 14 49 14 q 72 14 72 14 q 126 35 104 14 q 149 86 149 56 l 153 86 m 211 86 q 234 35 211 56 q 288 14 257 14 q 299 14 288 14 q 311 14 311 14 l 311 0 l 207 0 l 207 86 l 211 86 m 150 854 l 210 776 l 211 0 l 149 0 l 149 681 q 142 803 149 751 q 136 854 136 854 l 150 854 m 933 833 l 933 158 q 936 73 933 114 q 942 6 939 32 q 946 -19 946 -19 l 933 -19 l 872 54 l 872 833 l 933 833 m 929 747 l 929 833 l 1033 833 l 1033 819 q 1022 819 1033 819 q 1010 819 1010 819 q 956 799 979 819 q 933 747 933 778 l 929 747 m 872 747 q 849 799 871 778 q 794 819 826 819 q 783 819 794 819 q 771 819 771 819 l 771 833 l 875 833 l 875 747 l 872 747 z "},"ň":{"ha":1082,"x_min":49,"x_max":1033,"o":"m 150 854 l 919 129 l 933 -19 l 164 710 l 150 854 m 153 86 l 153 0 l 49 0 l 49 14 q 60 14 49 14 q 72 14 72 14 q 126 35 104 14 q 149 86 149 56 l 153 86 m 211 86 q 234 35 211 56 q 288 14 257 14 q 299 14 288 14 q 311 14 311 14 l 311 0 l 207 0 l 207 86 l 211 86 m 150 854 l 210 776 l 211 0 l 149 0 l 149 681 q 142 803 149 751 q 136 854 136 854 l 150 854 m 933 833 l 933 158 q 936 73 933 114 q 942 6 939 32 q 946 -19 946 -19 l 933 -19 l 872 54 l 872 833 l 933 833 m 929 747 l 929 833 l 1033 833 l 1033 819 q 1022 819 1033 819 q 1010 819 1010 819 q 956 799 979 819 q 933 747 933 778 l 929 747 m 872 747 q 849 799 871 778 q 794 819 826 819 q 783 819 794 819 q 771 819 771 819 l 771 833 l 875 833 l 875 747 l 872 747 z "},"ņ":{"ha":1082,"x_min":49,"x_max":1033,"o":"m 150 854 l 919 129 l 933 -19 l 164 710 l 150 854 m 153 86 l 153 0 l 49 0 l 49 14 q 60 14 49 14 q 72 14 72 14 q 126 35 104 14 q 149 86 149 56 l 153 86 m 211 86 q 234 35 211 56 q 288 14 257 14 q 299 14 288 14 q 311 14 311 14 l 311 0 l 207 0 l 207 86 l 211 86 m 150 854 l 210 776 l 211 0 l 149 0 l 149 681 q 142 803 149 751 q 136 854 136 854 l 150 854 m 933 833 l 933 158 q 936 73 933 114 q 942 6 939 32 q 946 -19 946 -19 l 933 -19 l 872 54 l 872 833 l 933 833 m 929 747 l 929 833 l 1033 833 l 1033 819 q 1022 819 1033 819 q 1010 819 1010 819 q 956 799 979 819 q 933 747 933 778 l 929 747 m 872 747 q 849 799 871 778 q 794 819 826 819 q 783 819 794 819 q 771 819 771 819 l 771 833 l 875 833 l 875 747 l 872 747 m 511 -128 q 524 -99 511 -108 q 554 -89 538 -89 q 599 -119 586 -89 q 613 -175 613 -149 q 581 -254 613 -222 q 506 -289 549 -286 l 503 -279 q 544 -253 532 -269 q 556 -219 556 -236 q 551 -196 556 -207 q 540 -178 547 -185 q 522 -155 532 -167 q 511 -128 511 -143 z "},"ŋ":{"ha":1082,"x_min":49,"x_max":1033,"o":"m 153 86 l 153 0 l 49 0 l 49 14 q 60 14 49 14 q 72 14 72 14 q 126 35 104 14 q 149 86 149 56 l 153 86 m 211 86 q 234 35 211 56 q 288 14 257 14 q 299 14 288 14 q 311 14 311 14 l 311 0 l 207 0 l 207 86 l 211 86 m 150 854 l 210 776 l 211 0 l 149 0 l 149 681 q 142 803 149 751 q 136 854 136 854 l 150 854 m 150 854 l 919 129 l 933 -19 l 164 710 l 150 854 m 938 -24 q 915 -136 938 -90 q 855 -208 892 -182 q 774 -243 818 -233 l 767 -232 q 808 -203 789 -222 q 843 -158 828 -185 q 867 -97 858 -132 q 875 -21 875 -62 l 875 833 l 938 833 l 938 -24 m 875 747 q 852 799 874 778 q 800 819 831 819 q 790 819 800 819 q 778 819 779 819 l 778 833 l 878 833 l 878 747 l 875 747 m 933 747 l 933 833 l 1033 833 l 1033 819 q 1022 819 1033 819 q 1011 819 1011 819 q 959 799 981 819 q 938 747 938 778 l 933 747 z "},"ñ":{"ha":1082,"x_min":49,"x_max":1033,"o":"m 150 854 l 919 129 l 933 -19 l 164 710 l 150 854 m 153 86 l 153 0 l 49 0 l 49 14 q 60 14 49 14 q 72 14 72 14 q 126 35 104 14 q 149 86 149 56 l 153 86 m 211 86 q 234 35 211 56 q 288 14 257 14 q 299 14 288 14 q 311 14 311 14 l 311 0 l 207 0 l 207 86 l 211 86 m 150 854 l 210 776 l 211 0 l 149 0 l 149 681 q 142 803 149 751 q 136 854 136 854 l 150 854 m 933 833 l 933 158 q 936 73 933 114 q 942 6 939 32 q 946 -19 946 -19 l 933 -19 l 872 54 l 872 833 l 933 833 m 929 747 l 929 833 l 1033 833 l 1033 819 q 1022 819 1033 819 q 1010 819 1010 819 q 956 799 979 819 q 933 747 933 778 l 929 747 m 872 747 q 849 799 871 778 q 794 819 826 819 q 783 819 794 819 q 771 819 771 819 l 771 833 l 875 833 l 875 747 l 872 747 z "},"o":{"ha":1075,"x_min":69,"x_max":1007,"o":"m 538 853 q 720 822 635 853 q 870 732 806 790 q 971 594 935 674 q 1007 417 1007 514 q 971 240 1007 319 q 870 101 935 160 q 720 12 806 43 q 538 -19 635 -19 q 356 12 440 -19 q 206 101 271 43 q 106 240 142 160 q 69 417 69 319 q 106 594 69 514 q 206 732 142 674 q 356 822 271 790 q 538 853 440 853 m 538 22 q 724 72 640 22 q 856 211 807 122 q 904 417 904 300 q 856 623 904 535 q 724 761 807 711 q 538 811 640 811 q 353 761 436 811 q 221 623 269 711 q 172 417 172 535 q 221 211 172 300 q 353 72 269 122 q 538 22 436 22 z "},"ó":{"ha":1075,"x_min":69,"x_max":1007,"o":"m 538 853 q 720 822 635 853 q 870 732 806 790 q 971 594 935 674 q 1007 417 1007 514 q 971 240 1007 319 q 870 101 935 160 q 720 12 806 43 q 538 -19 635 -19 q 356 12 440 -19 q 206 101 271 43 q 106 240 142 160 q 69 417 69 319 q 106 594 69 514 q 206 732 142 674 q 356 822 271 790 q 538 853 440 853 m 538 22 q 724 72 640 22 q 856 211 807 122 q 904 417 904 300 q 856 623 904 535 q 724 761 807 711 q 538 811 640 811 q 353 761 436 811 q 221 623 269 711 q 172 417 172 535 q 221 211 172 300 q 353 72 269 122 q 538 22 436 22 z "},"ô":{"ha":1075,"x_min":69,"x_max":1007,"o":"m 538 853 q 720 822 635 853 q 870 732 806 790 q 971 594 935 674 q 1007 417 1007 514 q 971 240 1007 319 q 870 101 935 160 q 720 12 806 43 q 538 -19 635 -19 q 356 12 440 -19 q 206 101 271 43 q 106 240 142 160 q 69 417 69 319 q 106 594 69 514 q 206 732 142 674 q 356 822 271 790 q 538 853 440 853 m 538 22 q 724 72 640 22 q 856 211 807 122 q 904 417 904 300 q 856 623 904 535 q 724 761 807 711 q 538 811 640 811 q 353 761 436 811 q 221 623 269 711 q 172 417 172 535 q 221 211 172 300 q 353 72 269 122 q 538 22 436 22 z "},"ö":{"ha":1075,"x_min":69,"x_max":1007,"o":"m 538 853 q 720 822 635 853 q 870 732 806 790 q 971 594 935 674 q 1007 417 1007 514 q 971 240 1007 319 q 870 101 935 160 q 720 12 806 43 q 538 -19 635 -19 q 356 12 440 -19 q 206 101 271 43 q 106 240 142 160 q 69 417 69 319 q 106 594 69 514 q 206 732 142 674 q 356 822 271 790 q 538 853 440 853 m 538 22 q 724 72 640 22 q 856 211 807 122 q 904 417 904 300 q 856 623 904 535 q 724 761 807 711 q 538 811 640 811 q 353 761 436 811 q 221 623 269 711 q 172 417 172 535 q 221 211 172 300 q 353 72 269 122 q 538 22 436 22 z "},"ò":{"ha":1075,"x_min":69,"x_max":1007,"o":"m 538 853 q 720 822 635 853 q 870 732 806 790 q 971 594 935 674 q 1007 417 1007 514 q 971 240 1007 319 q 870 101 935 160 q 720 12 806 43 q 538 -19 635 -19 q 356 12 440 -19 q 206 101 271 43 q 106 240 142 160 q 69 417 69 319 q 106 594 69 514 q 206 732 142 674 q 356 822 271 790 q 538 853 440 853 m 538 22 q 724 72 640 22 q 856 211 807 122 q 904 417 904 300 q 856 623 904 535 q 724 761 807 711 q 538 811 640 811 q 353 761 436 811 q 221 623 269 711 q 172 417 172 535 q 221 211 172 300 q 353 72 269 122 q 538 22 436 22 z "},"ő":{"ha":1075,"x_min":69,"x_max":1007,"o":"m 538 853 q 720 822 635 853 q 870 732 806 790 q 971 594 935 674 q 1007 417 1007 514 q 971 240 1007 319 q 870 101 935 160 q 720 12 806 43 q 538 -19 635 -19 q 356 12 440 -19 q 206 101 271 43 q 106 240 142 160 q 69 417 69 319 q 106 594 69 514 q 206 732 142 674 q 356 822 271 790 q 538 853 440 853 m 538 22 q 724 72 640 22 q 856 211 807 122 q 904 417 904 300 q 856 623 904 535 q 724 761 807 711 q 538 811 640 811 q 353 761 436 811 q 221 623 269 711 q 172 417 172 535 q 221 211 172 300 q 353 72 269 122 q 538 22 436 22 z "},"ō":{"ha":1075,"x_min":69,"x_max":1007,"o":"m 538 853 q 720 822 635 853 q 870 732 806 790 q 971 594 935 674 q 1007 417 1007 514 q 971 240 1007 319 q 870 101 935 160 q 720 12 806 43 q 538 -19 635 -19 q 356 12 440 -19 q 206 101 271 43 q 106 240 142 160 q 69 417 69 319 q 106 594 69 514 q 206 732 142 674 q 356 822 271 790 q 538 853 440 853 m 538 22 q 724 72 640 22 q 856 211 807 122 q 904 417 904 300 q 856 623 904 535 q 724 761 807 711 q 538 811 640 811 q 353 761 436 811 q 221 623 269 711 q 172 417 172 535 q 221 211 172 300 q 353 72 269 122 q 538 22 436 22 z "},"ø":{"ha":1075,"x_min":69,"x_max":1007,"o":"m 851 876 l 888 844 l 157 -32 l 122 -1 l 851 876 m 538 853 q 720 822 635 853 q 870 732 806 790 q 971 594 935 674 q 1007 417 1007 514 q 971 240 1007 319 q 870 101 935 160 q 720 12 806 43 q 538 -19 635 -19 q 356 12 440 -19 q 206 101 271 43 q 106 240 142 160 q 69 417 69 319 q 106 594 69 514 q 206 732 142 674 q 356 822 271 790 q 538 853 440 853 m 538 22 q 724 72 640 22 q 856 211 807 122 q 904 417 904 300 q 856 623 904 535 q 724 761 807 711 q 538 811 640 811 q 353 761 436 811 q 221 623 269 711 q 172 417 172 535 q 221 211 172 300 q 353 72 269 122 q 538 22 436 22 z "},"õ":{"ha":1075,"x_min":69,"x_max":1007,"o":"m 538 853 q 720 822 635 853 q 870 732 806 790 q 971 594 935 674 q 1007 417 1007 514 q 971 240 1007 319 q 870 101 935 160 q 720 12 806 43 q 538 -19 635 -19 q 356 12 440 -19 q 206 101 271 43 q 106 240 142 160 q 69 417 69 319 q 106 594 69 514 q 206 732 142 674 q 356 822 271 790 q 538 853 440 853 m 538 22 q 724 72 640 22 q 856 211 807 122 q 904 417 904 300 q 856 623 904 535 q 724 761 807 711 q 538 811 640 811 q 353 761 436 811 q 221 623 269 711 q 172 417 172 535 q 221 211 172 300 q 353 72 269 122 q 538 22 436 22 z "},"œ":{"ha":1224,"x_min":69,"x_max":1182,"o":"m 506 853 q 567 850 526 853 q 646 840 607 847 q 688 835 667 838 q 740 833 708 833 l 742 0 q 712 0 728 0 q 667 -3 696 0 q 624 -7 653 -3 q 564 -15 596 -11 q 506 -19 532 -19 q 277 33 375 -19 q 124 183 179 86 q 69 417 69 281 q 124 649 69 551 q 277 800 179 747 q 506 853 375 853 m 506 21 q 578 28 543 21 q 635 52 613 36 q 658 90 658 68 l 658 744 q 635 785 658 771 q 578 806 613 800 q 506 813 543 813 q 330 765 406 813 q 211 628 254 717 q 168 417 168 539 q 211 206 168 294 q 330 69 254 117 q 506 21 406 21 m 743 833 l 743 0 l 658 7 l 658 833 l 743 833 m 1107 43 l 1107 0 l 742 0 l 732 43 l 1107 43 m 1049 436 l 1049 394 l 739 394 l 739 436 l 1049 436 m 1107 833 l 1107 790 l 738 790 l 738 833 l 1107 833 m 1182 199 l 1111 0 l 914 0 l 957 43 q 1060 63 1021 43 q 1125 119 1100 83 q 1168 199 1150 154 l 1182 199 m 1049 397 l 1049 318 l 1035 318 l 1035 336 q 1021 377 1035 360 q 978 394 1007 394 l 978 397 l 1049 397 m 1049 513 l 1049 433 l 978 433 l 978 436 q 1021 454 1007 438 q 1035 496 1035 471 l 1035 513 l 1049 513 m 1107 794 l 1107 699 l 1093 699 l 1093 719 q 1075 769 1093 749 q 1025 790 1057 790 l 1025 794 l 1107 794 m 1107 856 l 1107 819 l 961 833 q 1046 841 1001 833 q 1107 856 1090 849 z "},"p":{"ha":768,"x_min":76,"x_max":718,"o":"m 247 833 l 401 833 q 569 805 499 833 q 679 723 640 776 q 718 596 718 669 q 683 460 718 517 q 589 374 647 404 q 460 345 531 344 q 318 381 389 346 l 318 394 q 341 390 318 394 q 400 387 364 386 q 476 399 436 388 q 552 443 517 411 q 608 535 588 475 q 616 571 614 550 q 618 610 618 592 q 560 743 618 694 q 399 792 501 792 l 263 792 q 259 802 263 792 q 251 823 256 813 q 247 833 247 833 m 265 833 l 265 0 l 176 0 l 176 833 l 265 833 m 179 89 l 197 0 l 76 0 l 76 14 q 86 14 76 14 q 96 14 96 14 q 152 36 129 14 q 176 89 175 58 l 179 89 m 179 746 l 176 746 q 152 799 175 778 q 96 819 129 819 q 86 819 96 819 q 76 819 76 819 l 76 833 l 197 833 l 179 746 m 261 89 l 264 89 q 288 36 265 58 q 344 14 311 14 q 355 14 346 14 q 364 14 364 14 l 364 0 l 243 0 l 261 89 z "},"þ":{"ha":732,"x_min":74,"x_max":683,"o":"m 239 660 l 394 660 q 549 631 485 660 q 649 549 614 603 q 683 422 683 496 q 651 287 683 343 q 566 201 619 231 q 448 173 513 172 q 318 208 383 174 l 318 221 q 339 217 318 221 q 392 213 360 213 q 460 226 424 214 q 529 269 497 238 q 579 361 561 301 q 587 397 585 376 q 589 436 589 418 q 535 570 589 522 q 389 618 482 618 l 253 618 q 249 628 253 618 q 242 649 246 639 q 239 660 239 660 m 256 833 l 256 0 l 167 0 l 167 833 l 256 833 m 169 89 l 185 0 l 74 0 l 75 14 q 83 14 75 14 q 92 14 92 14 q 144 36 124 14 q 167 89 165 58 l 169 89 m 169 746 l 167 746 q 144 799 165 778 q 92 819 124 819 q 83 819 92 819 q 75 819 75 819 l 74 833 l 185 833 l 169 746 m 251 89 l 256 89 q 277 36 256 58 q 329 14 299 14 q 338 14 329 14 q 347 14 347 14 l 347 0 l 236 0 l 251 89 m 251 746 l 236 833 l 347 833 l 347 819 q 338 819 347 819 q 329 819 329 819 q 277 799 299 819 q 256 746 256 778 l 251 746 z "},"q":{"ha":1079,"x_min":69,"x_max":1658,"o":"m 529 853 q 708 822 625 853 q 853 732 790 790 q 952 594 917 674 q 988 417 988 514 q 952 240 988 319 q 853 101 917 160 q 708 12 790 43 q 529 -19 625 -19 q 350 12 433 -19 q 203 101 267 43 q 105 240 140 160 q 69 417 69 319 q 105 594 69 514 q 203 732 140 674 q 350 822 267 790 q 529 853 433 853 m 529 22 q 710 72 629 22 q 838 211 790 122 q 886 417 886 300 q 838 623 886 535 q 710 761 790 711 q 529 811 629 811 q 349 761 429 811 q 220 623 268 711 q 172 417 172 535 q 220 211 172 300 q 349 72 268 122 q 529 22 429 22 m 526 -18 l 540 13 q 597 4 561 13 q 681 -19 633 -4 q 788 -56 729 -35 q 913 -103 846 -78 q 1053 -158 979 -129 q 1203 -200 1122 -186 q 1365 -210 1283 -214 q 1522 -181 1447 -207 q 1654 -103 1597 -154 l 1658 -108 q 1617 -165 1650 -131 q 1531 -231 1585 -199 q 1403 -281 1476 -262 q 1240 -293 1331 -300 q 1044 -242 1150 -286 q 924 -185 989 -218 q 792 -117 860 -151 q 656 -56 724 -83 q 526 -18 589 -29 z "},"r":{"ha":871,"x_min":76,"x_max":892,"o":"m 246 833 l 425 833 q 542 818 490 833 q 631 774 594 803 q 688 703 668 744 q 707 608 707 661 q 679 500 707 550 q 602 418 651 450 q 490 379 553 386 q 545 336 514 369 q 599 271 576 303 q 617 247 599 271 q 663 187 635 222 q 719 119 692 151 q 773 64 749 88 q 826 27 797 40 q 892 14 854 14 l 892 0 l 849 0 q 723 19 772 0 q 643 67 674 39 q 590 122 613 96 q 565 158 585 129 q 521 219 544 186 q 478 280 497 253 q 454 313 458 307 q 390 377 426 349 q 314 406 354 406 l 314 419 q 336 419 314 419 q 393 419 358 418 q 471 426 432 421 q 544 456 510 431 q 597 539 578 481 q 606 575 603 554 q 607 618 608 596 q 592 688 606 657 q 555 740 579 718 q 497 775 531 763 q 422 789 464 788 q 308 790 357 792 q 260 790 260 789 q 256 802 260 792 q 249 823 253 813 q 246 833 246 833 m 263 833 l 263 0 l 174 0 l 174 833 l 263 833 m 178 89 l 194 0 l 76 0 l 76 14 q 86 14 76 14 q 96 14 96 14 q 151 36 129 14 q 175 89 174 58 l 178 89 m 178 746 l 175 746 q 151 799 174 778 q 96 819 129 819 q 86 819 96 819 q 76 819 76 819 l 76 833 l 194 833 l 178 746 m 258 89 l 263 89 q 286 36 264 58 q 342 14 308 14 q 351 14 342 14 q 360 14 360 14 l 361 0 l 242 0 l 258 89 z "},"ŕ":{"ha":871,"x_min":76,"x_max":892,"o":"m 246 833 l 425 833 q 542 818 490 833 q 631 774 594 803 q 688 703 668 744 q 707 608 707 661 q 679 500 707 550 q 602 418 651 450 q 490 379 553 386 q 545 336 514 369 q 599 271 576 303 q 617 247 599 271 q 663 187 635 222 q 719 119 692 151 q 773 64 749 88 q 826 27 797 40 q 892 14 854 14 l 892 0 l 849 0 q 723 19 772 0 q 643 67 674 39 q 590 122 613 96 q 565 158 585 129 q 521 219 544 186 q 478 280 497 253 q 454 313 458 307 q 390 377 426 349 q 314 406 354 406 l 314 419 q 336 419 314 419 q 393 419 358 418 q 471 426 432 421 q 544 456 510 431 q 597 539 578 481 q 606 575 603 554 q 607 618 608 596 q 592 688 606 657 q 555 740 579 718 q 497 775 531 763 q 422 789 464 788 q 308 790 357 792 q 260 790 260 789 q 256 802 260 792 q 249 823 253 813 q 246 833 246 833 m 263 833 l 263 0 l 174 0 l 174 833 l 263 833 m 178 89 l 194 0 l 76 0 l 76 14 q 86 14 76 14 q 96 14 96 14 q 151 36 129 14 q 175 89 174 58 l 178 89 m 178 746 l 175 746 q 151 799 174 778 q 96 819 129 819 q 86 819 96 819 q 76 819 76 819 l 76 833 l 194 833 l 178 746 m 258 89 l 263 89 q 286 36 264 58 q 342 14 308 14 q 351 14 342 14 q 360 14 360 14 l 361 0 l 242 0 l 258 89 z "},"ř":{"ha":871,"x_min":76,"x_max":892,"o":"m 246 833 l 425 833 q 542 818 490 833 q 631 774 594 803 q 688 703 668 744 q 707 608 707 661 q 679 500 707 550 q 602 418 651 450 q 490 379 553 386 q 545 336 514 369 q 599 271 576 303 q 617 247 599 271 q 663 187 635 222 q 719 119 692 151 q 773 64 749 88 q 826 27 797 40 q 892 14 854 14 l 892 0 l 849 0 q 723 19 772 0 q 643 67 674 39 q 590 122 613 96 q 565 158 585 129 q 521 219 544 186 q 478 280 497 253 q 454 313 458 307 q 390 377 426 349 q 314 406 354 406 l 314 419 q 336 419 314 419 q 393 419 358 418 q 471 426 432 421 q 544 456 510 431 q 597 539 578 481 q 606 575 603 554 q 607 618 608 596 q 592 688 606 657 q 555 740 579 718 q 497 775 531 763 q 422 789 464 788 q 308 790 357 792 q 260 790 260 789 q 256 802 260 792 q 249 823 253 813 q 246 833 246 833 m 263 833 l 263 0 l 174 0 l 174 833 l 263 833 m 178 89 l 194 0 l 76 0 l 76 14 q 86 14 76 14 q 96 14 96 14 q 151 36 129 14 q 175 89 174 58 l 178 89 m 178 746 l 175 746 q 151 799 174 778 q 96 819 129 819 q 86 819 96 819 q 76 819 76 819 l 76 833 l 194 833 l 178 746 m 258 89 l 263 89 q 286 36 264 58 q 342 14 308 14 q 351 14 342 14 q 360 14 360 14 l 361 0 l 242 0 l 258 89 z "},"ŗ":{"ha":871,"x_min":76,"x_max":892,"o":"m 246 833 l 425 833 q 542 818 490 833 q 631 774 594 803 q 688 703 668 744 q 707 608 707 661 q 679 500 707 550 q 602 418 651 450 q 490 379 553 386 q 545 336 514 369 q 599 271 576 303 q 617 247 599 271 q 663 187 635 222 q 719 119 692 151 q 773 64 749 88 q 826 27 797 40 q 892 14 854 14 l 892 0 l 849 0 q 723 19 772 0 q 643 67 674 39 q 590 122 613 96 q 565 158 585 129 q 521 219 544 186 q 478 280 497 253 q 454 313 458 307 q 390 377 426 349 q 314 406 354 406 l 314 419 q 336 419 314 419 q 393 419 358 418 q 471 426 432 421 q 544 456 510 431 q 597 539 578 481 q 606 575 603 554 q 607 618 608 596 q 592 688 606 657 q 555 740 579 718 q 497 775 531 763 q 422 789 464 788 q 308 790 357 792 q 260 790 260 789 q 256 802 260 792 q 249 823 253 813 q 246 833 246 833 m 263 833 l 263 0 l 174 0 l 174 833 l 263 833 m 178 89 l 194 0 l 76 0 l 76 14 q 86 14 76 14 q 96 14 96 14 q 151 36 129 14 q 175 89 174 58 l 178 89 m 178 746 l 175 746 q 151 799 174 778 q 96 819 129 819 q 86 819 96 819 q 76 819 76 819 l 76 833 l 194 833 l 178 746 m 258 89 l 263 89 q 286 36 264 58 q 342 14 308 14 q 351 14 342 14 q 360 14 360 14 l 361 0 l 242 0 l 258 89 m 468 -128 q 481 -99 468 -108 q 511 -89 494 -89 q 556 -119 543 -89 q 569 -175 569 -149 q 538 -254 569 -222 q 463 -289 506 -286 l 460 -279 q 501 -253 489 -269 q 513 -219 513 -236 q 508 -196 513 -207 q 497 -178 504 -185 q 478 -155 489 -167 q 468 -128 468 -143 z "},"s":{"ha":642,"x_min":76,"x_max":568,"o":"m 325 853 q 393 850 364 853 q 444 844 422 847 q 481 835 465 840 q 510 826 497 831 l 511 689 l 494 689 q 456 778 494 746 q 335 811 417 811 q 216 773 265 811 q 168 679 167 735 q 173 642 168 661 q 190 606 178 624 q 222 569 201 588 l 503 353 q 550 285 535 326 q 567 204 565 244 q 535 92 568 143 q 445 10 501 40 q 321 -19 389 -19 q 234 -12 281 -19 q 147 9 188 -6 q 81 46 107 24 q 76 95 76 65 q 81 158 76 125 q 94 218 86 192 l 111 218 q 129 111 106 156 q 199 44 153 67 q 306 22 244 21 q 441 66 392 25 q 490 175 490 107 q 478 235 490 208 q 440 286 467 263 l 163 500 q 110 574 124 533 q 96 650 96 614 q 126 753 96 707 q 209 826 157 799 q 325 853 261 853 m 508 840 l 510 815 l 411 815 l 411 840 l 508 840 z "},"ś":{"ha":642,"x_min":76,"x_max":568,"o":"m 325 853 q 393 850 364 853 q 444 844 422 847 q 481 835 465 840 q 510 826 497 831 l 511 689 l 494 689 q 456 778 494 746 q 335 811 417 811 q 216 773 265 811 q 168 679 167 735 q 173 642 168 661 q 190 606 178 624 q 222 569 201 588 l 503 353 q 550 285 535 326 q 567 204 565 244 q 535 92 568 143 q 445 10 501 40 q 321 -19 389 -19 q 234 -12 281 -19 q 147 9 188 -6 q 81 46 107 24 q 76 95 76 65 q 81 158 76 125 q 94 218 86 192 l 111 218 q 129 111 106 156 q 199 44 153 67 q 306 22 244 21 q 441 66 392 25 q 490 175 490 107 q 478 235 490 208 q 440 286 467 263 l 163 500 q 110 574 124 533 q 96 650 96 614 q 126 753 96 707 q 209 826 157 799 q 325 853 261 853 m 508 840 l 510 815 l 411 815 l 411 840 l 508 840 z "},"š":{"ha":642,"x_min":76,"x_max":568,"o":"m 325 853 q 393 850 364 853 q 444 844 422 847 q 481 835 465 840 q 510 826 497 831 l 511 689 l 494 689 q 456 778 494 746 q 335 811 417 811 q 216 773 265 811 q 168 679 167 735 q 173 642 168 661 q 190 606 178 624 q 222 569 201 588 l 503 353 q 550 285 535 326 q 567 204 565 244 q 535 92 568 143 q 445 10 501 40 q 321 -19 389 -19 q 234 -12 281 -19 q 147 9 188 -6 q 81 46 107 24 q 76 95 76 65 q 81 158 76 125 q 94 218 86 192 l 111 218 q 129 111 106 156 q 199 44 153 67 q 306 22 244 21 q 441 66 392 25 q 490 175 490 107 q 478 235 490 208 q 440 286 467 263 l 163 500 q 110 574 124 533 q 96 650 96 614 q 126 753 96 707 q 209 826 157 799 q 325 853 261 853 m 508 840 l 510 815 l 411 815 l 411 840 l 508 840 z "},"ş":{"ha":642,"x_min":76,"x_max":568,"o":"m 296 -18 l 335 -18 l 276 -85 q 319 -76 294 -78 q 367 -83 343 -75 q 406 -110 390 -90 q 422 -165 421 -129 q 394 -236 424 -208 q 319 -272 364 -264 q 226 -267 274 -281 l 228 -253 q 286 -244 257 -253 q 335 -217 315 -236 q 353 -164 354 -197 q 334 -122 353 -135 q 288 -108 315 -108 q 236 -118 261 -107 q 233 -111 236 -118 q 229 -104 229 -104 l 296 -18 m 325 853 q 393 850 364 853 q 444 844 422 847 q 481 835 465 840 q 510 826 497 831 l 511 689 l 496 689 q 456 778 496 746 q 335 811 417 811 q 217 773 265 811 q 168 679 168 735 q 173 642 168 661 q 190 606 178 624 q 222 569 201 588 l 504 353 q 551 285 536 326 q 567 204 567 244 q 535 92 568 143 q 446 10 501 40 q 321 -19 390 -19 q 234 -12 281 -19 q 147 9 188 -6 q 82 46 107 24 q 77 95 78 65 q 81 158 76 125 q 94 218 86 192 l 111 218 q 129 111 106 156 q 199 44 153 67 q 306 22 244 21 q 441 66 392 25 q 490 175 490 107 q 479 235 490 208 q 440 286 468 263 l 163 500 q 110 574 124 533 q 96 650 97 614 q 126 753 96 707 q 209 826 157 799 q 325 853 261 853 m 510 840 l 510 815 l 413 815 l 413 840 l 510 840 z "},"ș":{"ha":642,"x_min":76,"x_max":568,"o":"m 325 853 q 393 850 364 853 q 444 844 422 847 q 481 835 465 840 q 510 826 497 831 l 511 689 l 494 689 q 456 778 494 746 q 335 811 417 811 q 216 773 265 811 q 168 679 167 735 q 173 642 168 661 q 190 606 178 624 q 222 569 201 588 l 503 353 q 550 285 535 326 q 567 204 565 244 q 535 92 568 143 q 445 10 501 40 q 321 -19 389 -19 q 234 -12 281 -19 q 147 9 188 -6 q 81 46 107 24 q 76 95 76 65 q 81 158 76 125 q 94 218 86 192 l 111 218 q 129 111 106 156 q 199 44 153 67 q 306 22 244 21 q 441 66 392 25 q 490 175 490 107 q 478 235 490 208 q 440 286 467 263 l 163 500 q 110 574 124 533 q 96 650 96 614 q 126 753 96 707 q 209 826 157 799 q 325 853 261 853 m 508 840 l 510 815 l 411 815 l 411 840 l 508 840 m 276 -128 q 290 -99 276 -108 q 319 -89 303 -89 q 365 -119 351 -89 q 378 -175 378 -149 q 346 -254 378 -222 q 271 -289 314 -286 l 268 -279 q 309 -253 297 -269 q 321 -219 321 -236 q 317 -196 321 -207 q 306 -178 313 -185 q 287 -155 297 -167 q 276 -128 276 -143 z "},"ß":{"ha":1283,"x_min":76,"x_max":1210,"o":"m 325 853 q 393 850 364 853 q 444 844 422 847 q 481 835 465 840 q 510 826 497 831 l 511 689 l 494 689 q 456 778 494 746 q 335 811 417 811 q 216 773 265 811 q 168 679 167 735 q 173 642 168 661 q 190 606 178 624 q 222 569 201 588 l 503 353 q 550 285 535 326 q 567 204 565 244 q 535 92 568 143 q 445 10 501 40 q 321 -19 389 -19 q 234 -12 281 -19 q 147 9 188 -6 q 81 46 107 24 q 76 95 76 65 q 81 158 76 125 q 94 218 86 192 l 111 218 q 129 111 106 156 q 199 44 153 67 q 306 22 244 21 q 441 66 392 25 q 490 175 490 107 q 478 235 490 208 q 440 286 467 263 l 163 500 q 110 574 124 533 q 96 650 96 614 q 126 753 96 707 q 209 826 157 799 q 325 853 261 853 m 508 840 l 510 815 l 411 815 l 411 840 l 508 840 m 967 853 q 1035 850 1006 853 q 1085 844 1064 847 q 1123 835 1107 840 q 1151 826 1139 831 l 1153 689 l 1136 689 q 1097 778 1136 746 q 976 811 1058 811 q 858 773 907 811 q 810 679 808 735 q 815 642 810 661 q 831 606 819 624 q 864 569 843 588 l 1144 353 q 1192 285 1176 326 q 1208 204 1207 244 q 1176 92 1210 143 q 1087 10 1143 40 q 963 -19 1031 -19 q 876 -12 922 -19 q 789 9 829 -6 q 722 46 749 24 q 718 95 718 65 q 723 158 718 125 q 736 218 728 192 l 753 218 q 771 111 747 156 q 840 44 794 67 q 947 22 886 21 q 1083 66 1033 25 q 1132 175 1132 107 q 1120 235 1132 208 q 1082 286 1108 263 l 804 500 q 751 574 765 533 q 738 650 738 614 q 768 753 738 707 q 851 826 799 799 q 967 853 903 853 m 1150 840 l 1151 815 l 1053 815 l 1053 840 l 1150 840 z "},"t":{"ha":803,"x_min":21,"x_max":783,"o":"m 447 829 l 447 0 l 357 0 l 357 829 l 447 829 m 783 835 l 783 793 l 21 793 l 21 835 l 783 835 m 783 796 l 783 700 l 768 700 l 768 722 q 749 772 768 751 q 699 793 731 792 l 699 796 l 783 796 m 783 857 l 783 821 l 628 835 q 687 838 656 835 q 744 847 718 842 q 783 857 771 853 m 360 89 l 360 0 l 258 0 l 258 14 q 267 14 260 14 q 275 14 275 14 q 332 36 308 14 q 357 89 356 58 l 360 89 m 443 89 l 447 89 q 472 36 449 58 q 529 14 496 14 q 537 14 529 14 q 544 14 544 14 l 544 0 l 443 0 l 443 89 m 106 796 l 106 793 q 55 772 74 792 q 36 722 36 751 l 36 700 l 21 700 l 21 796 l 106 796 m 21 857 q 59 847 33 853 q 117 838 85 842 q 176 835 149 835 l 21 821 l 21 857 z "},"ŧ":{"ha":803,"x_min":21,"x_max":783,"o":"m 447 829 l 447 0 l 357 0 l 357 829 l 447 829 m 783 835 l 783 793 l 21 793 l 21 835 l 783 835 m 783 796 l 783 700 l 768 700 l 768 722 q 749 772 768 751 q 699 793 731 792 l 699 796 l 783 796 m 783 857 l 783 821 l 628 835 q 687 838 656 835 q 744 847 718 842 q 783 857 771 853 m 360 89 l 360 0 l 258 0 l 258 14 q 267 14 260 14 q 275 14 275 14 q 332 36 308 14 q 357 89 356 58 l 360 89 m 443 89 l 447 89 q 472 36 449 58 q 529 14 496 14 q 537 14 529 14 q 544 14 544 14 l 544 0 l 443 0 l 443 89 m 106 796 l 106 793 q 55 772 74 792 q 36 722 36 751 l 36 700 l 21 700 l 21 796 l 106 796 m 21 857 q 59 847 33 853 q 117 838 85 842 q 176 835 149 835 l 21 821 l 21 857 m 653 469 l 653 428 l 156 428 l 156 469 l 653 469 z "},"ť":{"ha":803,"x_min":21,"x_max":783,"o":"m 557 1089 l 549 1100 l 403 1008 l 244 1100 l 236 1089 l 396 924 l 410 924 l 557 1089 m 447 829 l 447 0 l 357 0 l 357 829 l 447 829 m 783 835 l 783 793 l 21 793 l 21 835 l 783 835 m 783 796 l 783 700 l 768 700 l 768 722 q 749 772 768 751 q 699 793 731 792 l 699 796 l 783 796 m 783 857 l 783 821 l 628 835 q 687 838 656 835 q 744 847 718 842 q 783 857 771 853 m 360 89 l 360 0 l 258 0 l 258 14 q 267 14 260 14 q 275 14 275 14 q 332 36 308 14 q 357 89 356 58 l 360 89 m 443 89 l 447 89 q 472 36 449 58 q 529 14 496 14 q 537 14 529 14 q 544 14 544 14 l 544 0 l 443 0 l 443 89 m 106 796 l 106 793 q 55 772 74 792 q 36 722 36 751 l 36 700 l 21 700 l 21 796 l 106 796 m 21 857 q 59 847 33 853 q 117 838 85 842 q 176 835 149 835 l 21 821 l 21 857 z "},"ţ":{"ha":803,"x_min":21,"x_max":783,"o":"m 447 829 l 447 0 l 357 0 l 357 829 l 447 829 m 783 835 l 783 793 l 21 793 l 21 835 l 783 835 m 783 796 l 783 700 l 768 700 l 768 722 q 749 772 768 751 q 699 793 731 792 l 699 796 l 783 796 m 783 857 l 783 821 l 628 835 q 687 838 656 835 q 744 847 718 842 q 783 857 771 853 m 360 89 l 360 0 l 258 0 l 258 14 q 267 14 260 14 q 275 14 275 14 q 332 36 308 14 q 357 89 356 58 l 360 89 m 443 89 l 447 89 q 472 36 449 58 q 529 14 496 14 q 537 14 529 14 q 544 14 544 14 l 544 0 l 443 0 l 443 89 m 106 796 l 106 793 q 55 772 74 792 q 36 722 36 751 l 36 700 l 21 700 l 21 796 l 106 796 m 21 857 q 59 847 33 853 q 117 838 85 842 q 176 835 149 835 l 21 821 l 21 857 z "},"ț":{"ha":803,"x_min":21,"x_max":783,"o":"m 447 829 l 447 0 l 357 0 l 357 829 l 447 829 m 783 835 l 783 793 l 21 793 l 21 835 l 783 835 m 783 796 l 783 700 l 768 700 l 768 722 q 749 772 768 751 q 699 793 731 792 l 699 796 l 783 796 m 783 857 l 783 821 l 628 835 q 687 838 656 835 q 744 847 718 842 q 783 857 771 853 m 360 89 l 360 0 l 258 0 l 258 14 q 267 14 260 14 q 275 14 275 14 q 332 36 308 14 q 357 89 356 58 l 360 89 m 443 89 l 447 89 q 472 36 449 58 q 529 14 496 14 q 537 14 529 14 q 544 14 544 14 l 544 0 l 443 0 l 443 89 m 106 796 l 106 793 q 55 772 74 792 q 36 722 36 751 l 36 700 l 21 700 l 21 796 l 106 796 m 21 857 q 59 847 33 853 q 117 838 85 842 q 176 835 149 835 l 21 821 l 21 857 m 357 -128 q 370 -99 357 -108 q 400 -89 383 -89 q 445 -119 432 -89 q 458 -175 458 -149 q 426 -254 458 -222 q 351 -289 394 -286 l 349 -279 q 390 -253 378 -269 q 401 -219 401 -236 q 397 -196 401 -207 q 386 -178 393 -185 q 367 -155 378 -167 q 357 -128 357 -143 z "},"u":{"ha":972,"x_min":56,"x_max":924,"o":"m 232 833 l 232 308 q 301 96 232 174 q 489 18 369 18 q 697 92 621 18 q 772 293 772 165 l 772 833 l 836 833 l 836 293 q 744 65 836 149 q 490 -19 651 -19 q 237 64 331 -19 q 143 292 143 147 l 143 833 l 232 833 m 146 833 l 146 760 l 143 760 q 123 802 142 785 q 76 819 104 819 q 66 819 76 819 q 56 819 56 819 l 56 833 l 146 833 m 319 833 l 319 819 q 309 819 319 819 q 299 819 299 819 q 252 802 272 819 q 232 760 232 785 l 229 760 l 229 833 l 319 833 m 775 833 l 775 760 l 772 760 q 753 802 772 785 q 706 819 733 819 q 695 819 706 819 q 685 819 685 819 l 685 833 l 775 833 m 924 833 l 924 819 q 913 819 924 819 q 903 819 903 819 q 857 802 876 819 q 836 760 838 785 l 833 760 l 833 833 l 924 833 z "},"ú":{"ha":972,"x_min":56,"x_max":924,"o":"m 232 833 l 232 308 q 301 96 232 174 q 489 18 369 18 q 697 92 621 18 q 772 293 772 165 l 772 833 l 836 833 l 836 293 q 744 65 836 149 q 490 -19 651 -19 q 237 64 331 -19 q 143 292 143 147 l 143 833 l 232 833 m 146 833 l 146 760 l 143 760 q 123 802 142 785 q 76 819 104 819 q 66 819 76 819 q 56 819 56 819 l 56 833 l 146 833 m 319 833 l 319 819 q 309 819 319 819 q 299 819 299 819 q 252 802 272 819 q 232 760 232 785 l 229 760 l 229 833 l 319 833 m 775 833 l 775 760 l 772 760 q 753 802 772 785 q 706 819 733 819 q 695 819 706 819 q 685 819 685 819 l 685 833 l 775 833 m 924 833 l 924 819 q 913 819 924 819 q 903 819 903 819 q 857 802 876 819 q 836 760 838 785 l 833 760 l 833 833 l 924 833 z "},"û":{"ha":972,"x_min":56,"x_max":924,"o":"m 232 833 l 232 308 q 301 96 232 174 q 489 18 369 18 q 697 92 621 18 q 772 293 772 165 l 772 833 l 836 833 l 836 293 q 744 65 836 149 q 490 -19 651 -19 q 237 64 331 -19 q 143 292 143 147 l 143 833 l 232 833 m 146 833 l 146 760 l 143 760 q 123 802 142 785 q 76 819 104 819 q 66 819 76 819 q 56 819 56 819 l 56 833 l 146 833 m 319 833 l 319 819 q 309 819 319 819 q 299 819 299 819 q 252 802 272 819 q 232 760 232 785 l 229 760 l 229 833 l 319 833 m 775 833 l 775 760 l 772 760 q 753 802 772 785 q 706 819 733 819 q 695 819 706 819 q 685 819 685 819 l 685 833 l 775 833 m 924 833 l 924 819 q 913 819 924 819 q 903 819 903 819 q 857 802 876 819 q 836 760 838 785 l 833 760 l 833 833 l 924 833 z "},"ü":{"ha":972,"x_min":56,"x_max":924,"o":"m 232 833 l 232 308 q 301 96 232 174 q 489 18 369 18 q 697 92 621 18 q 772 293 772 165 l 772 833 l 836 833 l 836 293 q 744 65 836 149 q 490 -19 651 -19 q 237 64 331 -19 q 143 292 143 147 l 143 833 l 232 833 m 146 833 l 146 760 l 143 760 q 123 802 142 785 q 76 819 104 819 q 66 819 76 819 q 56 819 56 819 l 56 833 l 146 833 m 319 833 l 319 819 q 309 819 319 819 q 299 819 299 819 q 252 802 272 819 q 232 760 232 785 l 229 760 l 229 833 l 319 833 m 775 833 l 775 760 l 772 760 q 753 802 772 785 q 706 819 733 819 q 695 819 706 819 q 685 819 685 819 l 685 833 l 775 833 m 924 833 l 924 819 q 913 819 924 819 q 903 819 903 819 q 857 802 876 819 q 836 760 838 785 l 833 760 l 833 833 l 924 833 z "},"ù":{"ha":972,"x_min":56,"x_max":924,"o":"m 232 833 l 232 308 q 301 96 232 174 q 489 18 369 18 q 697 92 621 18 q 772 293 772 165 l 772 833 l 836 833 l 836 293 q 744 65 836 149 q 490 -19 651 -19 q 237 64 331 -19 q 143 292 143 147 l 143 833 l 232 833 m 146 833 l 146 760 l 143 760 q 123 802 142 785 q 76 819 104 819 q 66 819 76 819 q 56 819 56 819 l 56 833 l 146 833 m 319 833 l 319 819 q 309 819 319 819 q 299 819 299 819 q 252 802 272 819 q 232 760 232 785 l 229 760 l 229 833 l 319 833 m 775 833 l 775 760 l 772 760 q 753 802 772 785 q 706 819 733 819 q 695 819 706 819 q 685 819 685 819 l 685 833 l 775 833 m 924 833 l 924 819 q 913 819 924 819 q 903 819 903 819 q 857 802 876 819 q 836 760 838 785 l 833 760 l 833 833 l 924 833 z "},"ű":{"ha":972,"x_min":56,"x_max":924,"o":"m 232 833 l 232 308 q 301 96 232 174 q 489 18 369 18 q 697 92 621 18 q 772 293 772 165 l 772 833 l 836 833 l 836 293 q 744 65 836 149 q 490 -19 651 -19 q 237 64 331 -19 q 143 292 143 147 l 143 833 l 232 833 m 146 833 l 146 760 l 143 760 q 123 802 142 785 q 76 819 104 819 q 66 819 76 819 q 56 819 56 819 l 56 833 l 146 833 m 319 833 l 319 819 q 309 819 319 819 q 299 819 299 819 q 252 802 272 819 q 232 760 232 785 l 229 760 l 229 833 l 319 833 m 775 833 l 775 760 l 772 760 q 753 802 772 785 q 706 819 733 819 q 695 819 706 819 q 685 819 685 819 l 685 833 l 775 833 m 924 833 l 924 819 q 913 819 924 819 q 903 819 903 819 q 857 802 876 819 q 836 760 838 785 l 833 760 l 833 833 l 924 833 z "},"ū":{"ha":972,"x_min":56,"x_max":924,"o":"m 232 833 l 232 308 q 301 96 232 174 q 489 18 369 18 q 697 92 621 18 q 772 293 772 165 l 772 833 l 836 833 l 836 293 q 744 65 836 149 q 490 -19 651 -19 q 237 64 331 -19 q 143 292 143 147 l 143 833 l 232 833 m 146 833 l 146 760 l 143 760 q 123 802 142 785 q 76 819 104 819 q 66 819 76 819 q 56 819 56 819 l 56 833 l 146 833 m 319 833 l 319 819 q 309 819 319 819 q 299 819 299 819 q 252 802 272 819 q 232 760 232 785 l 229 760 l 229 833 l 319 833 m 775 833 l 775 760 l 772 760 q 753 802 772 785 q 706 819 733 819 q 695 819 706 819 q 685 819 685 819 l 685 833 l 775 833 m 924 833 l 924 819 q 913 819 924 819 q 903 819 903 819 q 857 802 876 819 q 836 760 838 785 l 833 760 l 833 833 l 924 833 z "},"ų":{"ha":972,"x_min":56,"x_max":924,"o":"m 232 833 l 232 308 q 301 96 232 174 q 489 18 369 18 q 697 92 621 18 q 772 293 772 165 l 772 833 l 836 833 l 836 293 q 744 65 836 149 q 490 -19 651 -19 q 237 64 331 -19 q 143 292 143 147 l 143 833 l 232 833 m 146 833 l 146 760 l 143 760 q 123 802 142 785 q 76 819 104 819 q 66 819 76 819 q 56 819 56 819 l 56 833 l 146 833 m 319 833 l 319 819 q 309 819 319 819 q 299 819 299 819 q 252 802 272 819 q 232 760 232 785 l 229 760 l 229 833 l 319 833 m 775 833 l 775 760 l 772 760 q 753 802 772 785 q 706 819 733 819 q 695 819 706 819 q 685 819 685 819 l 685 833 l 775 833 m 924 833 l 924 819 q 913 819 924 819 q 903 819 903 819 q 857 802 876 819 q 836 760 838 785 l 833 760 l 833 833 l 924 833 z "},"ů":{"ha":972,"x_min":56,"x_max":924,"o":"m 232 833 l 232 308 q 301 96 232 174 q 489 18 369 18 q 697 92 621 18 q 772 293 772 165 l 772 833 l 836 833 l 836 293 q 744 65 836 149 q 490 -19 651 -19 q 237 64 331 -19 q 143 292 143 147 l 143 833 l 232 833 m 146 833 l 146 760 l 143 760 q 123 802 142 785 q 76 819 104 819 q 66 819 76 819 q 56 819 56 819 l 56 833 l 146 833 m 319 833 l 319 819 q 309 819 319 819 q 299 819 299 819 q 252 802 272 819 q 232 760 232 785 l 229 760 l 229 833 l 319 833 m 775 833 l 775 760 l 772 760 q 753 802 772 785 q 706 819 733 819 q 695 819 706 819 q 685 819 685 819 l 685 833 l 775 833 m 924 833 l 924 819 q 913 819 924 819 q 903 819 903 819 q 857 802 876 819 q 836 760 838 785 l 833 760 l 833 833 l 924 833 z "},"v":{"ha":921,"x_min":-7,"x_max":928,"o":"m 454 -19 l 72 825 l 182 825 l 478 104 l 454 -19 m 454 -19 l 444 76 l 763 829 l 850 829 l 521 124 q 513 107 521 124 q 495 66 506 90 q 476 18 485 42 q 467 -19 468 -6 l 454 -19 m 722 732 q 718 797 738 774 q 674 819 699 819 l 664 819 l 664 833 l 928 833 l 928 819 q 922 819 928 819 q 917 819 917 819 q 857 799 888 819 q 804 732 826 779 l 722 732 m 219 732 l 114 732 q 63 799 93 779 q 4 819 32 819 q -1 819 4 819 q -7 819 -7 819 l -7 833 l 278 833 l 278 819 l 267 819 q 224 797 243 819 q 219 732 206 774 z "},"w":{"ha":1249,"x_min":-11,"x_max":1256,"o":"m 79 825 l 190 825 l 415 140 l 403 -17 l 79 825 m 650 856 l 661 743 l 446 138 q 439 113 446 138 q 424 53 432 89 q 415 -17 417 18 l 403 -17 l 376 107 l 636 856 l 650 856 m 650 854 l 917 175 l 885 -17 l 603 704 l 650 854 m 1161 825 l 931 138 q 923 113 931 138 q 908 52 915 88 q 899 -17 900 17 l 885 -17 l 868 121 l 1082 825 l 1161 825 m 1054 736 q 1052 800 1069 781 q 1013 819 1035 819 l 1001 819 l 1001 833 l 1256 833 l 1256 819 q 1251 819 1256 819 q 1246 819 1246 819 q 1174 796 1203 819 q 1132 736 1144 772 l 1054 736 m 219 738 l 114 736 q 72 796 100 772 q 0 819 44 819 q -6 819 0 819 q -11 819 -11 819 l -11 833 l 275 833 l 275 819 l 264 819 q 224 801 242 819 q 219 738 206 782 z "},"ẃ":{"ha":1249,"x_min":-11,"x_max":1256,"o":"m 79 825 l 190 825 l 415 140 l 403 -17 l 79 825 m 650 856 l 661 743 l 446 138 q 439 113 446 138 q 424 53 432 89 q 415 -17 417 18 l 403 -17 l 376 107 l 636 856 l 650 856 m 650 854 l 917 175 l 885 -17 l 603 704 l 650 854 m 1161 825 l 931 138 q 923 113 931 138 q 908 52 915 88 q 899 -17 900 17 l 885 -17 l 868 121 l 1082 825 l 1161 825 m 1054 736 q 1052 800 1069 781 q 1013 819 1035 819 l 1001 819 l 1001 833 l 1256 833 l 1256 819 q 1251 819 1256 819 q 1246 819 1246 819 q 1174 796 1203 819 q 1132 736 1144 772 l 1054 736 m 219 738 l 114 736 q 72 796 100 772 q 0 819 44 819 q -6 819 0 819 q -11 819 -11 819 l -11 833 l 275 833 l 275 819 l 264 819 q 224 801 242 819 q 219 738 206 782 z "},"ŵ":{"ha":1249,"x_min":-11,"x_max":1256,"o":"m 79 825 l 190 825 l 415 140 l 403 -17 l 79 825 m 650 856 l 661 743 l 446 138 q 439 113 446 138 q 424 53 432 89 q 415 -17 417 18 l 403 -17 l 376 107 l 636 856 l 650 856 m 650 854 l 917 175 l 885 -17 l 603 704 l 650 854 m 1161 825 l 931 138 q 923 113 931 138 q 908 52 915 88 q 899 -17 900 17 l 885 -17 l 868 121 l 1082 825 l 1161 825 m 1054 736 q 1052 800 1069 781 q 1013 819 1035 819 l 1001 819 l 1001 833 l 1256 833 l 1256 819 q 1251 819 1256 819 q 1246 819 1246 819 q 1174 796 1203 819 q 1132 736 1144 772 l 1054 736 m 219 738 l 114 736 q 72 796 100 772 q 0 819 44 819 q -6 819 0 819 q -11 819 -11 819 l -11 833 l 275 833 l 275 819 l 264 819 q 224 801 242 819 q 219 738 206 782 z "},"ẅ":{"ha":1249,"x_min":-11,"x_max":1256,"o":"m 79 825 l 190 825 l 415 140 l 403 -17 l 79 825 m 650 856 l 661 743 l 446 138 q 439 113 446 138 q 424 53 432 89 q 415 -17 417 18 l 403 -17 l 376 107 l 636 856 l 650 856 m 650 854 l 917 175 l 885 -17 l 603 704 l 650 854 m 1161 825 l 931 138 q 923 113 931 138 q 908 52 915 88 q 899 -17 900 17 l 885 -17 l 868 121 l 1082 825 l 1161 825 m 1054 736 q 1052 800 1069 781 q 1013 819 1035 819 l 1001 819 l 1001 833 l 1256 833 l 1256 819 q 1251 819 1256 819 q 1246 819 1246 819 q 1174 796 1203 819 q 1132 736 1144 772 l 1054 736 m 219 738 l 114 736 q 72 796 100 772 q 0 819 44 819 q -6 819 0 819 q -11 819 -11 819 l -11 833 l 275 833 l 275 819 l 264 819 q 224 801 242 819 q 219 738 206 782 z "},"ẁ":{"ha":1249,"x_min":-11,"x_max":1256,"o":"m 79 825 l 190 825 l 415 140 l 403 -17 l 79 825 m 650 856 l 661 743 l 446 138 q 439 113 446 138 q 424 53 432 89 q 415 -17 417 18 l 403 -17 l 376 107 l 636 856 l 650 856 m 650 854 l 917 175 l 885 -17 l 603 704 l 650 854 m 1161 825 l 931 138 q 923 113 931 138 q 908 52 915 88 q 899 -17 900 17 l 885 -17 l 868 121 l 1082 825 l 1161 825 m 1054 736 q 1052 800 1069 781 q 1013 819 1035 819 l 1001 819 l 1001 833 l 1256 833 l 1256 819 q 1251 819 1256 819 q 1246 819 1246 819 q 1174 796 1203 819 q 1132 736 1144 772 l 1054 736 m 219 738 l 114 736 q 72 796 100 772 q 0 819 44 819 q -6 819 0 819 q -11 819 -11 819 l -11 833 l 275 833 l 275 819 l 264 819 q 224 801 242 819 q 219 738 206 782 z "},"x":{"ha":869,"x_min":-15,"x_max":885,"o":"m 211 832 l 790 1 l 678 1 l 101 832 l 211 832 m 225 89 q 226 38 207 63 q 271 14 244 14 q 279 14 271 14 q 288 14 288 14 l 288 0 l -15 0 l -15 14 l 3 14 q 79 35 44 14 q 136 85 114 57 l 225 89 m 411 435 l 439 378 l 160 1 l 72 1 l 411 435 m 618 88 l 732 83 q 789 35 753 57 q 867 14 825 14 l 885 14 l 885 0 l 556 0 l 556 14 q 564 14 556 14 q 572 14 572 14 q 617 38 600 14 q 618 88 635 63 m 333 833 l 333 819 q 325 819 333 819 q 317 819 317 819 q 272 795 290 819 q 271 746 254 771 l 160 750 q 103 799 139 778 q 25 819 67 819 l 7 819 l 7 833 l 333 833 m 768 832 l 472 421 l 438 479 l 674 832 l 768 832 m 861 833 l 861 819 l 842 819 q 765 799 800 819 q 708 749 729 778 l 615 744 q 615 795 632 771 q 569 819 597 819 q 561 819 569 819 q 553 819 553 819 l 553 833 l 861 833 z "},"y":{"ha":889,"x_min":-7,"x_max":896,"o":"m 207 832 l 464 375 l 407 326 l 86 832 l 207 832 m 485 358 l 485 0 l 394 0 l 394 358 l 485 358 m 718 832 l 806 832 l 475 329 l 424 344 l 718 832 m 665 744 q 667 796 681 772 q 622 819 653 819 q 614 819 622 819 q 606 819 606 819 l 606 833 l 896 833 l 896 819 l 879 819 q 806 798 840 819 q 753 749 772 776 l 665 744 m 256 746 l 138 750 q 83 801 115 782 q 10 819 50 819 l -7 819 l -7 833 l 315 833 l 315 819 q 307 819 315 819 q 299 819 299 819 q 255 795 268 819 q 256 746 242 771 m 399 89 l 399 0 l 297 0 l 297 14 q 306 14 299 14 q 314 14 314 14 q 370 36 347 14 q 394 89 393 58 l 399 89 m 481 89 l 485 89 q 509 36 486 58 q 565 14 532 14 q 574 14 565 14 q 582 14 582 14 l 582 0 l 481 0 l 481 89 z "},"ý":{"ha":889,"x_min":-7,"x_max":896,"o":"m 207 832 l 464 375 l 407 326 l 86 832 l 207 832 m 485 358 l 485 0 l 394 0 l 394 358 l 485 358 m 718 832 l 806 832 l 475 329 l 424 344 l 718 832 m 665 744 q 667 796 681 772 q 622 819 653 819 q 614 819 622 819 q 606 819 606 819 l 606 833 l 896 833 l 896 819 l 879 819 q 806 798 840 819 q 753 749 772 776 l 665 744 m 256 746 l 138 750 q 83 801 115 782 q 10 819 50 819 l -7 819 l -7 833 l 315 833 l 315 819 q 307 819 315 819 q 299 819 299 819 q 255 795 268 819 q 256 746 242 771 m 399 89 l 399 0 l 297 0 l 297 14 q 306 14 299 14 q 314 14 314 14 q 370 36 347 14 q 394 89 393 58 l 399 89 m 481 89 l 485 89 q 509 36 486 58 q 565 14 532 14 q 574 14 565 14 q 582 14 582 14 l 582 0 l 481 0 l 481 89 z "},"ŷ":{"ha":889,"x_min":-7,"x_max":896,"o":"m 207 832 l 464 375 l 407 326 l 86 832 l 207 832 m 485 358 l 485 0 l 394 0 l 394 358 l 485 358 m 718 832 l 806 832 l 475 329 l 424 344 l 718 832 m 665 744 q 667 796 681 772 q 622 819 653 819 q 614 819 622 819 q 606 819 606 819 l 606 833 l 896 833 l 896 819 l 879 819 q 806 798 840 819 q 753 749 772 776 l 665 744 m 256 746 l 138 750 q 83 801 115 782 q 10 819 50 819 l -7 819 l -7 833 l 315 833 l 315 819 q 307 819 315 819 q 299 819 299 819 q 255 795 268 819 q 256 746 242 771 m 399 89 l 399 0 l 297 0 l 297 14 q 306 14 299 14 q 314 14 314 14 q 370 36 347 14 q 394 89 393 58 l 399 89 m 481 89 l 485 89 q 509 36 486 58 q 565 14 532 14 q 574 14 565 14 q 582 14 582 14 l 582 0 l 481 0 l 481 89 z "},"ÿ":{"ha":889,"x_min":-7,"x_max":896,"o":"m 207 832 l 464 375 l 407 326 l 86 832 l 207 832 m 485 358 l 485 0 l 394 0 l 394 358 l 485 358 m 718 832 l 806 832 l 475 329 l 424 344 l 718 832 m 665 744 q 667 796 681 772 q 622 819 653 819 q 614 819 622 819 q 606 819 606 819 l 606 833 l 896 833 l 896 819 l 879 819 q 806 798 840 819 q 753 749 772 776 l 665 744 m 256 746 l 138 750 q 83 801 115 782 q 10 819 50 819 l -7 819 l -7 833 l 315 833 l 315 819 q 307 819 315 819 q 299 819 299 819 q 255 795 268 819 q 256 746 242 771 m 399 89 l 399 0 l 297 0 l 297 14 q 306 14 299 14 q 314 14 314 14 q 370 36 347 14 q 394 89 393 58 l 399 89 m 481 89 l 485 89 q 509 36 486 58 q 565 14 532 14 q 574 14 565 14 q 582 14 582 14 l 582 0 l 481 0 l 481 89 z "},"ỳ":{"ha":889,"x_min":-7,"x_max":896,"o":"m 207 832 l 464 375 l 407 326 l 86 832 l 207 832 m 485 358 l 485 0 l 394 0 l 394 358 l 485 358 m 718 832 l 806 832 l 475 329 l 424 344 l 718 832 m 665 744 q 667 796 681 772 q 622 819 653 819 q 614 819 622 819 q 606 819 606 819 l 606 833 l 896 833 l 896 819 l 879 819 q 806 798 840 819 q 753 749 772 776 l 665 744 m 256 746 l 138 750 q 83 801 115 782 q 10 819 50 819 l -7 819 l -7 833 l 315 833 l 315 819 q 307 819 315 819 q 299 819 299 819 q 255 795 268 819 q 256 746 242 771 m 399 89 l 399 0 l 297 0 l 297 14 q 306 14 299 14 q 314 14 314 14 q 370 36 347 14 q 394 89 393 58 l 399 89 m 481 89 l 485 89 q 509 36 486 58 q 565 14 532 14 q 574 14 565 14 q 582 14 582 14 l 582 0 l 481 0 l 481 89 z "},"z":{"ha":844,"x_min":69,"x_max":810,"o":"m 722 853 q 722 847 722 853 q 722 840 722 840 l 167 0 l 69 0 l 69 13 l 588 793 l 90 793 l 90 835 l 565 835 q 628 838 594 835 q 688 844 661 840 q 722 853 714 849 m 735 42 l 725 0 l 160 0 l 160 42 l 735 42 m 810 199 l 735 0 l 526 0 l 574 42 q 683 63 642 43 q 750 117 724 82 q 796 199 776 153 l 810 199 m 90 796 l 175 796 l 175 793 q 125 772 144 792 q 106 721 106 751 l 106 700 l 90 700 l 90 796 m 90 857 q 129 848 103 853 q 187 840 156 843 q 246 835 218 836 l 90 821 l 90 857 z "},"ź":{"ha":844,"x_min":69,"x_max":810,"o":"m 722 853 q 722 847 722 853 q 722 840 722 840 l 167 0 l 69 0 l 69 13 l 588 793 l 90 793 l 90 835 l 565 835 q 628 838 594 835 q 688 844 661 840 q 722 853 714 849 m 735 42 l 725 0 l 160 0 l 160 42 l 735 42 m 810 199 l 735 0 l 526 0 l 574 42 q 683 63 642 43 q 750 117 724 82 q 796 199 776 153 l 810 199 m 90 796 l 175 796 l 175 793 q 125 772 144 792 q 106 721 106 751 l 106 700 l 90 700 l 90 796 m 90 857 q 129 848 103 853 q 187 840 156 843 q 246 835 218 836 l 90 821 l 90 857 z "},"ž":{"ha":844,"x_min":69,"x_max":810,"o":"m 722 853 q 722 847 722 853 q 722 840 722 840 l 167 0 l 69 0 l 69 13 l 588 793 l 90 793 l 90 835 l 565 835 q 628 838 594 835 q 688 844 661 840 q 722 853 714 849 m 735 42 l 725 0 l 160 0 l 160 42 l 735 42 m 810 199 l 735 0 l 526 0 l 574 42 q 683 63 642 43 q 750 117 724 82 q 796 199 776 153 l 810 199 m 90 796 l 175 796 l 175 793 q 125 772 144 792 q 106 721 106 751 l 106 700 l 90 700 l 90 796 m 90 857 q 129 848 103 853 q 187 840 156 843 q 246 835 218 836 l 90 821 l 90 857 z "},"ż":{"ha":844,"x_min":69,"x_max":810,"o":"m 722 853 q 722 847 722 853 q 722 840 722 840 l 167 0 l 69 0 l 69 13 l 588 793 l 90 793 l 90 835 l 565 835 q 628 838 594 835 q 688 844 661 840 q 722 853 714 849 m 735 42 l 725 0 l 160 0 l 160 42 l 735 42 m 810 199 l 735 0 l 526 0 l 574 42 q 683 63 642 43 q 750 117 724 82 q 796 199 776 153 l 810 199 m 90 796 l 175 796 l 175 793 q 125 772 144 792 q 106 721 106 751 l 106 700 l 90 700 l 90 796 m 90 857 q 129 848 103 853 q 187 840 156 843 q 246 835 218 836 l 90 821 l 90 857 z "},"ﬁ":{"ha":1193,"x_min":76,"x_max":1118,"o":"m 265 833 l 265 0 l 178 0 l 178 833 l 265 833 m 578 438 l 578 396 l 263 396 l 263 438 l 578 438 m 643 833 l 643 790 l 263 790 l 263 833 l 643 833 m 578 399 l 578 319 l 563 319 l 563 338 q 549 378 563 361 q 506 396 536 396 l 506 399 l 578 399 m 578 514 l 578 435 l 506 435 l 506 438 q 549 455 536 438 q 563 496 563 472 l 563 514 l 578 514 m 643 794 l 643 699 l 628 699 l 628 719 q 609 769 628 749 q 558 790 590 790 l 558 794 l 643 794 m 643 856 l 643 819 l 483 833 q 544 837 513 833 q 603 846 576 840 q 643 856 631 851 m 181 89 l 199 0 l 76 0 l 76 14 q 86 14 76 14 q 96 14 96 14 q 153 36 131 14 q 178 89 176 58 l 181 89 m 181 746 l 178 746 q 153 799 176 778 q 96 819 131 819 q 86 819 96 819 q 76 819 76 819 l 76 833 l 199 833 l 181 746 m 263 89 l 265 89 q 290 36 267 58 q 347 14 313 14 q 357 14 347 14 q 367 14 367 14 l 367 0 l 244 0 l 263 89 m 1004 833 l 1004 0 l 917 0 l 917 833 l 1004 833 m 921 89 l 921 0 l 803 0 l 803 14 q 813 14 803 14 q 822 14 822 14 q 888 36 861 14 q 917 89 915 58 l 921 89 m 1000 89 l 1004 89 q 1033 36 1006 58 q 1099 14 1060 14 q 1108 14 1099 14 q 1117 14 1117 14 l 1118 0 l 1000 0 l 1000 89 m 1000 744 l 1000 833 l 1118 833 l 1117 819 q 1108 819 1117 819 q 1099 819 1099 819 q 1033 798 1060 819 q 1004 744 1006 776 l 1000 744 m 921 744 l 917 744 q 888 798 915 776 q 822 819 861 819 q 812 819 821 819 q 803 819 803 819 l 803 833 l 921 833 l 921 744 z "},"ﬂ":{"ha":1471,"x_min":76,"x_max":1443,"o":"m 265 833 l 265 0 l 178 0 l 178 833 l 265 833 m 578 438 l 578 396 l 263 396 l 263 438 l 578 438 m 643 833 l 643 790 l 263 790 l 263 833 l 643 833 m 578 399 l 578 319 l 563 319 l 563 338 q 549 378 563 361 q 506 396 536 396 l 506 399 l 578 399 m 578 514 l 578 435 l 506 435 l 506 438 q 549 455 536 438 q 563 496 563 472 l 563 514 l 578 514 m 643 794 l 643 699 l 628 699 l 628 719 q 609 769 628 749 q 558 790 590 790 l 558 794 l 643 794 m 643 856 l 643 819 l 483 833 q 544 837 513 833 q 603 846 576 840 q 643 856 631 851 m 181 89 l 199 0 l 76 0 l 76 14 q 86 14 76 14 q 96 14 96 14 q 153 36 131 14 q 178 89 176 58 l 181 89 m 181 746 l 178 746 q 153 799 176 778 q 96 819 131 819 q 86 819 96 819 q 76 819 76 819 l 76 833 l 199 833 l 181 746 m 263 89 l 265 89 q 290 36 267 58 q 347 14 313 14 q 357 14 347 14 q 367 14 367 14 l 367 0 l 244 0 l 263 89 m 992 833 l 992 0 l 903 0 l 903 833 l 992 833 m 1365 43 l 1363 0 l 989 0 l 989 43 l 1365 43 m 1443 199 l 1367 0 l 1156 0 l 1203 43 q 1315 63 1272 43 q 1383 119 1357 83 q 1429 199 1410 154 l 1443 199 m 906 89 l 924 0 l 803 0 l 803 14 q 813 14 803 14 q 822 14 822 14 q 879 36 857 14 q 903 89 901 58 l 906 89 m 988 744 l 988 833 l 1090 833 l 1090 819 q 1082 819 1090 819 q 1074 819 1074 819 q 1016 798 1040 819 q 992 744 992 776 l 988 744 m 906 744 l 903 744 q 878 798 901 776 q 819 819 854 819 q 811 819 819 819 q 803 819 803 819 l 803 833 l 906 833 l 906 744 z "},"Δ":{"ha":906,"x_min":7,"x_max":899,"o":"m 460 992 l 899 14 l 899 0 l 7 0 l 7 14 l 446 992 l 460 992 m 426 850 l 68 42 l 775 42 l 426 850 z "},"Ω":{"ha":1122,"x_min":74,"x_max":1046,"o":"m 963 0 l 646 0 l 646 90 q 746 161 694 118 q 841 261 797 204 q 913 388 885 318 q 942 536 940 457 q 917 699 944 624 q 837 830 889 774 q 715 918 785 886 q 564 950 646 950 q 414 918 483 950 q 292 830 344 886 q 210 699 239 774 q 181 536 181 624 q 224 344 181 431 q 333 194 267 258 q 469 90 400 131 l 469 0 l 154 0 l 154 76 l 428 76 q 261 166 328 110 q 156 289 194 222 q 101 420 118 356 q 83 536 85 485 q 116 715 81 632 q 217 860 151 797 q 372 957 283 922 q 565 992 461 992 q 751 957 665 992 q 902 860 838 922 q 1003 715 967 797 q 1039 536 1039 632 q 1016 418 1039 485 q 949 283 993 351 q 839 160 904 215 q 689 76 774 104 l 963 76 l 963 0 m 88 194 q 134 124 113 150 q 183 88 156 99 q 250 76 210 76 l 265 76 l 265 0 l 140 0 l 74 194 l 88 194 m 1046 194 l 979 0 l 854 0 l 854 76 l 869 76 q 938 88 911 76 q 986 124 964 99 q 1032 194 1008 150 l 1046 194 z "},"μ":{"ha":1219,"x_min":11,"x_max":1210,"o":"m 969 853 l 982 763 l 657 122 q 647 99 657 122 q 625 42 636 75 q 608 -19 614 10 l 594 -19 l 575 68 l 969 853 m 156 93 l 156 0 l 11 0 l 11 14 q 22 14 11 14 q 32 14 32 14 q 95 35 68 14 q 126 93 122 56 l 156 93 m 197 72 q 207 33 196 51 q 249 13 218 14 l 268 13 l 268 0 l 189 0 l 189 72 l 197 72 m 235 853 l 249 853 l 276 771 l 190 0 l 114 0 l 235 853 m 249 853 l 626 126 l 594 -19 l 222 700 l 249 853 m 982 853 l 1107 0 l 1001 0 l 911 699 l 969 853 l 982 853 m 1065 93 l 1093 93 q 1126 35 1099 56 q 1189 14 1154 14 q 1199 14 1189 14 q 1210 14 1210 14 l 1210 0 l 1065 0 l 1065 93 m 992 72 l 1001 72 l 1001 0 l 921 0 l 921 13 l 942 13 q 984 33 974 14 q 992 72 994 53 z "},"π":{"ha":976,"x_min":76,"x_max":901,"o":"m 257 833 l 257 0 l 168 0 l 168 833 l 257 833 m 172 89 l 172 0 l 76 0 l 76 14 q 84 14 76 14 q 92 14 92 14 q 146 36 124 14 q 168 89 168 58 l 172 89 m 254 89 l 257 89 q 281 36 258 58 q 335 14 303 14 q 342 14 335 14 q 349 14 349 14 l 350 0 l 254 0 l 254 89 m 172 744 l 168 744 q 146 798 168 776 q 92 819 124 819 q 84 819 92 819 q 76 819 76 819 l 76 833 l 172 833 l 172 744 m 810 833 l 810 0 l 721 0 l 721 833 l 810 833 m 724 89 l 724 0 l 628 0 l 629 14 q 636 14 629 14 q 643 14 643 14 q 697 36 675 14 q 721 89 719 58 l 724 89 m 806 89 l 810 89 q 833 36 810 58 q 886 14 856 14 q 894 14 886 14 q 901 14 901 14 l 901 0 l 806 0 l 806 89 m 806 744 l 806 833 l 901 833 l 901 819 q 894 819 901 819 q 886 819 886 819 q 833 798 856 819 q 810 744 810 776 l 806 744 m 753 792 l 724 792 l 724 717 l 721 717 q 698 769 719 747 q 646 792 676 792 l 332 792 q 280 769 301 792 q 257 717 258 747 l 254 717 l 254 792 l 221 792 l 221 833 l 753 833 l 753 792 z "},"⁄":{"ha":753,"x_min":28,"x_max":725,"o":"m 28 3 l 63 -19 l 725 968 l 692 992 l 28 3 z "},"½":{"ha":1118,"x_min":83,"x_max":1063,"o":"m 293 428 l 293 438 l 274 438 q 238 452 253 438 q 224 486 224 467 l 224 992 l 214 992 q 185 965 200 975 q 153 948 169 954 q 119 938 136 942 q 83 932 101 935 l 83 924 l 118 924 q 150 912 139 924 q 161 878 161 900 l 161 488 q 146 452 161 467 q 110 438 131 438 l 90 438 l 90 428 l 293 428 m 138 3 l 172 -19 l 835 968 l 801 992 l 138 3 m 668 399 l 651 503 q 723 547 679 531 q 810 564 767 564 q 915 542 868 564 q 989 483 961 521 q 1017 394 1017 446 q 989 284 1017 335 q 919 192 961 233 q 833 117 878 150 q 754 58 789 83 l 946 58 q 1008 76 986 58 q 1054 136 1029 93 l 1063 136 l 1019 0 l 639 0 l 639 10 q 731 91 679 47 q 830 184 782 135 q 909 285 878 233 q 940 390 940 338 q 903 494 940 457 q 810 529 867 531 q 716 494 756 528 q 678 399 676 460 l 668 399 z "},"¼":{"ha":963,"x_min":56,"x_max":929,"o":"m 265 428 l 265 438 l 246 438 q 210 452 225 438 q 196 486 196 467 l 196 992 l 186 992 q 157 965 172 975 q 125 948 142 954 q 91 938 108 942 q 56 932 74 935 l 56 924 l 90 924 q 122 912 111 924 q 133 878 133 900 l 133 488 q 118 452 133 467 q 82 438 103 438 l 63 438 l 63 428 l 265 428 m 111 3 l 146 -19 l 808 968 l 775 992 l 111 3 m 768 471 l 821 564 l 829 564 l 829 1 l 768 1 l 768 471 m 819 564 l 829 526 l 590 229 l 869 229 q 903 233 896 229 q 919 247 911 238 l 929 247 l 910 182 l 515 182 l 515 192 l 819 564 m 829 60 q 844 24 829 39 q 881 10 860 10 l 890 10 l 890 0 l 707 0 l 707 10 l 717 10 q 753 24 738 10 q 768 60 768 38 l 829 60 z "},"¾":{"ha":990,"x_min":42,"x_max":964,"o":"m 188 989 q 310 955 261 990 q 358 863 358 919 q 331 795 358 826 q 267 748 304 764 q 194 740 229 732 q 278 731 236 746 q 349 684 321 715 q 378 610 378 653 q 352 503 378 549 q 280 428 326 457 q 173 392 233 400 q 42 397 113 383 l 43 407 q 176 427 117 406 q 269 494 235 449 q 304 607 304 540 q 282 677 304 651 q 219 715 260 703 q 124 726 179 726 l 125 735 q 239 769 190 735 q 286 865 288 804 q 258 931 285 907 q 188 956 231 956 q 107 933 135 956 q 81 851 79 910 l 71 851 l 56 938 q 107 975 75 961 q 188 989 139 989 m 199 3 l 233 -19 l 896 968 l 863 992 l 199 3 m 803 471 l 856 564 l 864 564 l 864 1 l 803 1 l 803 471 m 854 564 l 864 526 l 625 229 l 904 229 q 938 233 931 229 q 954 247 946 238 l 964 247 l 944 182 l 550 182 l 550 192 l 854 564 m 864 60 q 879 24 864 39 q 915 10 894 10 l 925 10 l 925 0 l 742 0 l 742 10 l 751 10 q 788 24 772 10 q 803 60 803 38 l 864 60 z "},"¹":{"ha":293,"x_min":56,"x_max":265,"o":"m 265 428 l 265 438 l 246 438 q 210 452 225 438 q 196 486 196 467 l 196 992 l 186 992 q 157 965 172 975 q 125 948 142 954 q 91 938 108 942 q 56 932 74 935 l 56 924 l 90 924 q 122 912 111 924 q 133 878 133 900 l 133 488 q 118 452 133 467 q 82 438 103 438 l 63 438 l 63 428 l 265 428 z "},"²":{"ha":521,"x_min":42,"x_max":465,"o":"m 71 826 l 54 931 q 126 975 82 958 q 213 992 169 992 q 317 970 271 992 q 392 911 364 949 q 419 822 419 874 q 392 712 419 763 q 322 619 364 661 q 236 544 281 578 q 157 486 192 511 l 349 486 q 410 503 389 486 q 457 564 432 521 l 465 564 l 422 428 l 42 428 l 42 438 q 133 519 82 475 q 233 612 185 563 q 312 713 281 661 q 343 818 343 765 q 306 922 343 885 q 213 957 269 958 q 119 922 158 956 q 81 826 79 888 l 71 826 z "},"³":{"ha":431,"x_min":42,"x_max":378,"o":"m 188 989 q 310 955 261 990 q 358 863 358 919 q 331 795 358 826 q 267 748 304 764 q 194 740 229 732 q 278 731 236 746 q 349 684 321 715 q 378 610 378 653 q 352 503 378 549 q 280 428 326 457 q 173 392 233 400 q 42 397 113 383 l 43 407 q 176 427 117 406 q 269 494 235 449 q 304 607 304 540 q 282 677 304 651 q 219 715 260 703 q 124 726 179 726 l 125 735 q 239 769 190 735 q 286 865 288 804 q 258 931 285 907 q 188 956 231 956 q 107 933 135 956 q 81 851 79 910 l 71 851 l 56 938 q 107 975 75 961 q 188 989 139 989 z "},"ª":{"ha":511,"x_min":0,"x_max":511,"o":"m 258 992 l 469 529 l 393 529 l 244 915 l 258 992 m 126 583 q 128 545 117 558 q 153 532 139 532 l 158 532 l 158 525 l 0 525 l 0 532 q 3 532 0 532 q 6 532 6 532 q 39 544 22 532 q 68 583 56 557 l 126 583 m 258 992 l 265 907 l 103 526 l 42 526 l 222 910 q 229 926 222 910 q 244 962 236 942 q 251 992 251 982 l 258 992 m 347 708 l 347 675 l 146 675 l 146 708 l 347 708 m 374 583 l 446 583 q 474 544 458 557 q 506 532 490 532 q 508 532 506 532 q 511 532 511 532 l 511 525 l 340 525 l 340 532 l 347 532 q 372 545 361 532 q 374 583 382 558 z "},"º":{"ha":572,"x_min":42,"x_max":532,"o":"m 286 992 q 410 960 354 992 q 499 874 465 928 q 532 753 532 819 q 499 632 532 686 q 410 546 465 578 q 286 514 354 514 q 164 546 219 514 q 75 632 108 578 q 42 753 42 686 q 75 874 42 819 q 164 960 108 928 q 286 992 219 992 m 286 543 q 408 603 360 543 q 456 753 456 664 q 408 903 456 843 q 286 963 360 963 q 199 935 238 963 q 140 860 161 907 q 118 753 118 813 q 140 646 118 693 q 199 571 161 599 q 286 543 238 543 z "},"*":{"ha":536,"x_min":50,"x_max":488,"o":"m 404 658 l 356 647 l 288 771 l 269 835 l 278 840 l 332 804 l 431 701 l 404 658 m 135 658 l 108 700 l 206 804 l 260 840 l 269 835 l 250 771 l 183 647 l 135 658 m 50 914 l 83 951 l 211 892 l 264 851 l 260 840 l 194 839 l 54 865 l 50 914 m 269 1074 l 315 1054 l 297 914 l 275 851 l 264 851 l 242 914 l 224 1054 l 269 1074 m 488 915 l 483 865 l 344 839 l 278 840 l 275 851 l 326 892 l 454 953 l 488 915 m 274 853 l 278 849 l 279 842 l 278 839 l 271 833 q 268 835 269 835 q 267 835 267 835 l 260 840 l 260 843 l 261 851 l 265 853 l 274 853 z "},"\\":{"ha":564,"x_min":10,"x_max":554,"o":"m 53 992 l 554 7 l 511 -19 l 10 968 l 53 992 z "},"•":{"ha":465,"x_min":94,"x_max":369,"o":"m 251 329 q 214 329 233 324 q 167 347 185 339 q 138 367 149 356 q 119 396 126 378 q 100 443 111 414 q 100 481 94 463 q 119 529 111 511 q 138 558 126 547 q 167 576 149 568 q 214 594 185 585 q 251 594 233 603 q 300 576 282 585 q 328 558 318 568 q 347 529 339 547 q 365 481 356 511 q 369 462 369 471 q 365 440 369 453 q 347 394 356 411 q 328 365 339 376 q 300 347 318 354 q 251 329 282 339 z "},":":{"ha":249,"x_min":63,"x_max":188,"o":"m 125 526 q 81 544 99 526 q 63 589 63 563 q 81 633 63 615 q 125 651 99 651 q 169 633 151 651 q 188 589 188 615 q 169 544 188 563 q 125 526 151 526 m 125 -6 q 81 13 99 -6 q 63 57 63 31 q 81 101 63 83 q 125 119 99 119 q 169 101 151 119 q 188 57 188 83 q 169 13 188 31 q 125 -6 151 -6 z "},",":{"ha":257,"x_min":63,"x_max":199,"o":"m 76 90 q 107 116 86 110 q 149 113 128 122 q 182 76 171 104 q 195 2 199 38 q 174 -61 192 -33 q 127 -106 156 -89 q 65 -124 99 -122 l 63 -112 q 117 -75 104 -99 q 124 -27 129 -51 q 108 11 119 -3 q 90 33 100 22 q 74 59 79 44 q 76 90 69 74 z "},"…":{"ha":790,"x_min":63,"x_max":729,"o":"m 403 -6 q 358 13 376 -6 q 340 57 340 31 q 358 101 340 83 q 403 119 376 119 q 447 101 429 119 q 465 57 465 83 q 447 13 465 31 q 403 -6 429 -6 m 667 -6 q 622 13 640 -6 q 604 57 604 31 q 622 101 604 83 q 667 119 640 119 q 711 101 693 119 q 729 57 729 83 q 711 13 729 31 q 667 -6 693 -6 m 125 -6 q 81 13 99 -6 q 63 57 63 31 q 81 101 63 83 q 125 119 99 119 q 169 101 151 119 q 188 57 188 83 q 169 13 188 31 q 125 -6 151 -6 z "},"!":{"ha":319,"x_min":97,"x_max":222,"o":"m 160 -6 q 115 13 133 -6 q 97 57 97 31 q 115 101 97 83 q 160 119 133 119 q 204 101 186 119 q 222 57 222 83 q 204 13 222 31 q 160 -6 186 -6 m 165 236 l 151 236 l 124 560 l 107 975 l 211 975 l 194 560 l 165 236 z "},"¡":{"ha":319,"x_min":97,"x_max":222,"o":"m 160 981 q 204 962 186 981 q 222 918 222 943 q 204 874 222 892 q 160 856 186 856 q 115 874 133 856 q 97 918 97 892 q 115 962 97 943 q 160 981 133 981 m 154 735 l 168 735 l 196 415 l 213 0 l 108 0 l 125 415 l 154 735 z "},"#":{"ha":744,"x_min":28,"x_max":717,"o":"m 294 972 l 339 972 l 168 0 l 124 0 l 294 972 m 572 972 l 617 972 l 446 0 l 401 0 l 572 972 m 717 690 l 717 649 l 89 649 l 89 690 l 717 690 m 656 343 l 656 301 l 28 301 l 28 343 l 656 343 z "},".":{"ha":249,"x_min":63,"x_max":188,"o":"m 125 -6 q 81 13 99 -6 q 63 57 63 31 q 81 101 63 83 q 125 119 99 119 q 169 101 151 119 q 188 57 188 83 q 169 13 188 31 q 125 -6 151 -6 z "},"·":{"ha":236,"x_min":56,"x_max":181,"o":"m 118 424 q 74 442 92 424 q 56 486 56 460 q 74 531 56 513 q 118 549 92 549 q 163 531 144 549 q 181 486 181 513 q 163 442 181 460 q 118 424 144 424 z "},"?":{"ha":574,"x_min":28,"x_max":504,"o":"m 28 868 q 113 959 60 926 q 233 992 165 992 q 432 929 360 992 q 504 756 504 867 q 483 656 504 699 q 428 576 461 613 q 360 508 396 540 q 297 443 325 476 q 258 371 269 410 q 249 328 253 349 q 251 286 246 307 q 272 243 256 265 l 264 236 q 215 303 228 269 q 203 369 203 336 q 223 443 203 408 q 272 512 243 478 q 331 582 301 546 q 380 661 360 618 q 400 756 400 704 q 356 899 400 847 q 233 950 311 950 q 102 893 150 950 q 56 736 54 836 l 42 736 l 28 868 m 250 -6 q 206 13 224 -6 q 188 57 188 31 q 206 101 188 83 q 250 119 224 119 q 294 101 276 119 q 313 57 313 83 q 294 13 313 31 q 250 -6 276 -6 z "},"¿":{"ha":601,"x_min":69,"x_max":546,"o":"m 546 104 q 462 13 515 46 q 342 -19 408 -19 q 142 44 215 -19 q 69 217 69 107 q 91 316 69 272 q 145 396 113 360 q 213 464 178 432 q 276 529 249 496 q 315 601 304 563 q 325 644 322 624 q 324 686 328 665 q 301 729 319 707 l 310 736 q 359 669 346 703 q 372 603 372 636 q 352 529 372 564 q 303 460 332 494 q 244 390 274 426 q 194 312 214 354 q 174 217 174 269 q 219 74 174 125 q 342 22 264 22 q 472 79 424 22 q 518 236 521 136 l 532 236 l 546 104 m 324 978 q 368 960 350 978 q 386 915 386 942 q 368 871 386 889 q 324 853 350 853 q 279 871 297 853 q 261 915 261 889 q 279 960 261 942 q 324 978 297 978 z "},"\"":{"ha":438,"x_min":69,"x_max":369,"o":"m 92 972 l 189 992 q 185 922 189 965 q 169 834 181 879 q 136 751 157 789 q 82 694 115 713 l 69 701 q 89 804 83 763 q 95 884 94 846 q 92 972 96 922 m 272 972 l 369 992 q 365 922 369 965 q 349 834 361 879 q 317 751 338 789 q 263 694 296 713 l 250 701 q 269 804 264 763 q 276 884 275 846 q 272 972 276 922 z "},"'":{"ha":236,"x_min":49,"x_max":168,"o":"m 71 972 l 168 992 q 164 922 168 965 q 148 834 160 879 q 115 751 136 789 q 61 694 94 713 l 49 701 q 68 804 63 763 q 74 884 74 846 q 71 972 75 922 z "},";":{"ha":257,"x_min":63,"x_max":199,"o":"m 76 90 q 107 116 86 110 q 149 113 128 122 q 182 76 171 104 q 195 2 199 38 q 174 -61 192 -33 q 127 -106 156 -89 q 65 -124 99 -122 l 63 -112 q 117 -75 104 -99 q 124 -27 129 -51 q 108 11 119 -3 q 90 33 100 22 q 74 59 79 44 q 76 90 69 74 m 125 565 q 81 583 99 565 q 63 628 63 601 q 81 672 63 654 q 125 690 99 690 q 169 672 151 690 q 188 628 188 654 q 169 583 188 601 q 125 565 151 565 z "},"/":{"ha":564,"x_min":10,"x_max":554,"o":"m 510 992 l 554 968 l 53 -19 l 10 7 l 510 992 z "},"_":{"ha":694,"x_min":0,"x_max":694,"o":"m 0 -83 l 694 -83 l 694 -125 l 0 -125 l 0 -83 z "},"{":{"ha":468,"x_min":118,"x_max":414,"o":"m 192 472 q 193 531 199 490 q 180 622 188 571 q 172 718 172 672 q 198 870 174 803 q 275 978 222 938 q 411 1018 328 1018 l 414 1007 q 318 951 350 990 q 275 853 286 913 q 263 718 264 794 q 265 626 263 672 q 263 542 267 581 q 245 477 260 504 q 196 439 231 450 q 247 403 232 431 q 265 336 261 376 q 265 251 268 296 q 263 161 263 206 q 269 56 264 104 q 291 -28 275 8 q 336 -90 307 -65 q 414 -128 365 -115 l 411 -139 q 275 -99 328 -139 q 198 10 222 -58 q 172 161 174 78 q 179 257 172 207 q 191 347 186 307 q 188 406 196 388 q 158 429 181 424 q 118 436 136 435 l 118 450 q 160 454 138 451 q 192 472 183 457 z "},"}":{"ha":468,"x_min":56,"x_max":351,"o":"m 58 1018 q 195 978 143 1018 q 272 870 247 938 q 296 718 296 803 q 289 622 297 672 q 276 531 281 571 q 278 472 271 490 q 309 454 285 457 q 351 450 333 451 l 351 436 q 311 429 333 435 q 282 406 289 424 q 279 347 275 388 q 290 257 283 307 q 296 161 297 207 q 272 10 296 78 q 195 -99 247 -58 q 58 -139 143 -139 l 56 -128 q 133 -90 104 -115 q 178 -28 163 -65 q 200 56 194 8 q 206 161 206 104 q 203 251 206 206 q 205 336 201 296 q 224 403 208 376 q 274 439 239 431 q 224 477 239 450 q 205 542 208 504 q 203 626 201 581 q 206 718 206 672 q 194 853 206 794 q 152 951 183 913 q 56 1007 121 990 l 58 1018 z "},"[":{"ha":461,"x_min":167,"x_max":406,"o":"m 167 1003 l 401 1003 l 401 989 l 257 961 l 257 -83 l 406 -111 l 406 -125 l 167 -125 l 167 1003 z "},"]":{"ha":461,"x_min":56,"x_max":294,"o":"m 294 1003 l 294 -125 l 56 -125 l 56 -111 l 204 -83 l 204 961 l 60 989 l 60 1003 l 294 1003 z "},"(":{"ha":469,"x_min":124,"x_max":429,"o":"m 429 1006 q 326 901 374 979 q 249 710 278 822 q 222 467 221 597 q 254 208 225 329 q 329 -2 283 86 q 426 -126 375 -90 l 418 -139 q 308 -49 360 -108 q 215 91 256 10 q 150 267 174 172 q 125 464 126 363 q 147 655 124 564 q 212 819 171 746 q 307 944 253 893 q 421 1017 361 996 l 429 1006 z "},")":{"ha":469,"x_min":42,"x_max":346,"o":"m 42 1006 l 50 1017 q 163 944 110 996 q 258 819 217 893 q 323 655 300 746 q 346 464 346 564 q 321 267 344 363 q 256 91 297 172 q 162 -49 214 10 q 53 -139 110 -108 l 44 -126 q 142 -2 96 -90 q 217 208 188 86 q 249 467 247 329 q 222 710 250 597 q 146 901 193 822 q 42 1006 99 979 z "},"—":{"ha":1111,"x_min":0,"x_max":1111,"o":"m 0 432 l 1111 432 l 1111 376 l 0 376 l 0 432 z "},"–":{"ha":694,"x_min":0,"x_max":694,"o":"m 0 432 l 694 432 l 694 376 l 0 376 l 0 432 z "},"-":{"ha":528,"x_min":47,"x_max":481,"o":"m 56 436 l 472 436 l 481 406 l 472 374 l 56 374 l 47 406 l 56 436 z "},"­":{"ha":528,"x_min":47,"x_max":481,"o":"m 56 436 l 472 436 l 481 406 l 472 374 l 56 374 l 47 406 l 56 436 z "},"«":{"ha":629,"x_min":56,"x_max":547,"o":"m 56 406 l 299 125 l 311 132 l 146 406 l 310 674 l 299 681 l 56 406 m 292 406 l 535 125 l 547 132 l 382 406 l 546 674 l 535 681 l 292 406 z "},"»":{"ha":629,"x_min":83,"x_max":575,"o":"m 575 406 l 332 681 l 321 674 l 485 406 l 319 132 l 332 125 l 575 406 m 339 406 l 96 681 l 85 674 l 249 406 l 83 132 l 96 125 l 339 406 z "},"‹":{"ha":393,"x_min":56,"x_max":311,"o":"m 56 406 l 299 125 l 311 132 l 146 406 l 310 674 l 299 681 l 56 406 z "},"›":{"ha":393,"x_min":83,"x_max":339,"o":"m 339 406 l 96 681 l 85 674 l 249 406 l 83 132 l 96 125 l 339 406 z "},"„":{"ha":463,"x_min":63,"x_max":406,"o":"m 272 106 q 304 133 282 126 q 351 131 326 140 q 388 92 375 122 q 401 10 406 49 q 377 -60 397 -29 q 326 -110 357 -92 q 260 -129 296 -128 l 257 -117 q 315 -75 301 -101 q 324 -22 329 -49 q 306 19 318 4 q 286 43 297 31 q 269 72 275 56 q 272 106 264 88 m 78 106 q 110 133 88 126 q 156 131 132 140 q 193 92 181 122 q 207 10 211 49 q 183 -60 203 -29 q 132 -110 163 -92 q 65 -129 101 -128 l 63 -117 q 121 -75 107 -101 q 129 -22 135 -49 q 111 19 124 4 q 92 43 103 31 q 75 72 81 56 q 78 106 69 88 z "},"“":{"ha":463,"x_min":54,"x_max":397,"o":"m 382 854 q 351 826 374 833 q 303 829 328 819 q 267 868 279 839 q 253 950 249 911 q 277 1020 257 989 q 328 1069 297 1051 q 394 1089 358 1088 l 397 1076 q 339 1035 353 1063 q 331 982 325 1008 q 349 940 336 956 q 369 917 358 929 q 385 889 379 904 q 382 854 390 874 m 188 854 q 156 826 179 833 q 109 829 133 819 q 72 868 85 839 q 58 950 54 911 q 83 1020 63 989 q 133 1069 103 1051 q 200 1089 164 1088 l 203 1076 q 144 1035 158 1063 q 136 982 131 1008 q 154 940 142 956 q 174 917 164 929 q 190 889 185 904 q 188 854 196 874 z "},"”":{"ha":463,"x_min":63,"x_max":406,"o":"m 272 1051 q 304 1079 282 1072 q 351 1077 326 1086 q 388 1038 375 1068 q 401 956 406 994 q 377 885 397 917 q 326 836 357 854 q 260 817 296 818 l 257 829 q 315 871 301 844 q 324 924 329 897 q 306 965 318 950 q 286 989 297 976 q 269 1017 275 1001 q 272 1051 264 1033 m 78 1051 q 110 1079 88 1072 q 156 1077 132 1086 q 193 1038 181 1068 q 207 956 211 994 q 183 885 203 917 q 132 836 163 854 q 65 817 101 818 l 63 829 q 121 871 107 844 q 129 924 135 897 q 111 965 124 950 q 92 989 103 976 q 75 1017 81 1001 q 78 1051 69 1033 z "},"‘":{"ha":268,"x_min":58,"x_max":207,"o":"m 192 854 q 160 826 183 833 q 113 829 138 819 q 76 868 89 839 q 63 950 58 911 q 87 1020 67 989 q 138 1069 107 1051 q 204 1089 168 1088 l 207 1076 q 149 1035 163 1063 q 140 982 135 1008 q 158 940 146 956 q 178 917 168 929 q 194 889 189 904 q 192 854 200 874 z "},"’":{"ha":268,"x_min":63,"x_max":211,"o":"m 78 1051 q 110 1079 88 1072 q 156 1077 132 1086 q 193 1038 181 1068 q 207 956 211 994 q 183 885 203 917 q 132 836 163 854 q 65 817 101 818 l 63 829 q 121 871 107 844 q 129 924 135 897 q 111 965 124 950 q 92 989 103 976 q 75 1017 81 1001 q 78 1051 69 1033 z "},"‚":{"ha":268,"x_min":63,"x_max":211,"o":"m 78 99 q 110 126 88 119 q 156 124 132 133 q 193 85 181 115 q 207 3 211 42 q 183 -67 203 -36 q 132 -117 163 -99 q 65 -136 101 -135 l 63 -124 q 121 -82 107 -108 q 129 -29 135 -56 q 111 13 124 -3 q 92 36 103 24 q 75 65 81 49 q 78 99 69 81 z "}," ":{"ha":347,"x_min":0,"x_max":0,"o":""},"ƒ":{"ha":685,"x_min":28,"x_max":601,"o":"m 542 438 l 542 396 l 254 396 l 254 438 l 542 438 m 601 833 l 601 790 l 254 790 l 254 833 l 601 833 m 542 399 l 542 319 l 528 319 l 528 338 q 514 378 528 361 q 472 396 500 396 l 472 399 l 542 399 m 542 514 l 542 435 l 472 435 l 472 438 q 514 455 500 438 q 528 496 528 472 l 528 514 l 542 514 m 601 794 l 601 699 l 588 699 l 588 719 q 569 769 588 749 q 519 790 551 790 l 519 794 l 601 794 m 601 856 l 601 819 l 456 833 q 540 841 494 833 q 601 856 585 849 m 172 746 l 168 746 q 147 799 168 778 q 94 819 126 819 q 85 819 94 819 q 76 819 76 819 l 76 833 l 188 833 l 172 746 m 257 833 l 257 0 q 239 -95 257 -50 q 188 -174 221 -140 q 115 -228 156 -208 q 28 -247 74 -247 l 28 -233 q 99 -183 68 -219 q 149 -99 131 -147 q 168 0 168 -51 l 168 833 l 257 833 z "}}}
